<svg width="90" height="90" viewBox="0 0 90 90" fill="none" xmlns="http://www.w3.org/2000/svg">
<path d="M29.0121 17.1289C29.4574 17.4364 29.7326 17.68 29.8434 18.2229C29.8694 18.6488 29.8695 19.0684 29.8618 19.495C29.8619 19.6566 29.862 19.8183 29.8621 19.9848C29.8616 20.5184 29.8556 21.0518 29.8497 21.5853C29.8482 21.9555 29.8471 22.3257 29.8464 22.6959C29.8435 23.6698 29.836 24.6436 29.8275 25.6175C29.8197 26.6114 29.8162 27.6054 29.8124 28.5993C29.8042 30.5492 29.7913 32.4991 29.7751 34.4489C29.9088 34.3961 29.9088 34.3961 30.0451 34.3422C30.457 34.1802 30.8695 34.0202 31.2822 33.8602C31.4923 33.777 31.4923 33.777 31.7066 33.6922C32.6299 33.3362 33.5286 33.088 34.506 32.9296C34.5024 32.7009 34.5024 32.7009 34.4988 32.4675C34.4905 31.8998 34.4852 31.3321 34.4809 30.7644C34.4786 30.519 34.4755 30.2736 34.4715 30.0283C34.4659 29.6749 34.4633 29.3216 34.4613 28.9682C34.459 28.8591 34.4566 28.75 34.4542 28.6376C34.4539 27.7735 34.6751 27.3037 35.2673 26.6898C36.0872 25.9682 36.929 25.2855 37.7939 24.6188C38.4442 24.1153 39.073 23.5921 39.6948 23.0542C40.4774 22.3776 41.2786 21.7331 42.098 21.1014C42.7413 20.6026 43.3618 20.0825 43.9774 19.5503C44.6783 18.9484 45.3819 18.3508 46.1044 17.7746C46.3357 17.5878 46.3357 17.5878 46.5717 17.3972C47.0815 17.0922 47.3516 17.0632 47.9357 17.1289C48.3359 17.2617 48.4948 17.3481 48.7131 17.7086C48.8603 18.0621 48.889 18.2984 48.888 18.6788C48.8887 18.868 48.8887 18.868 48.8893 19.061C48.8877 19.2666 48.8877 19.2666 48.886 19.4763C48.886 19.6216 48.8861 19.7669 48.8861 19.9166C48.8859 20.3967 48.8835 20.8768 48.8811 21.3568C48.8806 21.6898 48.8801 22.0227 48.8798 22.3557C48.8787 23.2319 48.8757 24.1081 48.8723 24.9843C48.8692 25.8784 48.8678 26.7725 48.8662 27.6667C48.863 29.421 48.8578 31.1753 48.8513 32.9296C48.9538 32.949 49.0563 32.9684 49.1619 32.9884C49.3654 33.0277 49.3654 33.0277 49.573 33.0679C49.774 33.1064 49.774 33.1064 49.979 33.1457C50.5601 33.2737 51.1028 33.4726 51.6555 33.6893C51.76 33.7288 51.8644 33.7684 51.9721 33.8091C52.4714 34.0003 52.9536 34.2065 53.4296 34.4489C53.4305 34.3649 53.4314 34.281 53.4323 34.1945C53.4421 33.3195 53.455 32.4446 53.4697 31.5696C53.4747 31.2432 53.479 30.9168 53.4825 30.5904C53.4876 30.1208 53.4956 29.6513 53.5041 29.1818C53.5051 29.0362 53.5061 28.8906 53.5071 28.7405C53.5237 27.9899 53.5462 27.4595 54.0401 26.8524C54.3596 26.5604 54.3596 26.5604 54.7268 26.2827C54.8635 26.1773 55.0002 26.072 55.1411 25.9634C55.2814 25.8557 55.4216 25.748 55.5661 25.637C55.8245 25.4291 56.082 25.2202 56.3387 25.0103C56.4774 24.8971 56.6161 24.7839 56.759 24.6672C57.4679 24.0874 58.1759 23.5065 58.884 22.9256C59.6116 22.3288 60.3404 21.7336 61.0708 21.1402C61.4238 20.852 61.7758 20.5627 62.1272 20.2726C62.6813 19.8152 63.2373 19.3602 63.7948 18.9069C63.9996 18.74 64.204 18.5725 64.4077 18.4044C64.6731 18.1859 64.9407 17.9704 65.2092 17.7556C65.3593 17.6338 65.5094 17.512 65.664 17.3865C66.1661 17.0873 66.4364 17.0525 67.0119 17.1289C67.4239 17.4024 67.705 17.5974 67.9275 18.0405C67.9418 18.3331 67.9461 18.6262 67.9459 18.9191C67.9462 19.1997 67.9462 19.1997 67.9465 19.486C67.946 19.6944 67.9454 19.9028 67.9448 20.1112C67.9448 20.3298 67.9448 20.5484 67.9449 20.767C67.945 21.3615 67.9441 21.9559 67.943 22.5504C67.942 23.1713 67.9419 23.7922 67.9418 24.4131C67.9413 25.5893 67.94 26.7655 67.9385 27.9417C67.9368 29.2806 67.936 30.6195 67.9352 31.9584C67.9336 34.713 67.9309 37.4676 67.9275 40.2222C68.3175 40.1776 68.7073 40.132 69.0971 40.0857C69.2067 40.0733 69.3163 40.0609 69.4292 40.0481C71.0469 39.8538 72.2527 39.2402 73.4215 38.0952C73.7218 37.7002 73.9485 37.3183 74.1845 36.8798C74.0793 36.9127 73.974 36.9456 73.8656 36.9795C72.0118 37.5263 72.0118 37.5263 71.1323 37.3356C70.6205 36.9255 70.5366 36.6801 70.4456 36.0347C70.5359 35.4161 70.6582 35.2948 71.1323 34.9047C71.5112 34.7453 71.5112 34.7453 71.9341 34.6287C72.0898 34.5848 72.2455 34.5408 72.4059 34.4955C72.568 34.4519 72.73 34.4083 72.8969 34.3634C73.0547 34.3193 73.2126 34.2751 73.3753 34.2296C73.6915 34.1415 74.0081 34.0545 74.3249 33.9687C74.6402 33.8832 74.9551 33.7958 75.2694 33.7068C75.4925 33.6441 75.4925 33.6441 75.7201 33.5801C75.8527 33.5424 75.9853 33.5047 76.1219 33.4658C76.5978 33.357 76.9306 33.3702 77.3893 33.5373C77.9914 34.0187 78.1529 34.4896 78.3598 35.2198C78.3894 35.3236 78.4191 35.4274 78.4496 35.5344C78.5116 35.7536 78.5726 35.9732 78.6326 36.1929C78.7238 36.5255 78.8191 36.8568 78.9148 37.1881C79.2164 38.2542 79.496 39.2576 79.3732 40.3742C78.9849 40.8404 78.7491 40.9588 78.1524 41.0578C77.5495 40.9578 77.338 40.8335 76.9315 40.3742C76.7358 39.877 76.5961 39.3744 76.4736 38.8549C76.3761 38.952 76.2785 39.0491 76.178 39.1492C76.1081 39.2182 76.0383 39.2871 75.9663 39.3581C75.776 39.5489 75.5885 39.7425 75.4024 39.9374C73.8628 41.5264 72.2565 42.3685 70.064 42.805C69.359 42.805 68.6539 42.805 67.9275 42.805C67.9275 47.0165 67.9275 51.228 67.9275 55.5671C70.5438 55.1951 72.1951 54.7715 73.865 52.7535C74.0448 52.5247 74.0448 52.5247 74.1845 52.2247C74.0537 52.2593 73.9229 52.294 73.7881 52.3297C71.9525 52.7891 71.9525 52.7891 71.1323 52.5285C70.7603 52.2817 70.7603 52.2817 70.5219 51.9208C70.436 51.3986 70.436 51.3986 70.5219 50.8573C71.0708 50.1831 71.559 49.953 72.3902 49.7244C72.4949 49.6951 72.5997 49.6658 72.7077 49.6357C72.9282 49.5746 73.1491 49.5148 73.3703 49.4562C73.7064 49.3668 74.0411 49.2734 74.3759 49.1793C76.8331 48.5055 76.8331 48.5055 77.6616 48.967C78.0842 49.4307 78.2065 49.8103 78.3747 50.4128C78.4188 50.5685 78.4188 50.5685 78.4638 50.7274C78.5252 50.9465 78.5853 51.1661 78.6441 51.3859C78.7334 51.7187 78.8275 52.0498 78.9223 52.3811C79.2211 53.4493 79.4829 54.4493 79.3732 55.5671C79.1443 55.9565 79.1443 55.9565 78.7628 56.1749C78.1698 56.2898 77.7127 56.276 77.189 55.9659C76.8052 55.3716 76.646 54.7288 76.4736 54.0478C76.1247 54.3847 75.7863 54.7139 75.4811 55.0912C74.069 56.8323 71.9456 57.7746 69.7564 58.1102C69.3865 58.1425 69.0327 58.154 68.6621 58.1524C68.374 58.1512 68.374 58.1512 68.0801 58.1499C68.0796 58.3234 68.079 58.4968 68.0784 58.6755C68.0728 60.3096 68.064 61.9438 68.0521 63.5779C68.046 64.418 68.0411 65.2582 68.0388 66.0983C68.0365 66.9091 68.0312 67.7198 68.0239 68.5305C68.0217 68.8399 68.0205 69.1492 68.0203 69.4586C68.02 69.8918 68.0158 70.3249 68.0108 70.7581C68.0116 70.8861 68.0124 71.0141 68.0132 71.1459C68.0022 71.7556 67.9728 72.0566 67.6362 72.5834C67.2633 72.9383 67.1076 73.0263 66.5975 73.0942C65.9414 73.022 65.581 72.7195 65.0947 72.3079C65.0027 72.2329 64.9107 72.158 64.8159 72.0807C64.5285 71.8454 64.2439 71.6069 63.9597 71.3678C63.7807 71.2192 63.6016 71.0706 63.4226 70.9221C62.9369 70.5175 62.4559 70.1077 61.9757 69.6966C61.8471 69.5875 61.7184 69.4784 61.5859 69.366C61.4753 69.2714 61.3648 69.1768 61.2509 69.0794C61.1572 68.9993 61.0636 68.9192 60.9671 68.8366C60.6504 68.5328 60.6036 68.3392 60.545 67.9019C60.6023 67.4176 60.6023 67.4176 60.917 66.9808C61.487 66.5704 61.7403 66.5785 62.4336 66.658C62.8115 66.8878 63.1126 67.0982 63.4446 67.3797C63.528 67.447 63.6114 67.5144 63.6974 67.5838C63.8544 67.711 64.0107 67.8392 64.1657 67.9688C64.5001 68.2457 64.841 68.5146 65.1805 68.785C65.1805 53.1423 65.1805 37.4997 65.1805 21.383C64.3244 22.0849 63.4683 22.7868 62.5862 23.51C61.8991 24.0703 61.2115 24.6301 60.5236 25.1895C60.3265 25.3499 60.3265 25.3499 60.1254 25.5135C59.9896 25.6238 59.8539 25.7341 59.714 25.8477C59.3281 26.1622 58.9451 26.4801 58.5623 26.7984C58.4457 26.895 58.329 26.9916 58.2089 27.0912C57.9761 27.2841 57.7437 27.4775 57.5118 27.6715C57.4049 27.76 57.2979 27.8485 57.1876 27.9397C57.092 28.0193 56.9964 28.0989 56.8979 28.1809C56.6344 28.3717 56.6344 28.3717 56.1766 28.5236C56.1766 30.9804 56.1766 33.4371 56.1766 35.9682C56.4284 36.0685 56.6802 36.1688 56.9396 36.2721C57.1954 36.4007 57.4493 36.5331 57.7015 36.6685C57.8458 36.7452 57.9902 36.8218 58.1389 36.9008C58.2908 36.9816 58.4427 37.0624 58.5993 37.1457C59.8104 37.786 61.0047 38.3542 62.3018 38.7973C62.8187 39.0451 63.0488 39.2826 63.3492 39.7664C63.4129 40.1993 63.3343 40.5681 63.1966 40.9819C62.9582 41.2857 62.9582 41.2857 62.5862 41.4377C61.5167 41.5335 60.7773 41.2574 59.8106 40.8205C59.6799 40.7642 59.5492 40.7078 59.4145 40.6498C58.6286 40.3047 57.8704 39.9209 57.1153 39.5134C56.8506 39.3708 56.8506 39.3708 56.5806 39.2253C56.4473 39.1532 56.314 39.0811 56.1766 39.0068C56.1399 40.5679 56.1165 42.1286 56.1098 43.6902C56.1062 44.4154 56.0982 45.1401 56.0798 45.8651C56.0621 46.5657 56.0565 47.2655 56.059 47.9663C56.0579 48.2328 56.0526 48.4993 56.0428 48.7657C55.9885 49.9965 55.9885 49.9965 56.3292 51.1612C56.9262 51.7707 57.7011 52.1037 58.4851 52.4147C58.8442 52.5577 59.1852 52.7299 59.5286 52.9066C59.7303 53 59.9323 53.0924 60.1349 53.1837C60.2425 53.2334 60.3502 53.2831 60.4611 53.3343C61.0322 53.597 61.6072 53.8489 62.1856 54.0953C62.6618 54.316 62.8775 54.4213 63.1966 54.8075C63.3194 55.3246 63.3979 55.7082 63.2443 56.2223C62.9928 56.5443 62.8233 56.6532 62.4336 56.7826C61.7403 56.8288 61.2738 56.7251 60.6422 56.4437C60.4792 56.3717 60.3162 56.2997 60.1483 56.2256C59.8962 56.1112 59.8962 56.1112 59.6389 55.9944C59.4726 55.9211 59.3063 55.8477 59.1349 55.7722C58.1639 55.3391 57.2658 54.8697 56.3292 54.3517C56.2788 56.7583 56.2285 59.1648 56.1766 61.6443C56.378 61.7446 56.5795 61.8449 56.787 61.9482C56.9504 62.0691 57.1097 62.1957 57.2645 62.3274C57.35 62.3998 57.4355 62.4721 57.5235 62.5467C57.611 62.6218 57.6984 62.6969 57.7885 62.7743C57.8766 62.8488 57.9646 62.9233 58.0553 63.0001C58.2956 63.2046 58.5334 63.4119 58.7709 63.6194C58.8545 63.6905 58.9381 63.7616 59.0243 63.8349C59.3267 64.1903 59.3009 64.5463 59.2818 64.9963C59.2288 65.2906 59.2288 65.2906 58.9808 65.661C58.532 65.9549 58.2404 66.0394 57.7027 66.0503C57.123 65.7498 56.6385 65.3651 56.1384 64.9488C55.4927 64.4138 54.8364 63.9017 54.1587 63.4075C53.723 63.0157 53.5934 62.6922 53.5455 62.1079C53.5462 61.9338 53.5469 61.7597 53.5476 61.5804C53.5476 61.3827 53.5476 61.185 53.5476 60.9814C53.5492 60.7664 53.5508 60.5513 53.5524 60.3363C53.553 60.1158 53.5534 59.8952 53.5537 59.6747C53.5549 59.0952 53.5579 58.5158 53.5613 57.9363C53.5644 57.3446 53.5658 56.7529 53.5673 56.1612C53.5706 55.0009 53.5758 53.8407 53.5822 52.6805C53.3671 52.6096 53.3671 52.6096 53.1476 52.5374C52.7374 52.4003 52.3375 52.2526 51.9363 52.0917C51.805 52.0393 51.6737 51.9868 51.5384 51.9327C51.4039 51.8786 51.2695 51.8246 51.1309 51.7689C50.9284 51.6878 50.9284 51.6878 50.7217 51.6051C50.47 51.5043 50.2183 51.4034 49.9667 51.3024C49.5951 51.1535 49.2232 51.0054 48.8513 50.8573C48.8516 50.9664 48.8519 51.0754 48.8522 51.1878C48.8589 53.8404 48.864 56.493 48.8671 59.1457C48.8687 60.4285 48.8709 61.7112 48.8744 62.994C48.8774 64.112 48.8794 65.23 48.88 66.3479C48.8804 66.94 48.8814 67.532 48.8836 68.1241C48.8857 68.6812 48.8863 69.2384 48.8859 69.7956C48.886 70.0977 48.8876 70.3999 48.8893 70.702C48.8889 70.8818 48.8885 71.0616 48.888 71.2469C48.8883 71.4032 48.8886 71.5595 48.8889 71.7205C48.8503 72.1383 48.7713 72.3837 48.5461 72.7352C48.0511 73.0872 47.6154 73.0849 47.02 73.039C46.688 72.8479 46.688 72.8479 46.3619 72.5643C46.2317 72.454 46.1014 72.3437 45.9672 72.2301C45.8937 72.1666 45.8202 72.1031 45.7444 72.0376C45.3502 71.7008 44.9475 71.3745 44.5457 71.0466C44.2061 70.7694 43.8672 70.4913 43.5285 70.2129C42.7612 69.5827 41.9913 68.9557 41.2209 68.3292C40.1141 67.4293 39.0098 66.5264 37.9074 65.6212C37.416 65.2179 36.9244 64.8151 36.4298 64.4158C36.2828 64.2972 36.1358 64.1785 35.9844 64.0562C35.8591 63.9555 35.7338 63.8549 35.6047 63.7512C34.7015 62.9877 34.7015 62.9877 34.506 62.404C34.4878 62.0368 34.4778 61.6736 34.4747 61.3062C34.4732 61.195 34.4717 61.0838 34.4701 60.9692C34.4653 60.6018 34.4615 60.2343 34.4578 59.8669C34.4546 59.612 34.4514 59.3572 34.4481 59.1024C34.4397 58.4318 34.4322 57.7611 34.4248 57.0905C34.4171 56.4062 34.4087 55.7218 34.4002 55.0375C34.3838 53.6947 34.3683 52.352 34.3534 51.0092C33.9144 51.1513 33.4757 51.2943 33.0372 51.4377C32.9138 51.4776 32.7905 51.5174 32.6634 51.5584C31.8525 51.8246 31.0967 52.1345 30.3474 52.5463C30.0804 52.6805 30.0804 52.6805 29.7751 52.6805C29.7758 52.7808 29.7765 52.8811 29.7773 52.9844C29.7941 55.4254 29.8068 57.8663 29.8147 60.3073C29.8186 61.4877 29.824 62.6681 29.8327 63.8485C29.8403 64.8774 29.8452 65.9063 29.8469 66.9352C29.8479 67.48 29.8503 68.0247 29.8558 68.5694C29.862 69.1777 29.8621 69.7858 29.8618 70.394C29.8645 70.5746 29.8673 70.7551 29.8701 70.9411C29.8615 72.3002 29.8615 72.3002 29.4086 72.7718C28.8704 73.1345 28.6236 73.1322 28.0022 73.023C27.4308 72.8094 27.0605 72.4422 26.6276 72.0224C26.2494 71.6565 25.8549 71.3274 25.4448 70.9975C25.3036 70.8833 25.1624 70.7691 25.0168 70.6515C24.8748 70.5369 24.7328 70.4224 24.5864 70.3043C24.3065 70.0766 24.0267 69.8487 23.7471 69.6206C23.3382 69.2876 22.9293 68.9545 22.5202 68.6218C21.5423 67.8262 20.5669 67.0275 19.5926 66.2275C19.1106 65.832 18.6285 65.4367 18.1434 65.0449C18.0034 64.9317 17.8633 64.8185 17.719 64.7019C17.6025 64.6083 17.4861 64.5147 17.3661 64.4182C17.2307 64.305 17.0954 64.1918 16.9559 64.0752C16.8405 64.0022 16.725 63.9292 16.6061 63.854C15.9679 63.4013 15.6282 63.089 15.4721 62.3061C15.4305 61.6534 15.4623 61.0052 15.4966 60.3529C15.5035 60.1242 15.5098 59.8956 15.5154 59.6669C15.5304 59.1102 15.5541 58.5542 15.5825 57.998C15.3213 58.0341 15.3213 58.0341 15.0549 58.071C14.3809 58.1542 13.7145 58.1884 13.0358 58.1974C12.924 58.2018 12.8121 58.2062 12.6969 58.2108C12.1384 58.2173 11.7981 58.1679 11.3124 57.8858C10.9716 57.5059 10.9002 57.3599 10.9088 56.8585C10.9068 56.7442 10.9049 56.6298 10.9028 56.5119C11.061 55.9859 11.2922 55.8391 11.7672 55.5671C12.2408 55.4862 12.7088 55.4908 13.1884 55.4912C16.4678 55.4045 19.8629 54.8052 22.8201 53.3315C23.4242 53.0313 23.7632 53.0515 24.4338 53.1363C24.9598 53.5072 25.1634 53.7181 25.2827 54.3517C25.173 54.9343 25.0036 55.1421 24.5864 55.5671C24.1649 55.814 23.7239 55.9947 23.2702 56.1749C23.1433 56.2267 23.0163 56.2785 22.8856 56.3319C21.3617 56.937 19.7865 57.3807 18.1768 57.6941C18.1366 58.3017 18.1124 58.9089 18.091 59.5173C18.0737 59.7738 18.0737 59.7738 18.0561 60.0354C18.0254 61.0108 18.0254 61.0108 18.4528 61.859C18.8035 62.1722 19.1623 62.4422 19.5503 62.7078C19.7266 62.8468 19.9022 62.9868 20.0767 63.128C20.2412 63.2542 20.4059 63.38 20.5709 63.5055C21.3173 64.0808 22.0425 64.6743 22.7551 65.2906C23.5562 65.9832 24.3749 66.6468 25.215 67.2918C25.6614 67.6354 26.0975 67.987 26.5251 68.3536C26.6197 68.4347 26.7144 68.5158 26.8119 68.5993C26.8833 68.6606 26.9547 68.7219 27.0282 68.785C27.0285 68.6675 27.0289 68.5499 27.0293 68.4289C27.0383 65.5695 27.0498 62.7102 27.0641 59.8508C27.071 58.4681 27.077 57.0853 27.081 55.7026C27.0845 54.4974 27.0896 53.2922 27.0966 52.0871C27.1003 51.4489 27.1032 50.8108 27.1041 50.1726C27.105 49.5719 27.1081 48.9712 27.1128 48.3706C27.1141 48.1501 27.1147 47.9297 27.1144 47.7093C27.1141 47.4082 27.117 47.107 27.1199 46.8059C27.1206 46.6375 27.1213 46.469 27.1221 46.2954C27.1885 45.7842 27.3327 45.4964 27.6386 45.084C28.1176 44.8456 28.4838 44.8786 29.0121 44.9321C29.4124 45.1836 29.558 45.2883 29.7751 45.6917C29.8919 46.365 29.8958 47.0322 29.8991 47.7143C29.903 47.8992 29.9068 48.0842 29.9108 48.2748C29.9197 48.7305 29.9253 49.1861 29.9278 49.6419C30.01 49.6113 30.0922 49.5806 30.177 49.5491C30.5548 49.4087 30.9328 49.2689 31.3108 49.1291C31.4401 49.0809 31.5695 49.0328 31.7027 48.9831C33.6231 48.2745 33.6231 48.2745 34.506 48.2745C34.506 44.1132 34.506 39.9518 34.506 35.6643C32.1359 36.4399 32.1359 36.4399 29.9278 37.4875C29.9255 37.581 29.9233 37.6744 29.921 37.7707C29.9096 38.1955 29.8949 38.6201 29.8801 39.0448C29.8766 39.1919 29.8732 39.3389 29.8696 39.4905C29.8615 39.7035 29.8615 39.7035 29.8532 39.9207C29.8492 40.0512 29.8452 40.1817 29.8411 40.3162C29.7622 40.7489 29.6137 40.9639 29.3173 41.2857C28.7925 41.4724 28.2671 41.4868 27.734 41.3332C27.3287 41.0074 27.1955 40.6642 27.1408 40.1524C27.14 40.0117 27.1392 39.8711 27.1383 39.7263C27.1366 39.5644 27.1349 39.4024 27.1331 39.2356C27.1328 39.0588 27.1325 38.882 27.1321 38.6998C27.1306 38.513 27.1291 38.3262 27.1275 38.1338C27.1236 37.6221 27.121 37.1105 27.119 36.5989C27.1166 36.064 27.1125 35.5291 27.1086 34.9942C27.1015 33.9816 27.0959 32.9689 27.0908 31.9563C27.085 30.8033 27.0775 29.6504 27.0698 28.4974C27.054 26.1259 27.0404 23.7544 27.0282 21.383C26.8949 21.4954 26.7617 21.6079 26.6244 21.7238C26.4462 21.8741 26.268 22.0244 26.0899 22.1746C26.0024 22.2485 25.915 22.3223 25.8249 22.3984C25.0132 23.0827 24.1908 23.7534 23.3655 24.4215C22.3558 25.2422 21.3483 26.0656 20.342 26.8904C20.2325 26.9801 20.123 27.0699 20.0101 27.1623C19.9046 27.2489 19.7991 27.3354 19.6904 27.4245C19.5972 27.501 19.504 27.5774 19.4079 27.6561C19.3038 27.7419 19.1997 27.8276 19.0925 27.9159C18.931 28.0126 18.7696 28.1093 18.6033 28.2089C18.2726 28.4863 18.1853 28.6349 18.0966 29.0618C18.0686 29.5621 18.0701 30.0553 18.0808 30.5563C18.0806 30.7393 18.0803 30.9222 18.08 31.1107C18.0793 31.695 18.0846 32.2789 18.091 32.8631C18.0966 33.4479 18.1008 34.0324 18.1003 34.6172C18.1001 34.9809 18.1033 35.3447 18.1104 35.7083C18.1101 36.9319 18.1101 36.9319 17.6666 37.4471C17.169 37.6832 16.8904 37.7298 16.3455 37.6394C15.8513 37.3329 15.6162 37.1732 15.4794 36.5997C15.476 36.4329 15.4727 36.2661 15.4692 36.0942C15.4638 35.9045 15.4585 35.7148 15.4529 35.5193C15.4513 35.3125 15.4499 35.1056 15.4489 34.8988C15.4461 34.6853 15.4432 34.4718 15.4401 34.2583C15.4349 33.8105 15.4329 33.3628 15.4327 32.915C15.4319 32.3446 15.4199 31.775 15.405 31.2049C15.3954 30.7635 15.3934 30.3223 15.3935 29.8808C15.3923 29.6708 15.3884 29.4609 15.3816 29.251C15.3544 28.327 15.3518 27.601 15.9395 26.855C16.3635 26.4673 16.7961 26.1261 17.2612 25.7889C17.542 25.5591 17.822 25.3283 18.1005 25.0957C18.3801 24.8708 18.6599 24.646 18.9399 24.4215C19.2198 24.1939 19.4996 23.966 19.7792 23.7379C20.1881 23.4048 20.5969 23.0718 21.0061 22.739C21.8513 22.0514 22.6947 21.3616 23.5372 20.6708C23.6462 20.5815 23.7551 20.4922 23.8673 20.4002C24.4517 19.9211 25.0356 19.4414 25.6189 18.961C25.7367 18.8641 25.8545 18.7672 25.9759 18.6673C26.2025 18.481 26.4288 18.2945 26.6551 18.1077C26.7573 18.0237 26.8596 17.9396 26.965 17.853C27.0548 17.779 27.1445 17.705 27.237 17.6288C27.8632 17.1358 28.2152 17.0332 29.0121 17.1289ZM45.1982 21.9907C44.6038 22.4961 44.0082 22.9979 43.3955 23.4815C42.6923 24.0366 41.999 24.6032 41.3067 25.1717C41.1942 25.264 41.0818 25.3563 40.9659 25.4514C40.5567 25.7873 40.1476 26.1233 39.7387 26.4596C39.5176 26.6414 39.2962 26.8229 39.0748 27.0044C38.9566 27.1015 38.8383 27.1986 38.7165 27.2987C38.3213 27.6121 38.3213 27.6121 38.0057 27.7837C37.6347 28.0036 37.3751 28.1903 37.1004 28.5236C36.9504 29.1815 36.9846 29.8095 37.0241 30.4797C37.0296 30.6568 37.0351 30.8338 37.0408 31.0162C37.0551 31.452 37.0752 31.8867 37.1004 32.3219C37.3869 32.3171 37.3869 32.3171 37.6791 32.3122C38.3878 32.3012 39.0965 32.2943 39.8053 32.2885C40.1121 32.2855 40.4188 32.2813 40.7255 32.276C41.1664 32.2687 41.6073 32.2652 42.0483 32.2625C42.1853 32.2594 42.3224 32.2563 42.4636 32.253C43.4124 32.2527 43.4124 32.2527 43.9036 32.601C44.1944 33.0417 44.1747 33.3227 44.1204 33.8412C44.0441 34.202 44.0441 34.202 43.9678 34.4489C43.4162 34.618 42.8916 34.6269 42.3165 34.6382C42.1099 34.6432 41.9032 34.6483 41.6966 34.6534C41.3742 34.6605 41.0518 34.6673 40.7293 34.6733C40.4158 34.6794 40.1024 34.6872 39.7889 34.6952C39.6026 34.699 39.4163 34.7028 39.2243 34.7067C38.5089 34.7618 37.8041 34.9165 37.1004 35.0566C37.1004 39.218 37.1004 43.3793 37.1004 47.6668C37.9565 47.6167 38.8127 47.5665 39.6948 47.5149C40.3193 47.4955 40.9399 47.4803 41.5642 47.4769C41.7882 47.4722 41.7882 47.4722 42.0167 47.4674C43.3653 47.4601 43.3653 47.4601 43.9678 47.9706C44.1846 48.4023 44.1684 48.7082 44.1204 49.1861C43.8891 49.5121 43.8891 49.5121 43.51 49.7938C43.083 49.866 42.7094 49.9029 42.2808 49.9143C42.1024 49.9226 42.1024 49.9226 41.9204 49.931C41.5411 49.9481 41.1617 49.9613 40.7821 49.9742C40.4037 49.9896 40.0254 50.0057 39.647 50.0223C39.412 50.0323 39.1769 50.0415 38.9418 50.0497C38.3154 50.0736 37.7171 50.1414 37.1004 50.2496C37.065 51.7142 37.0379 53.1787 37.0213 54.6437C37.0134 55.324 37.0026 56.0041 36.9853 56.6843C36.9686 57.3414 36.9596 57.9982 36.9556 58.6555C36.9528 58.9055 36.9473 59.1556 36.939 59.4056C36.8611 60.8208 36.8611 60.8208 37.4354 62.0639C37.8189 62.3719 38.1979 62.6194 38.6265 62.8598C38.8845 63.068 39.1422 63.2768 39.3991 63.4865C39.5378 63.5997 39.6765 63.7129 39.8194 63.8295C40.5274 64.4087 41.2346 64.989 41.9419 65.5691C42.8192 66.2885 43.6966 67.0076 44.5783 67.7215C44.7221 67.838 44.8659 67.9546 45.014 68.0746C45.2233 68.243 45.2233 68.243 45.4367 68.4147C45.5614 68.5152 45.6861 68.6156 45.8146 68.7191C46.0641 68.9522 46.0641 68.9522 46.257 68.9369C46.257 53.194 46.257 37.451 46.257 21.231C45.8932 21.231 45.4758 21.7526 45.1982 21.9907ZM48.8513 35.6643C48.8513 39.7756 48.8513 43.8868 48.8513 48.1226C49.787 48.4733 49.787 48.4733 50.7268 48.8116C50.8357 48.8499 50.9447 48.8882 51.057 48.9276C51.1664 48.9659 51.2758 49.0042 51.3885 49.0437C51.499 49.0825 51.6096 49.1214 51.7235 49.1615C52.3414 49.3782 52.9605 49.5875 53.5822 49.7938C53.5822 45.7327 53.5822 41.6716 53.5822 37.4875C51.3617 36.2382 51.3617 36.2382 48.8513 35.6643Z" fill="url(#paint0_linear_109_730)"/>
<path d="M24.6988 37.7431C25.1438 38.1448 25.2927 38.3943 25.4028 38.9848C25.2836 39.6244 25.0354 39.8054 24.5445 40.2266C24.1153 40.4717 23.6706 40.6614 23.2135 40.8475C23.0228 40.9267 23.0228 40.9267 22.8283 41.0076C21.3561 41.6 19.6614 42.2445 18.0633 42.2445C18.0647 42.3695 18.0661 42.4945 18.0675 42.6233C18.0799 43.8018 18.0893 44.9803 18.0953 46.1588C18.0985 46.7647 18.1029 47.3705 18.1099 47.9764C18.1166 48.5611 18.1203 49.1458 18.1219 49.7306C18.123 49.9537 18.1253 50.1767 18.1286 50.3997C18.1331 50.7122 18.1333 51.0247 18.1334 51.3372C18.1348 51.5151 18.1361 51.6929 18.1376 51.8762C18.047 52.4346 17.8834 52.6109 17.4461 52.9548C16.9293 53.16 16.7143 53.1233 16.1826 52.9451C15.6414 52.57 15.6015 52.3435 15.44 51.713C15.4029 51.2592 15.4029 51.2592 15.405 50.7808C15.405 50.6007 15.405 50.4205 15.4051 50.2349C15.4066 50.0427 15.4082 49.8506 15.4099 49.6527C15.4103 49.4542 15.4108 49.2557 15.4112 49.0511C15.4126 48.526 15.4154 48.0008 15.4188 47.4757C15.422 46.9388 15.4234 46.4018 15.4249 45.8649C15.4283 44.8133 15.4335 43.7617 15.44 42.7102C15.293 42.7209 15.293 42.7209 15.1431 42.7318C14.6957 42.7629 14.2481 42.7899 13.8004 42.8169C13.6463 42.8282 13.4921 42.8395 13.3333 42.8511C12.4725 42.8999 11.8558 42.9178 11.1193 42.3997C10.8778 41.914 10.8574 41.3736 10.9649 40.8475C11.2797 40.4584 11.4725 40.2522 11.9643 40.1375C12.1776 40.1288 12.1776 40.1288 12.3954 40.1199C12.5562 40.1111 12.717 40.1024 12.8827 40.0934C13.0551 40.0861 13.2274 40.0789 13.405 40.0714C16.695 39.8714 19.8907 39.3748 22.876 37.908C23.5426 37.5902 23.9775 37.4766 24.6988 37.7431Z" fill="url(#paint1_linear_109_730)"/>
<defs>
<linearGradient id="paint0_linear_109_730" x1="10.9028" y1="45.0942" x2="55.7586" y2="44.463" gradientUnits="userSpaceOnUse">
<stop stop-color="#09B786"/>
<stop offset="1" stop-color="#1B91CD"/>
</linearGradient>
<linearGradient id="paint1_linear_109_730" x1="10.9028" y1="45.3442" x2="20.3986" y2="45.242" gradientUnits="userSpaceOnUse">
<stop stop-color="#09B786"/>
<stop offset="1" stop-color="#1B91CD"/>
</linearGradient>
</defs>
</svg>
