<svg width="90" height="90" viewBox="0 0 90 90" fill="none" xmlns="http://www.w3.org/2000/svg">
<g clip-path="url(#clip0_109_719)">
<path d="M36.7103 27.5744C36.8153 27.5751 36.9204 27.5757 37.0286 27.5764C38.9247 27.6116 40.5005 28.3241 41.8713 29.6403C43.2555 31.2382 43.879 33.0932 43.7554 35.2008C43.6137 36.4076 43.2526 37.4262 42.5753 38.4335C42.5105 38.53 42.4458 38.6264 42.3791 38.7257C42.3297 38.7991 42.2802 38.8725 42.2293 38.948C42.3479 38.9477 42.4665 38.9474 42.5887 38.947C45.4781 38.9391 48.3675 38.9332 51.2569 38.9295C52.6542 38.9277 54.0515 38.9251 55.4489 38.921C56.6671 38.9175 57.8854 38.9152 59.1037 38.9144C59.7484 38.9139 60.3931 38.9128 61.0378 38.9102C61.6455 38.9078 62.2531 38.907 62.8608 38.9076C63.083 38.9075 63.3052 38.9067 63.5274 38.9054C65.7351 38.8923 67.5009 39.2269 69.1629 40.7991C69.8788 41.576 70.378 42.4561 70.6298 43.4826C70.6504 43.564 70.671 43.6455 70.6922 43.7294C70.7696 44.2048 70.7668 44.6699 70.7667 45.1508C70.7671 45.2589 70.7676 45.3669 70.768 45.4783C70.7693 45.8406 70.7698 46.2028 70.7703 46.5651C70.771 46.8249 70.7718 47.0846 70.7726 47.3443C70.7751 48.1976 70.7764 49.0508 70.7776 49.904C70.7781 50.1981 70.7785 50.4921 70.779 50.7861C70.7813 52.1679 70.783 53.5497 70.784 54.9315C70.7852 56.5248 70.7883 58.1181 70.7931 59.7114C70.7967 60.9439 70.7985 62.1764 70.7989 63.409C70.7992 64.1446 70.8002 64.8802 70.8033 65.6159C70.806 66.3085 70.8065 67.0012 70.8053 67.6939C70.8053 67.9472 70.806 68.2006 70.8076 68.4539C70.8208 70.6044 70.5538 72.4102 69.0487 74.0721C68.0156 75.0498 66.7139 75.7152 65.2801 75.7177C65.1371 75.7182 64.994 75.7188 64.8466 75.7193C64.6893 75.7193 64.5319 75.7193 64.3698 75.7192C64.2011 75.7196 64.0324 75.7201 63.8636 75.7206C63.3995 75.7218 62.9353 75.7222 62.4711 75.7225C61.9706 75.723 61.4702 75.7241 60.9697 75.7252C59.7608 75.7275 58.5518 75.7287 57.3429 75.7298C56.7734 75.7303 56.2039 75.731 55.6345 75.7316C53.7411 75.7336 51.8477 75.7353 49.9544 75.7362C49.463 75.7364 48.9717 75.7367 48.4803 75.7369C48.3582 75.737 48.2361 75.737 48.1103 75.7371C46.1328 75.7381 44.1553 75.7411 42.1778 75.745C40.147 75.7489 38.1162 75.7511 36.0854 75.7514C34.9454 75.7517 33.8054 75.7527 32.6654 75.7558C31.6944 75.7584 30.7234 75.7593 29.7523 75.7582C29.2572 75.7576 28.7621 75.7579 28.2669 75.7602C27.8129 75.7623 27.3589 75.7622 26.9048 75.7603C26.6643 75.7599 26.4239 75.7618 26.1834 75.7638C24.7326 75.7536 23.5724 75.3929 22.4205 74.5084C22.3471 74.4559 22.2737 74.4035 22.1982 74.3494C21.0921 73.4984 20.38 72.0511 20.1532 70.6898C20.1413 70.415 20.1355 70.1399 20.134 69.8648C20.1334 69.7842 20.1328 69.7036 20.1322 69.6205C20.1305 69.3554 20.1297 69.0904 20.129 68.8253C20.1283 68.6403 20.1276 68.4553 20.1269 68.2703C20.1257 67.8831 20.125 67.4959 20.1246 67.1088C20.1239 66.6132 20.121 66.1177 20.1176 65.6221C20.1154 65.2403 20.1148 64.8585 20.1146 64.4766C20.1143 64.2939 20.1133 64.1112 20.1117 63.9285C20.1097 63.6729 20.1099 63.4174 20.1107 63.1618C20.1103 63.0165 20.1098 62.8712 20.1094 62.7216C20.1577 62.2974 20.2546 62.078 20.5112 61.7401C20.9888 61.4217 21.3815 61.4019 21.9432 61.5014C22.272 61.7617 22.4725 61.9634 22.6592 62.3367C22.6711 62.5875 22.6753 62.8387 22.6761 63.0898C22.6767 63.2057 22.6767 63.2057 22.6773 63.3239C22.6782 63.492 22.6789 63.6601 22.6793 63.8282C22.6801 64.0953 22.682 64.3623 22.6842 64.6293C22.6905 65.3887 22.6962 66.148 22.6981 66.9074C22.6993 67.3719 22.7028 67.8364 22.7078 68.3009C22.7092 68.4771 22.7098 68.6533 22.7096 68.8295C22.7082 70.0127 22.8415 70.9433 23.4497 71.9726C24.6075 73.0695 25.8671 73.2325 27.3998 73.2261C27.6062 73.2266 27.6062 73.2266 27.8167 73.2272C28.2759 73.2281 28.7351 73.2274 29.1943 73.2266C29.5243 73.2268 29.8542 73.2274 30.1842 73.2279C30.9863 73.229 31.7883 73.2287 32.5904 73.228C33.2425 73.2275 33.8946 73.2274 34.5467 73.2277C34.6396 73.2277 34.7325 73.2278 34.8283 73.2278C35.0171 73.2279 35.2059 73.2279 35.3948 73.228C37.1638 73.2287 38.9329 73.2279 40.702 73.2266C42.2187 73.2256 43.7354 73.2258 45.2521 73.2269C47.015 73.2281 48.7779 73.2286 50.5408 73.2279C50.729 73.2278 50.9171 73.2278 51.1052 73.2277C51.1977 73.2276 51.2903 73.2276 51.3856 73.2276C52.0366 73.2274 52.6877 73.2277 53.3387 73.2283C54.1325 73.2289 54.9262 73.2288 55.72 73.2275C56.1247 73.2269 56.5294 73.2267 56.9341 73.2274C57.3734 73.2281 57.8127 73.2272 58.252 73.2261C58.3791 73.2266 58.5061 73.2271 58.6371 73.2277C59.8811 73.2211 60.9257 73.0352 61.9187 72.2411C62.5635 71.4979 62.8987 70.7123 62.9114 69.7236C62.9138 69.5827 62.9162 69.4418 62.9186 69.2966C62.92 69.1463 62.9214 68.996 62.9228 68.8411C62.9262 68.6082 62.9262 68.6082 62.9298 68.3707C62.9359 67.9599 62.9406 67.5491 62.9451 67.1383C62.9499 66.7183 62.9559 66.2984 62.9619 65.8784C62.9734 65.0558 62.9835 64.2333 62.9927 63.4107C62.8364 63.4115 62.6802 63.4123 62.5192 63.4131C61.0411 63.4204 59.563 63.4257 58.0849 63.4292C57.3251 63.4311 56.5654 63.4336 55.8056 63.4377C55.0714 63.4416 54.3371 63.4437 53.6028 63.4447C53.3238 63.4453 53.0447 63.4466 52.7657 63.4485C50.3574 63.4646 48.2725 63.4029 46.4361 61.6585C45.1375 60.3238 44.7002 58.9212 44.6974 57.1029C44.7164 55.7348 45.0969 54.7086 45.9285 53.6256C45.981 53.5523 46.0334 53.4789 46.0875 53.4033C46.9426 52.2918 48.3837 51.5954 49.7471 51.3584C49.9384 51.3483 50.1301 51.3438 50.3217 51.344C50.4339 51.3438 50.5462 51.3437 50.6619 51.3435C50.7836 51.3439 50.9053 51.3444 51.0307 51.3448C51.2246 51.3448 51.2246 51.3448 51.4225 51.3448C51.8492 51.3448 52.276 51.3458 52.7028 51.3467C52.9989 51.3469 53.295 51.3471 53.5912 51.3472C54.3702 51.3477 55.1492 51.3488 55.9282 51.3502C56.7233 51.3515 57.5183 51.3519 58.3134 51.3525C59.8732 51.3538 61.4329 51.3558 62.9927 51.3584C62.9881 50.461 62.981 49.5636 62.9707 48.6663C62.9661 48.2495 62.9622 47.8327 62.9604 47.4159C62.9582 46.9354 62.9522 46.455 62.9461 45.9745C62.9459 45.7528 62.9459 45.7528 62.9456 45.5265C62.9263 44.3663 62.7092 43.3456 61.9001 42.4725C61.1863 41.8782 60.3392 41.5592 59.4176 41.5573C59.2379 41.5565 59.2379 41.5565 59.0545 41.5557C58.923 41.5557 58.7916 41.5557 58.6562 41.5557C58.5163 41.5553 58.3765 41.5549 58.2325 41.5544C57.8442 41.5533 57.456 41.5528 57.0678 41.5525C56.6491 41.552 56.2304 41.5508 55.8117 41.5498C54.8004 41.5474 53.7892 41.5462 52.7779 41.5452C52.3014 41.5447 51.825 41.544 51.3485 41.5434C49.7642 41.5414 48.1799 41.5396 46.5955 41.5388C46.1845 41.5385 45.7734 41.5383 45.3624 41.5381C45.2602 41.538 45.158 41.538 45.0528 41.5379C43.3985 41.5369 41.7442 41.5339 40.0899 41.53C38.3908 41.5261 36.6916 41.5239 34.9924 41.5235C34.0386 41.5233 33.0849 41.5222 32.1312 41.5192C31.3188 41.5166 30.5065 41.5156 29.6941 41.5168C29.2799 41.5173 28.8658 41.5171 28.4516 41.5148C28.0016 41.5127 27.5517 41.5135 27.1018 41.5151C26.9722 41.5138 26.8426 41.5125 26.7091 41.5111C25.59 41.5205 24.5085 41.7656 23.6735 42.5545C23.0147 43.3351 22.7653 44.0898 22.7597 45.0965C22.7591 45.1736 22.7585 45.2507 22.7578 45.3301C22.7566 45.497 22.7555 45.6639 22.7547 45.8308C22.7533 46.0952 22.751 46.3595 22.7484 46.6239C22.741 47.3754 22.7346 48.1268 22.7306 48.8783C22.7281 49.3385 22.7239 49.7986 22.7186 50.2588C22.7169 50.4338 22.7158 50.6088 22.7155 50.7838C22.7149 51.0289 22.7121 51.2739 22.7089 51.5189C22.7079 51.6582 22.7069 51.7974 22.7059 51.9409C22.6382 52.4799 22.4502 52.7928 22.0252 53.1259C21.6323 53.2995 21.414 53.3371 20.9885 53.2676C20.6399 53.0487 20.3403 52.8064 20.1532 52.4323C20.1404 52.1749 20.1355 51.917 20.134 51.6593C20.1334 51.5799 20.1328 51.5005 20.1322 51.4187C20.1305 51.1551 20.1296 50.8915 20.129 50.6279C20.1283 50.4441 20.1276 50.2603 20.1269 50.0766C20.1257 49.6902 20.125 49.3039 20.1246 48.9176C20.1239 48.4257 20.1211 47.9339 20.1176 47.442C20.1154 47.0617 20.1148 46.6813 20.1146 46.301C20.1143 46.1199 20.1133 45.9388 20.1117 45.7577C20.0949 43.6836 20.5274 42.0826 21.9823 40.5567C23.0554 39.5605 24.5414 38.9501 26.0082 38.9235C26.1253 38.9212 26.2423 38.9188 26.3628 38.9163C26.5501 38.9133 26.5501 38.9133 26.7411 38.9103C26.87 38.9078 26.999 38.9053 27.1318 38.9028C27.5427 38.895 27.9537 38.8879 28.3646 38.8809C28.6436 38.8758 28.9226 38.8706 29.2016 38.8653C29.8847 38.8525 30.5678 38.8404 31.2509 38.8287C31.2023 38.7495 31.1538 38.6703 31.1037 38.5887C31.0077 38.4306 31.0077 38.4306 30.9097 38.2694C30.8464 38.1655 30.783 38.0617 30.7178 37.9547C29.7562 36.2754 29.5702 34.3932 30.0534 32.5275C30.6295 30.7494 31.7754 29.2516 33.4282 28.3566C34.5309 27.8288 35.4943 27.5662 36.7103 27.5744ZM33.5182 31.4303C32.6696 32.4771 32.1833 33.6522 32.3249 35.0102C32.635 36.4581 33.2652 37.4879 34.4728 38.3514C35.6153 38.9725 36.8013 39.1527 38.0751 38.8138C39.2814 38.3982 40.2286 37.5702 40.8346 36.4496C41.367 35.2677 41.4031 34.0558 40.9539 32.8324C40.4051 31.6116 39.5258 30.7556 38.2765 30.2444C36.5277 29.7474 34.8127 30.168 33.5182 31.4303ZM64.4247 41.454C64.4836 41.5849 64.5425 41.7158 64.6032 41.8507C64.6804 42.0242 64.7577 42.1978 64.8348 42.3713C64.8931 42.5004 64.8931 42.5004 64.9525 42.6321C64.9898 42.7163 65.0272 42.8006 65.0656 42.8873C65.1 42.9642 65.1343 43.0411 65.1697 43.1203C65.3641 43.6436 65.3959 44.152 65.4038 44.7068C65.4062 44.8549 65.4086 45.0029 65.411 45.1555C65.413 45.3159 65.415 45.4762 65.417 45.6366C65.4195 45.8016 65.422 45.9666 65.4246 46.1316C65.4311 46.5646 65.437 46.9976 65.4428 47.4305C65.4488 47.8729 65.4554 48.3152 65.462 48.7576C65.4748 49.6245 65.4869 50.4914 65.4986 51.3584C66.4043 51.3584 67.31 51.3584 68.2432 51.3584C68.254 50.461 68.2628 49.5637 68.2679 48.6663C68.2704 48.2495 68.2738 47.8327 68.2792 47.4159C68.2855 46.9355 68.2877 46.455 68.2898 45.9745C68.2923 45.8267 68.2948 45.6788 68.2973 45.5265C68.2976 44.2834 68.0414 43.3018 67.1772 42.3797C66.3553 41.6806 65.4806 41.4337 64.4247 41.454ZM48.0764 54.9383C47.4289 55.7975 47.0846 56.6697 47.1367 57.7546C47.2868 58.7646 47.8507 59.6428 48.6606 60.2628C49.7038 60.9469 50.8184 60.9719 52.0275 60.9589C52.2052 60.9588 52.3829 60.9589 52.5606 60.9592C53.0391 60.9593 53.5175 60.9565 53.996 60.9532C54.4975 60.9502 54.999 60.9499 55.5005 60.9493C56.4484 60.9478 57.3963 60.9439 58.3442 60.9391C59.4241 60.9338 60.504 60.9312 61.5839 60.9288C63.8037 60.9238 66.0234 60.9151 68.2432 60.9048C68.2432 58.5814 68.2432 56.258 68.2432 53.8643C65.8833 53.8535 63.5235 53.8447 61.1636 53.8396C60.0678 53.8371 58.972 53.8338 57.8762 53.8283C56.9207 53.8235 55.9653 53.8204 55.0099 53.8194C54.5043 53.8188 53.9987 53.8173 53.4931 53.8138C53.0165 53.8106 52.5399 53.8096 52.0633 53.8103C51.8891 53.8102 51.7149 53.8092 51.5407 53.8074C50.203 53.794 49.0415 53.9293 48.0764 54.9383ZM65.4986 63.4107C65.4969 63.6243 65.4951 63.838 65.4933 64.0581C65.4872 64.7687 65.4794 65.4793 65.4705 66.1899C65.4652 66.6202 65.4605 67.0505 65.4573 67.4808C65.4541 67.8971 65.4493 68.3134 65.4433 68.7296C65.4404 68.9635 65.4392 69.1974 65.438 69.4313C65.4187 70.6228 65.2188 71.6624 64.7006 72.7408C64.6485 72.8508 64.5963 72.9608 64.5426 73.0741C64.5037 73.1536 64.4647 73.2331 64.4247 73.3151C65.5547 73.2886 66.5934 72.9362 67.4079 72.1218C67.9578 71.3741 68.2743 70.6659 68.2703 69.7236C68.2703 69.5122 68.2703 69.5122 68.2702 69.2966C68.269 69.1463 68.2678 68.996 68.2665 68.8411C68.266 68.6082 68.266 68.6082 68.2655 68.3707C68.2646 67.9599 68.2622 67.5491 68.2596 67.1383C68.2571 66.7183 68.2561 66.2984 68.2549 65.8784C68.2523 65.0558 68.2481 64.2333 68.2432 63.4107C67.3375 63.4107 66.4318 63.4107 65.4986 63.4107Z" fill="url(#paint0_linear_109_719)"/>
<path d="M59.1072 19.1688C60.4044 20.5032 61.0631 22.2228 61.1358 24.0692C61.0787 26.1224 60.2852 27.8527 58.8164 29.2825C57.4235 30.5562 55.6227 31.1663 53.7397 31.1139C51.7195 30.9107 50.0245 30.096 48.6733 28.5665C47.4256 26.9279 46.9433 25.0437 47.1966 23.0027C47.4195 21.7814 47.9304 20.7235 48.6733 19.7361C48.7539 19.626 48.7539 19.626 48.836 19.5137C49.7899 18.3019 51.3408 17.49 52.8499 17.2301C52.977 17.2061 52.977 17.2061 53.1067 17.1817C55.3497 16.8532 57.4671 17.6574 59.1072 19.1688ZM51.1494 20.7205C50.1782 21.6917 49.7015 22.7789 49.621 24.1415C49.6432 25.3132 50.1347 26.4022 50.9271 27.2585C51.918 28.1735 53.0848 28.637 54.4357 28.6038C55.8467 28.4411 56.9003 27.7499 57.7974 26.6828C58.4367 25.7628 58.6727 24.6595 58.5777 23.5546C58.3282 22.2268 57.6513 21.1155 56.5491 20.3327C54.7761 19.1924 52.803 19.5758 51.1494 20.7205Z" fill="url(#paint1_linear_109_719)"/>
<path d="M42.1698 14.5137C42.7097 14.5297 42.9833 14.5447 43.4302 14.8731C43.8221 15.4294 43.7989 15.944 43.7999 16.6086C43.8005 16.7018 43.8011 16.795 43.8017 16.8911C43.8035 17.1988 43.8043 17.5066 43.8049 17.8144C43.8056 18.0287 43.8063 18.243 43.807 18.4573C43.8083 18.9065 43.809 19.3557 43.8094 19.8049C43.81 20.3797 43.8129 20.9546 43.8163 21.5294C43.8185 21.9721 43.8191 22.4147 43.8193 22.8574C43.8197 23.0693 43.8206 23.2812 43.8222 23.4931C43.8242 23.7899 43.824 24.0865 43.8232 24.3833C43.8243 24.4703 43.8254 24.5574 43.8266 24.6471C43.822 25.2057 43.7172 25.5858 43.4227 26.0602C43.0992 26.3225 42.887 26.4092 42.4755 26.4704C42.0131 26.4044 41.7576 26.2283 41.3941 25.9409C41.2043 25.5613 41.254 25.1506 41.2518 24.7335C41.2508 24.6334 41.2498 24.5332 41.2488 24.43C41.2458 24.0977 41.2439 23.7654 41.2422 23.4331C41.2415 23.3197 41.2409 23.2063 41.2402 23.0894C41.237 22.489 41.2347 21.8885 41.233 21.288C41.231 20.6679 41.2257 20.0479 41.2196 19.4278C41.2156 18.951 41.2142 18.4741 41.2135 17.9973C41.2127 17.7687 41.2109 17.5401 41.208 17.3116C41.2043 16.9914 41.2043 16.6713 41.2052 16.3511C41.2032 16.2569 41.2012 16.1628 41.1992 16.0658C41.2047 15.584 41.2538 15.2867 41.5588 14.9038C41.8714 14.6046 41.8714 14.6046 42.1698 14.5137Z" fill="url(#paint2_linear_109_719)"/>
<path d="M37.3368 14.6045C37.7284 14.9064 37.8968 15.091 38.0528 15.5591C38.0649 15.7439 38.0705 15.9291 38.072 16.1142C38.0732 16.2266 38.0743 16.3389 38.0755 16.4546C38.076 16.5758 38.0765 16.697 38.0771 16.8219C38.0777 16.9468 38.0784 17.0718 38.0791 17.2005C38.0802 17.465 38.081 17.7295 38.0815 17.994C38.0826 18.3979 38.0863 18.8016 38.0901 19.2055C38.0909 19.4625 38.0915 19.7196 38.092 19.9767C38.0934 20.0972 38.0949 20.2176 38.0964 20.3417C38.0944 20.9826 38.0689 21.4558 37.6948 22.003C37.2153 22.3227 36.8265 22.3247 36.2629 22.2416C35.9204 22.0275 35.7269 21.8857 35.5469 21.5256C35.5337 21.3302 35.5279 21.1343 35.5258 20.9384C35.5242 20.8161 35.5227 20.6938 35.5211 20.5678C35.5202 20.4352 35.5194 20.3026 35.5185 20.1659C35.5175 20.03 35.5165 19.894 35.5155 19.7539C35.5139 19.4657 35.5126 19.1775 35.5117 18.8893C35.5096 18.4485 35.5044 18.0078 35.4991 17.567C35.4979 17.2872 35.4969 17.0075 35.4961 16.7277C35.4929 16.5299 35.4929 16.5299 35.4897 16.328C35.4923 15.4115 35.4923 15.4115 35.7738 14.9417C36.2499 14.5275 36.7251 14.5084 37.3368 14.6045Z" fill="url(#paint3_linear_109_719)"/>
<path d="M50.8213 56.1316C51.2072 56.2359 51.2849 56.3503 51.5149 56.6835C51.704 57.2209 51.6714 57.4866 51.5373 58.0409C51.3367 58.3537 51.193 58.4781 50.8372 58.5853C50.4166 58.6615 50.1687 58.6643 49.7697 58.4958C49.3402 58.14 49.1681 57.9618 49.106 57.392C49.1533 56.9423 49.2349 56.7251 49.5087 56.3703C49.9536 56.0737 50.3068 56.0837 50.8213 56.1316Z" fill="url(#paint4_linear_109_719)"/>
<path d="M22.1595 56.2801C22.4399 56.5044 22.5292 56.6364 22.6592 56.9662C22.6858 57.4712 22.6223 57.9082 22.3534 58.3385C21.9473 58.5884 21.5834 58.6614 21.1079 58.6368C20.6702 58.452 20.376 58.2237 20.1532 57.8015C20.0859 57.282 20.1202 57.0278 20.3695 56.5635C20.8374 56.002 21.51 55.9914 22.1595 56.2801Z" fill="url(#paint5_linear_109_719)"/>
</g>
<defs>
<linearGradient id="paint0_linear_109_719" x1="20.1094" y1="51.669" x2="53.3101" y2="51.2672" gradientUnits="userSpaceOnUse">
<stop stop-color="#09B786"/>
<stop offset="1" stop-color="#1B91CD"/>
</linearGradient>
<linearGradient id="paint1_linear_109_719" x1="47.1313" y1="24.1129" x2="56.3025" y2="24.0075" gradientUnits="userSpaceOnUse">
<stop stop-color="#09B786"/>
<stop offset="1" stop-color="#1B91CD"/>
</linearGradient>
<linearGradient id="paint2_linear_109_719" x1="41.1992" y1="20.4921" x2="42.92" y2="20.4877" gradientUnits="userSpaceOnUse">
<stop stop-color="#09B786"/>
<stop offset="1" stop-color="#1B91CD"/>
</linearGradient>
<linearGradient id="paint3_linear_109_719" x1="35.4897" y1="18.4222" x2="37.197" y2="18.4156" gradientUnits="userSpaceOnUse">
<stop stop-color="#09B786"/>
<stop offset="1" stop-color="#1B91CD"/>
</linearGradient>
<linearGradient id="paint4_linear_109_719" x1="49.106" y1="57.3706" x2="50.7702" y2="57.3514" gradientUnits="userSpaceOnUse">
<stop stop-color="#09B786"/>
<stop offset="1" stop-color="#1B91CD"/>
</linearGradient>
<linearGradient id="paint5_linear_109_719" x1="20.123" y1="57.3673" x2="21.7875" y2="57.3482" gradientUnits="userSpaceOnUse">
<stop stop-color="#09B786"/>
<stop offset="1" stop-color="#1B91CD"/>
</linearGradient>
<clipPath id="clip0_109_719">
<rect width="61.097" height="61.097" fill="white" transform="translate(14.9028 14.6045)"/>
</clipPath>
</defs>
</svg>
