<svg width="65" height="65" viewBox="0 0 65 65" fill="none" xmlns="http://www.w3.org/2000/svg">
<g clip-path="url(#clip0_111_1508)">
<path d="M4.52472 8.64076C4.67124 8.6401 4.67124 8.6401 4.82072 8.63943C5.14775 8.63827 5.47476 8.63888 5.80179 8.63949C6.03874 8.63902 6.27569 8.63845 6.51264 8.63777C7.1636 8.63624 7.81456 8.63628 8.46552 8.63657C9.16765 8.63662 9.86978 8.63524 10.5719 8.63406C11.9475 8.63198 13.323 8.63129 14.6986 8.63115C15.8167 8.63104 16.9347 8.63052 18.0528 8.62973C20.7068 8.62789 23.3608 8.62635 26.0147 8.62648C26.0996 8.62648 26.1844 8.62649 26.2719 8.62649C26.702 8.62651 27.1321 8.62654 27.5622 8.62656C27.6476 8.62657 27.733 8.62657 27.821 8.62658C27.9937 8.62659 28.1665 8.6266 28.3392 8.62661C31.0263 8.62676 33.7135 8.62488 36.4006 8.62146C39.4203 8.61762 42.44 8.61548 45.4597 8.61571C47.0583 8.61579 48.6569 8.6151 50.2555 8.61241C51.6166 8.61014 52.9776 8.60959 54.3387 8.61129C55.033 8.61211 55.7273 8.61212 56.4217 8.60995C57.0577 8.60799 57.6936 8.60834 58.3296 8.61052C58.5593 8.61091 58.789 8.61045 59.0187 8.60906C60.4906 8.60072 61.8619 8.65769 63.0776 9.60456C63.7494 10.2697 64.2248 11.1039 64.3051 12.0535C64.3055 12.189 64.3059 12.3244 64.3063 12.464C64.3074 12.6204 64.3085 12.7769 64.3096 12.9381C64.3095 13.1099 64.3093 13.2817 64.3092 13.4535C64.31 13.6357 64.3108 13.8179 64.3118 14.0001C64.314 14.4939 64.3146 14.9878 64.3147 15.4816C64.3149 15.7908 64.3154 16.1 64.3161 16.4092C64.3184 17.4898 64.3194 18.5705 64.3192 19.6511C64.3191 20.6551 64.3217 21.6591 64.3257 22.6631C64.3289 23.5274 64.3303 24.3918 64.3301 25.2562C64.33 25.7713 64.3307 26.2865 64.3334 26.8016C64.3358 27.287 64.3358 27.7724 64.334 28.2578C64.3338 28.4347 64.3343 28.6116 64.3359 28.7885C64.3527 30.8796 63.7465 32.7497 62.2968 34.2901C60.6133 35.8746 58.7622 36.3504 56.5229 36.2979C56.559 36.4036 56.5951 36.5093 56.6323 36.6182C57.1412 38.1734 57.1412 38.1734 57.0229 38.9229C56.8182 39.2918 56.5828 39.6062 56.1722 39.7543C55.8332 39.8082 55.5085 39.8145 55.1651 39.8155C55.0152 39.8162 54.8654 39.8169 54.711 39.8176C54.5471 39.8178 54.3831 39.8179 54.2142 39.8181C54.0394 39.8186 53.8646 39.8193 53.6899 39.8199C53.2154 39.8216 52.741 39.8224 52.2665 39.8229C51.9699 39.8233 51.6734 39.8238 51.3768 39.8244C50.4483 39.8261 49.5199 39.8273 48.5914 39.8278C47.5206 39.8283 46.4498 39.8305 45.3789 39.8342C44.5506 39.8369 43.7222 39.8381 42.8939 39.8383C42.3994 39.8384 41.905 39.8392 41.4105 39.8414C40.9452 39.8435 40.4799 39.8437 40.0146 39.8426C39.7633 39.8425 39.5119 39.8442 39.2606 39.846C38.4677 39.8423 37.8362 39.8384 37.1479 39.4229C36.813 38.9206 36.8109 38.5134 36.8979 37.9229C37.1221 37.5641 37.2707 37.3615 37.6479 37.1729C37.8633 37.1613 38.0792 37.1577 38.2949 37.1579C38.4319 37.1577 38.569 37.1575 38.7103 37.1574C38.8613 37.1578 39.0124 37.1583 39.168 37.1587C39.3265 37.1587 39.485 37.1587 39.6484 37.1587C40.0838 37.1586 40.5192 37.1594 40.9546 37.1602C41.4094 37.161 41.8641 37.1611 42.3189 37.1613C43.1804 37.1616 44.0419 37.1627 44.9034 37.1639C45.884 37.1653 46.8647 37.166 47.8453 37.1666C49.8628 37.1679 51.8804 37.1701 53.8979 37.1729C53.8633 37.0203 53.8286 36.8677 53.7929 36.7105C53.7471 36.5027 53.7014 36.2948 53.6557 36.087C53.6329 35.9873 53.6101 35.8877 53.5866 35.785C53.3936 34.8971 53.3445 34.1034 53.2729 33.1729C39.4129 33.1729 25.5529 33.1729 11.2729 33.1729C11.211 33.9773 11.211 33.9773 11.1479 34.7979C11.07 35.2327 10.9883 35.6575 10.8901 36.087C10.8668 36.1929 10.8435 36.2989 10.8195 36.408C10.7633 36.6632 10.7057 36.9181 10.6479 37.1729C10.7794 37.1721 10.7794 37.1721 10.9136 37.1712C13.0471 37.1574 15.1805 37.147 17.314 37.1405C18.3457 37.1373 19.3774 37.1329 20.4092 37.1258C21.3084 37.1195 22.2076 37.1155 23.1069 37.1141C23.5831 37.1133 24.0592 37.1114 24.5353 37.1068C24.9836 37.1026 25.4318 37.1013 25.8801 37.1022C26.1229 37.102 26.3656 37.0986 26.6084 37.0952C27.7956 37.1022 27.7956 37.1022 28.1803 37.463C28.4563 37.8878 28.5229 38.1662 28.5229 38.6729C28.3718 39.1638 28.248 39.3624 27.8072 39.629C27.0673 39.9226 26.2567 39.849 25.4738 39.8445C25.2912 39.8448 25.1085 39.8452 24.9259 39.8458C24.4319 39.847 23.9379 39.8458 23.4438 39.8442C22.9261 39.8428 22.4084 39.8433 21.8907 39.8435C21.0217 39.8436 20.1527 39.8422 19.2838 39.8399C18.2795 39.8373 17.2753 39.8369 16.2711 39.8376C15.3041 39.8384 14.337 39.8376 13.37 39.8362C12.9588 39.8357 12.5477 39.8356 12.1365 39.8358C11.6524 39.8361 11.1684 39.835 10.6843 39.8331C10.5068 39.8325 10.3293 39.8324 10.1517 39.8328C9.90924 39.8332 9.66674 39.8319 9.42424 39.8305C9.28861 39.8303 9.15298 39.83 9.01323 39.8297C8.47235 39.7826 8.13318 39.6493 7.73383 39.2823C7.45553 38.8082 7.43595 38.4513 7.5229 37.9229C7.66897 37.3739 7.83934 36.8355 8.0229 36.2979C7.9064 36.3037 7.7899 36.3095 7.66987 36.3155C5.61318 36.3737 3.79948 35.7511 2.28071 34.3218C0.718178 32.6617 0.234763 30.8262 0.236581 28.608C0.235832 28.4252 0.234981 28.2423 0.234037 28.0595C0.231838 27.5652 0.231243 27.0709 0.231083 26.5765C0.230905 26.2671 0.23037 25.9577 0.229709 25.6483C0.227399 24.5673 0.226374 23.4863 0.226572 22.4053C0.226722 21.4001 0.224083 20.395 0.220136 19.3899C0.21686 18.5247 0.215526 17.6594 0.215685 16.7942C0.215749 16.2785 0.215048 15.7627 0.212391 15.2469C0.209958 14.7616 0.209959 14.2764 0.21177 13.791C0.21203 13.6138 0.21145 13.4365 0.20993 13.2593C0.199922 12.0105 0.350391 11.0691 1.03852 10.0167C2.03641 9.06216 3.14684 8.63285 4.52472 8.64076ZM3.05415 11.9151C2.59889 12.6663 2.7729 13.3976 2.7729 14.2979C22.2429 14.2979 41.7129 14.2979 61.7729 14.2979C61.846 12.7754 61.846 12.7754 61.2104 11.5635C60.7598 11.2256 60.2519 11.2802 59.7172 11.2815C59.5731 11.2811 59.5731 11.2811 59.4261 11.2807C59.1016 11.28 58.7771 11.2802 58.4526 11.2804C58.2186 11.28 57.9846 11.2797 57.7507 11.2792C57.1057 11.2782 56.4607 11.278 55.8157 11.2779C55.1209 11.2777 54.4261 11.2767 53.7313 11.2759C52.2112 11.2742 50.6911 11.2734 49.171 11.2729C48.2224 11.2725 47.2739 11.272 46.3253 11.2715C43.7008 11.2699 41.0762 11.2686 38.4516 11.2682C38.2819 11.2682 38.1121 11.2682 37.9424 11.2681C37.7722 11.2681 37.6021 11.2681 37.4319 11.2681C37.0905 11.268 36.7491 11.2679 36.4077 11.2679C36.3231 11.2679 36.2384 11.2679 36.1512 11.2678C33.4056 11.2674 30.66 11.2654 27.9144 11.2625C25.0126 11.2594 22.1109 11.2577 19.2091 11.2576C17.6268 11.2574 16.0446 11.2567 14.4624 11.2544C13.1154 11.2525 11.7684 11.2519 10.4214 11.2529C9.73372 11.2534 9.04607 11.2533 8.35841 11.2515C7.72939 11.25 7.1004 11.2501 6.47139 11.2516C6.24334 11.2519 6.0153 11.2515 5.78726 11.2504C5.47815 11.249 5.16914 11.2499 4.86004 11.2514C4.77074 11.2505 4.68145 11.2495 4.58944 11.2485C3.91794 11.2557 3.50427 11.4168 3.05415 11.9151ZM2.7729 16.9229C2.7729 24.3604 2.28223 30.302 3.45996 32.1861C4.40723 33.3424 5.92548 33.6829 7.35929 33.6974C7.78917 33.6959 8.21823 33.6862 8.6479 33.6729C8.65285 33.6036 8.65781 33.5343 8.66291 33.4628C8.6868 33.1472 8.71419 32.832 8.74165 32.5167C8.75325 32.353 8.75325 32.353 8.76508 32.1861C8.83947 31.3741 8.83947 31.3741 9.14204 30.9796C9.58286 30.6666 9.84454 30.6571 10.3836 30.6565C10.5413 30.656 10.6991 30.6555 10.8616 30.655C11.0383 30.6551 11.2149 30.6552 11.3916 30.6554C11.578 30.655 11.7645 30.6547 11.9509 30.6542C12.465 30.6532 12.9792 30.653 13.4933 30.6529C14.0471 30.6527 14.6009 30.6517 15.1547 30.6509C16.3664 30.6492 17.5782 30.6484 18.79 30.6479C19.5461 30.6476 20.3023 30.647 21.0585 30.6465C23.1509 30.6449 25.2433 30.6436 27.3356 30.6432C27.4696 30.6432 27.6036 30.6432 27.7417 30.6431C27.876 30.6431 28.0103 30.6431 28.1487 30.6431C28.4209 30.643 28.6931 30.6429 28.9653 30.6429C29.1678 30.6429 29.1678 30.6429 29.3745 30.6428C31.5629 30.6423 33.7514 30.6401 35.9399 30.6372C38.1851 30.6343 40.4303 30.6327 42.6755 30.6326C43.9368 30.6324 45.1981 30.6317 46.4593 30.6295C47.5332 30.6275 48.6071 30.6269 49.681 30.6279C50.2292 30.6284 50.7774 30.6283 51.3255 30.6265C51.8271 30.625 52.3286 30.6251 52.8302 30.6266C53.0119 30.6269 53.1936 30.6265 53.3753 30.6254C53.6219 30.624 53.8684 30.6251 54.115 30.6264C54.2521 30.6264 54.3892 30.6263 54.5304 30.6262C54.9494 30.6795 55.1856 30.7974 55.5229 31.0479C55.6342 31.3096 55.6342 31.3096 55.6791 31.6104C55.6962 31.7197 55.7133 31.8289 55.7309 31.9415C55.7988 32.5178 55.8561 33.0941 55.8979 33.6729C57.4931 33.7402 58.8673 33.7083 60.1669 32.6514C61.2373 31.5924 61.6085 30.5271 61.7729 29.0479C61.7729 25.0467 61.7729 21.0454 61.7729 16.9229C42.3029 16.9229 22.8329 16.9229 2.7729 16.9229Z" fill="#0B63E5"/>
<path d="M17.2082 42.2512C17.6338 42.6237 17.8063 42.8586 17.9113 43.4153C17.8363 43.8579 17.7507 44.0388 17.5207 44.4075C17.1355 45.0553 17.0524 45.6367 17.2082 46.3762C17.4114 46.7544 17.6753 47.0554 17.9582 47.3762C18.705 48.3575 19.1224 49.6377 18.9582 50.8762C18.7652 52.0453 18.3707 52.91 17.5739 53.7864C17.2379 54.2607 17.1564 54.7613 17.0524 55.3213C16.9453 55.8012 16.8492 55.988 16.465 56.3054C16.0291 56.529 15.8153 56.5816 15.3332 56.5012C14.6358 56.1065 14.6358 56.1065 14.4582 55.7512C14.2966 54.0759 14.7111 52.9027 15.7682 51.6199C16.1403 51.1426 16.235 50.7168 16.1925 50.1262C16.1082 49.6138 15.8976 49.2927 15.5832 48.8762C15.4539 48.6951 15.3264 48.5128 15.2003 48.3294C15.1396 48.2433 15.0789 48.1573 15.0163 48.0686C14.5584 47.2749 14.3911 46.5546 14.4035 45.6419C14.4045 45.5432 14.4055 45.4445 14.4066 45.3429C14.4416 44.1325 14.8132 43.3343 15.6227 42.4383C16.0871 42.0256 16.6457 42.0751 17.2082 42.2512Z" fill="#0B63E5"/>
<path d="M39.2023 42.4936C39.567 43.0352 39.5741 43.4912 39.4601 44.1265C39.2179 44.5561 39.2179 44.5561 38.9601 44.8765C38.771 45.4436 38.7593 45.9215 38.9679 46.4858C39.175 46.8199 39.3902 47.0984 39.6398 47.3999C40.5855 48.6061 40.7319 49.8904 40.5851 51.3765C40.4015 52.2179 40.0523 52.8497 39.5167 53.5151C39.0857 54.0759 38.8414 54.6532 38.7101 55.3452C38.6382 55.6982 38.5822 55.8809 38.3819 56.189C37.9612 56.4547 37.5807 56.5261 37.0851 56.5015C36.6917 56.3441 36.5066 56.181 36.2335 55.8608C35.9014 55.0567 36.0642 54.2435 36.3287 53.4375C36.6119 52.767 37.0456 52.2059 37.4991 51.6421C37.8796 51.163 37.8923 50.6769 37.8863 50.0864C37.7955 49.4929 37.4392 49.0952 37.0851 48.6265C36.2633 47.39 35.9368 46.3745 36.0851 44.8765C36.2922 43.9256 36.638 43.0717 37.3351 42.3765C37.9678 41.9709 38.5928 42.0917 39.2023 42.4936Z" fill="#0B63E5"/>
<path d="M27.9617 42.2509C28.4005 42.5752 28.559 42.7806 28.7117 43.3056C28.7117 43.8234 28.5955 44.0573 28.3367 44.5009C27.986 45.1773 27.8686 45.6498 28.0867 46.3759C28.2949 46.7561 28.2949 46.7561 28.5867 47.1259C28.716 47.307 28.8435 47.4894 28.9695 47.6728C29.0303 47.7588 29.091 47.8449 29.1536 47.9335C29.6115 48.7273 29.7787 49.4475 29.7664 50.3603C29.7654 50.459 29.7645 50.5576 29.7635 50.6593C29.7275 51.9393 29.2518 52.7717 28.4617 53.7509C28.1329 54.1854 28.0552 54.5335 27.9773 55.0634C27.8739 55.7138 27.7361 55.9826 27.2117 56.3759C26.7746 56.5945 26.2985 56.4983 25.8367 56.3759C25.5465 56.093 25.3907 55.8589 25.2117 55.5009C25.1994 53.7789 25.7692 52.7591 26.8211 51.4618C27.077 50.8504 27.0941 50.1317 26.8753 49.5024C26.7032 49.1891 26.494 48.9173 26.2747 48.6357C25.3893 47.4964 25.0653 46.301 25.2459 44.8515C25.4357 43.8235 25.9059 42.9295 26.7117 42.2509C27.1924 42.0907 27.4701 42.1323 27.9617 42.2509Z" fill="#0B63E5"/>
<path d="M49.7087 42.2511C50.1645 42.623 50.3188 42.8594 50.3806 43.4464C50.379 43.9052 50.2618 44.1684 50.0212 44.5558C49.6773 45.1304 49.546 45.5898 49.7087 46.2511C49.9188 46.6581 50.1825 47.0119 50.4587 47.3761C51.3221 48.6207 51.6061 49.7236 51.4587 51.2511C51.2666 52.2028 50.9044 52.8935 50.2849 53.6334C49.8616 54.144 49.7021 54.6252 49.5915 55.2667C49.5204 55.6422 49.4644 55.8669 49.2634 56.1964C48.8043 56.4672 48.3634 56.5257 47.8337 56.5011C47.4602 56.3501 47.281 56.2435 47.0706 55.9015C46.7082 55.009 46.9712 54.0348 47.3166 53.1803C47.4958 52.7967 47.7047 52.4648 47.9587 52.1261C48.0713 51.9729 48.1832 51.8192 48.2947 51.6652C48.3467 51.5951 48.3988 51.525 48.4524 51.4528C48.7626 50.9766 48.7896 50.4256 48.7087 49.8761C48.4802 49.3464 48.1902 48.9208 47.8337 48.4699C46.9826 47.3074 46.8154 46.18 46.9587 44.7511C47.182 43.7633 47.6356 42.7435 48.5134 42.1808C48.9513 42.106 49.2783 42.1415 49.7087 42.2511Z" fill="#0B63E5"/>
<path d="M27.8239 24.6986C27.9362 24.6976 28.0484 24.6965 28.1641 24.6954C28.5352 24.6925 28.9062 24.6924 29.2773 24.6925C29.5355 24.6916 29.7936 24.6907 30.0517 24.6896C30.5929 24.688 31.134 24.6878 31.6752 24.6885C32.3682 24.6892 33.0611 24.6854 33.7541 24.6804C34.2873 24.6771 34.8204 24.6768 35.3536 24.6772C35.6091 24.677 35.8645 24.6758 36.12 24.6736C36.4776 24.6708 36.835 24.672 37.1926 24.6742C37.3504 24.6717 37.3504 24.6717 37.5114 24.6692C38.0331 24.6766 38.3628 24.7193 38.7763 25.0523C39.1503 25.4422 39.2062 25.6188 39.2334 26.1354C39.1914 26.6065 38.9599 26.8739 38.6423 27.2024C38.1871 27.4613 37.7349 27.4304 37.2249 27.4286C37.1127 27.4297 37.0004 27.4307 36.8848 27.4318C36.5136 27.4347 36.1426 27.4349 35.7715 27.4347C35.5134 27.4356 35.2552 27.4366 34.9971 27.4376C34.456 27.4393 33.9148 27.4395 33.3737 27.4387C32.6806 27.438 31.9877 27.4418 31.2947 27.4469C30.7616 27.4501 30.2284 27.4505 29.6952 27.45C29.4398 27.4502 29.1843 27.4514 28.9288 27.4537C28.5712 27.4564 28.2139 27.4552 27.8563 27.453C27.751 27.4547 27.6458 27.4563 27.5374 27.458C27.0157 27.4506 26.686 27.4079 26.2725 27.0749C25.8985 26.685 25.8427 26.5085 25.8154 25.9918C25.8575 25.5208 26.0889 25.2533 26.4066 24.9248C26.8617 24.6659 27.314 24.6969 27.8239 24.6986Z" fill="#0B63E5"/>
<path d="M57.708 18.7499C58.0801 18.9715 58.3865 19.232 58.583 19.6249C58.6299 20.2463 58.6029 20.6314 58.208 21.1249C57.7803 21.4457 57.3522 21.4205 56.833 21.3749C56.4802 21.2181 56.2752 21.0895 56.044 20.7812C55.917 20.3657 55.9058 20.0578 55.958 19.6249C56.4083 18.875 56.8436 18.6635 57.708 18.7499Z" fill="#0B63E5"/>
<path d="M53.5864 18.8753C53.9229 19.0857 54.0429 19.23 54.1562 19.6087C54.2368 20.0492 54.2394 20.309 54.0629 20.7269C53.6902 21.1768 53.5035 21.3571 52.9067 21.4222C52.4333 21.3724 52.2055 21.2956 51.8364 21.0003C51.5156 20.5726 51.5408 20.1445 51.5864 19.6253C52.0027 18.6886 52.6715 18.6483 53.5864 18.8753Z" fill="#0B63E5"/>
<path d="M33.3354 37.0001C33.7943 37.3156 33.9303 37.5214 34.0854 38.0548C34.0854 38.5813 34.0202 38.8242 33.7104 39.2501C33.2126 39.5565 32.9552 39.6434 32.3745 39.5548C31.7118 39.2672 31.7118 39.2672 31.4604 38.8751C31.3545 38.2922 31.3784 37.8814 31.6948 37.3751C32.1866 36.9122 32.6838 36.9022 33.3354 37.0001Z" fill="#0B63E5"/>
</g>
<defs>
<clipPath id="clip0_111_1508">
<rect width="64" height="64" fill="white" transform="translate(0.333496 0.5)"/>
</clipPath>
</defs>
</svg>
