<svg width="90" height="90" viewBox="0 0 90 90" fill="none" xmlns="http://www.w3.org/2000/svg">
<path d="M32.5795 16.656C33.0225 17.0262 33.2251 17.3183 33.2873 17.9004C33.2873 18.4251 33.2656 18.9454 33.2384 19.4694C33.2267 19.8678 33.2155 20.2663 33.2046 20.6647C33.1842 21.2899 33.1607 21.9145 33.1297 22.5392C32.9014 25.2378 32.9014 25.2378 33.9622 27.6006C34.3643 28.003 34.7754 28.3486 35.2359 28.6821C35.6766 28.2404 36.116 27.7983 36.5433 27.3433C39.6024 24.1378 39.6024 24.1378 41.2128 24.0053C41.7916 24.2761 42.0169 24.467 42.375 25.0075C42.3976 25.5987 42.36 26.0013 41.9651 26.4598C41.614 26.771 41.2524 27.0599 40.8807 27.3459C39.5794 28.3571 38.5525 29.3678 37.5602 30.6865C37.7827 31.1887 38.0248 31.5212 38.4215 31.8974C38.831 32.2967 39.2148 32.7023 39.5837 33.1397C40.0998 33.7434 40.6502 34.3031 41.2128 34.8622C41.8565 35.5019 42.4683 36.1518 43.0546 36.8457C43.4745 37.3165 43.9201 37.7584 44.3673 38.2028C45.011 38.8425 45.6228 39.4924 46.2091 40.1863C46.629 40.6571 47.0746 41.099 47.5218 41.5434C48.1655 42.1831 48.7773 42.833 49.3636 43.5269C49.7834 43.9977 50.229 44.4396 50.6762 44.884C51.2112 45.4156 51.7372 45.9441 52.2224 46.523C52.8038 47.2119 53.442 47.8397 54.0798 48.4751C54.8045 49.1972 55.5086 49.9194 56.1661 50.7046C56.736 51.3428 57.3514 51.9368 57.9575 52.5401C58.6631 53.2454 59.3398 53.9667 59.9737 54.7387C63.8127 52.3598 66.1629 48.6809 67.2365 44.3318C68.2517 40.0231 67.4001 35.4941 65.1425 31.7245C64.5842 30.8779 63.9697 30.1047 63.2942 29.3502C63.1784 29.22 63.0626 29.0897 62.9433 28.9555C60.3239 26.166 56.3411 24.2105 52.5253 23.9761C52.0469 23.9667 51.5698 23.9678 51.0913 23.974C50.9327 23.9741 50.7741 23.9742 50.6107 23.9743C49.6448 23.9802 48.6984 24.0404 47.7388 24.1522C47.3557 24.1723 47.3557 24.1723 46.8369 24.0157C46.4417 23.5783 46.3506 23.2544 46.3207 22.6691C46.3596 22.335 46.3596 22.335 46.6294 21.8548C48.862 20.4405 52.7949 21.0563 55.2669 21.5754C60.3066 22.7576 64.7398 25.8431 67.5344 30.2386C70.2498 34.6851 71.1844 40.0826 70.0247 45.189C69.2722 48.2419 67.9491 50.9779 65.9506 53.4025C65.8331 53.5461 65.7156 53.6897 65.5946 53.8377C64.7689 54.8031 63.8615 55.6066 62.8798 56.4038C62.4664 56.7292 62.4664 56.7292 62.132 57.0772C62.2121 57.1557 62.2921 57.2343 62.3746 57.3153C62.5319 57.4713 62.5319 57.4713 62.6923 57.6304C62.7964 57.7331 62.9004 57.8359 63.0075 57.9417C63.2942 58.2464 63.2942 58.2464 63.6262 58.7475C65.4432 59.1806 67.5917 58.9635 69.4565 58.9815C69.8976 58.9861 70.3386 58.9938 70.7796 59.0019C70.9135 59.0025 71.0474 59.003 71.1853 59.0036C71.9922 59.0212 72.5562 59.1345 73.2557 59.5826C73.5159 60.1061 73.5631 60.6903 73.4217 61.2529C73.0031 61.6909 72.7319 61.8994 72.1305 61.9921C71.9574 61.9859 71.7842 61.9796 71.6058 61.9732C71.305 61.9645 71.305 61.9645 70.9982 61.9556C70.7545 61.9443 70.5109 61.9327 70.2673 61.921C69.9458 61.9077 69.6244 61.8944 69.3029 61.8812C68.4066 61.8431 67.5106 61.8 66.6147 61.754C67.3079 62.5683 68.0179 63.3468 68.7834 64.0924C70.6658 65.9667 70.6658 65.9667 70.8795 66.9632C70.7208 67.6164 70.4692 67.8711 69.9352 68.2681C69.4683 68.3934 69.4683 68.3934 68.9391 68.2681C67.9233 67.5193 67.0718 66.5534 66.2204 65.627C65.9874 65.3753 65.7543 65.1237 65.5213 64.8721C65.4202 64.7623 65.3191 64.6526 65.2149 64.5395C65.0212 64.3312 64.8229 64.1271 64.6224 63.9254C64.4376 64.5276 64.4305 65.0976 64.4213 65.7255C64.4166 65.9457 64.4119 66.1658 64.4071 66.3926C64.4002 66.7408 64.3941 67.089 64.3897 67.4372C64.3851 67.7749 64.3773 68.1125 64.3695 68.4502C64.3662 68.6515 64.3629 68.8528 64.3595 69.0602C64.2786 69.6965 64.0808 70.1493 63.6262 70.6066C62.4422 70.6847 62.4422 70.6847 61.8933 70.3873C61.5533 70.0178 61.4676 69.7233 61.4688 69.2227C61.4835 68.9982 61.4835 68.9982 61.4986 68.7693C61.5089 68.5991 61.5192 68.4289 61.5298 68.2536C61.541 68.0693 61.5523 67.8851 61.5639 67.6953C61.5922 67.0981 61.6185 66.5009 61.6449 65.9036C61.6651 65.4923 61.689 65.0812 61.7167 64.6703C61.978 62.2246 61.978 62.2246 61.1713 60.0089C60.6605 59.4515 60.0859 59.0222 59.4756 58.5804C59.1161 58.1972 59.1161 58.1972 58.8634 57.881C58.2979 57.2105 57.6778 56.6021 57.0559 55.9849C56.694 55.6156 56.3547 55.2375 56.0202 54.8431C55.4132 54.1224 55.4132 54.1224 54.6609 53.5695C53.3273 53.5953 52.1425 54.167 50.9253 54.6657C50.7074 54.7536 50.4895 54.8413 50.2716 54.9289C49.7417 55.1423 49.2126 55.3575 48.6839 55.5739C48.4488 57.3023 48.3548 59.0378 48.2794 60.7799C48.2587 61.1972 48.2325 61.6144 48.2008 62.031C47.9482 64.6502 47.9482 64.6502 48.9474 66.9757C49.5234 67.5927 50.1527 68.1206 50.8175 68.6374C51.296 69.0382 51.687 69.4916 52.0847 69.9719C52.5392 70.5144 53.0507 70.998 53.5558 71.4926C54.0879 72.019 54.3141 72.2443 54.3703 73.0076C54.3288 73.6131 54.3288 73.6131 54.1524 74.0098C53.6632 74.4225 53.3005 74.4482 52.6686 74.4482C51.8694 73.9958 51.3054 73.4288 50.7074 72.7466C49.8977 71.8337 49.0512 70.9651 48.1859 70.1055C48.1826 70.2435 48.1793 70.3814 48.1759 70.5236C48.1628 71.0435 48.1484 71.5634 48.1332 72.0832C48.1238 72.4157 48.1159 72.7482 48.108 73.0807C48.0284 75.7243 48.0284 75.7243 47.6878 76.6196C47.0651 77.0372 46.7649 77.0432 46.0275 76.9537C45.5846 76.6246 45.2532 76.3628 45.1256 75.8043C45.1014 75.4284 45.104 75.0615 45.1163 74.6851C45.1181 74.4811 45.1181 74.4811 45.1199 74.273C45.1245 73.8406 45.1349 73.4086 45.1455 72.9763C45.1497 72.6824 45.1535 72.3884 45.1569 72.0945C45.166 71.3757 45.1803 70.6571 45.1974 69.9384C45.1289 70.0082 45.0604 70.078 44.9899 70.1499C42.6118 72.5687 42.6118 72.5687 41.6142 73.4128C41.3554 73.6274 41.3554 73.6274 41.0468 73.9471C40.4594 74.1179 40.1612 74.1622 39.594 73.9158C39.1978 73.5947 39.0276 73.435 38.8884 72.945C38.8758 72.1736 39.1338 71.8028 39.6414 71.2649C39.8898 71.0189 40.1405 70.7752 40.393 70.5335C40.5158 70.4124 40.6385 70.2913 40.765 70.1665C41.4552 69.4903 42.1662 68.8455 42.8949 68.2119C43.4674 67.6991 43.9941 67.141 44.5249 66.5851C44.7432 66.3607 44.9696 66.1444 45.1974 65.9297C45.307 65.9297 45.4166 65.9297 45.5295 65.9297C45.5487 64.6593 45.5634 63.3889 45.5725 62.1183C45.5768 61.5283 45.5827 60.9383 45.5921 60.3484C45.6028 59.6697 45.6069 58.9911 45.6105 58.3123C45.6148 58.101 45.6191 57.8898 45.6235 57.6721C45.6406 56.5435 45.6406 56.5435 45.1761 55.5501C44.6709 55.2213 44.1841 54.9579 43.6305 54.7198C43.5305 54.6765 43.4305 54.6332 43.3274 54.5886C43.1174 54.4982 42.907 54.4089 42.6962 54.3205C42.3747 54.1854 42.0551 54.0465 41.7355 53.9072C40.5253 53.343 40.5253 53.343 39.2205 53.2355C38.8505 53.4685 38.8505 53.4685 38.5045 53.8201C38.3617 53.9557 38.219 54.0914 38.0719 54.2311C37.3343 54.958 36.6045 55.6931 35.881 56.4342C35.3501 56.9754 34.8138 57.4981 34.241 57.9945C34.0875 58.1306 34.0875 58.1306 33.931 58.2695C33.7008 58.4709 33.4661 58.6672 33.2264 58.857C32.5116 59.475 32.1645 59.9244 32.0767 60.8831C32.0675 61.2522 32.0651 61.6216 32.0684 61.9908C32.0645 62.1872 32.0606 62.3835 32.0565 62.5858C32.0449 63.2099 32.0418 63.8336 32.0399 64.4578C32.0344 65.0837 32.0271 65.7094 32.0161 66.3352C32.0096 66.7236 32.0065 67.1122 32.0072 67.5007C31.99 68.8099 31.99 68.8099 31.5984 69.4727C31.2233 69.7955 31.0741 69.8816 30.5872 69.8654C30.4776 69.8656 30.368 69.8658 30.2551 69.866C29.7546 69.7234 29.5747 69.5206 29.2589 69.1033C29.201 68.609 29.1813 68.1789 29.1941 67.6861C29.195 67.5499 29.196 67.4137 29.1969 67.2733C29.2006 66.8393 29.209 66.4055 29.2174 65.9715C29.2208 65.6768 29.2238 65.3821 29.2265 65.0874C29.2338 64.3659 29.2453 63.6446 29.2589 62.9232C28.3173 63.7328 27.4348 64.5776 26.5769 65.4756C25.9658 66.1032 25.3507 66.6291 24.6102 67.0989C24.0162 67.0989 23.6461 67.0515 23.1368 66.744C22.8205 66.2137 22.7636 65.8845 22.7839 65.2616C23.0861 64.7381 23.5182 64.3464 23.9461 63.9254C24.1352 63.7319 24.3239 63.5381 24.5123 63.344C26.2309 61.5858 26.2309 61.5858 27.1006 60.9188C26.6072 60.6707 26.1531 60.7241 25.6031 60.7166C25.3659 60.7119 25.1286 60.7071 24.8914 60.7022C24.5176 60.6953 24.1438 60.6892 23.77 60.6848C23.409 60.6801 23.0482 60.6725 22.6873 60.6644C22.4712 60.6611 22.2551 60.6578 22.0324 60.6543C21.4266 60.5813 21.1077 60.4523 20.6256 60.0837C20.369 59.5673 20.4108 59.1493 20.4596 58.5804C20.7696 58.1854 21.0109 57.969 21.4557 57.7453C21.7304 57.7369 22.0054 57.7395 22.2801 57.7475C22.452 57.7518 22.6238 57.7562 22.8009 57.7606C22.9875 57.7657 23.1741 57.7707 23.3663 57.7759C23.7602 57.7829 24.1541 57.7896 24.548 57.7958C25.17 57.8061 25.7918 57.8183 26.4136 57.8369C27.0132 57.8542 27.6124 57.8628 28.2122 57.8699C28.4891 57.881 28.4891 57.881 28.7715 57.8924C29.7757 57.8969 29.7757 57.8969 30.6552 57.4584C30.9882 57.1232 31.2838 56.7744 31.5833 56.409C31.787 56.2238 31.9941 56.0421 32.2059 55.8662C32.8962 55.2702 33.5291 54.6238 34.1673 53.9728C34.6395 53.4937 35.1184 53.0356 35.6302 52.5987C35.8315 52.4221 36.0322 52.2446 36.232 52.0663C36.3874 51.929 36.3874 51.929 36.5459 51.789C36.8359 51.5005 37.0357 51.2584 37.2282 50.8971C37.0503 49.6136 36.5637 48.4408 36.0867 47.2433C35.9786 46.961 35.9786 46.961 35.8682 46.673C35.7969 46.493 35.7257 46.313 35.6522 46.1276C35.5883 45.9648 35.5243 45.8021 35.4584 45.6344C35.2088 45.1673 35.0341 44.9688 34.5718 44.717C34.1217 44.633 34.1217 44.633 33.623 44.6315C33.4324 44.6255 33.2419 44.6194 33.0456 44.6132C32.8404 44.6095 32.6352 44.6059 32.4238 44.6021C32.2121 44.5975 32.0004 44.5929 31.7823 44.5881C31.4489 44.5814 31.1155 44.5747 30.782 44.5695C30.1027 44.5588 29.4248 44.538 28.7461 44.5078C28.2082 44.4851 27.6699 44.4714 27.1317 44.456C26.9322 44.4454 26.7326 44.4348 26.527 44.4239C25.4687 44.397 25.4687 44.397 24.5333 44.835C24.2002 45.1699 23.9095 45.5179 23.6141 45.8862C23.4105 46.0717 23.2035 46.2534 22.9915 46.429C22.3946 46.9444 21.8421 47.495 21.2897 48.0576C18.8904 50.4982 18.8904 50.4982 17.99 50.6361C17.4711 50.563 17.4711 50.563 16.9938 50.2081C16.641 49.7279 16.641 49.7279 16.5165 49.2581C16.7089 48.4352 17.2217 47.9787 17.8032 47.3894C17.923 47.2646 18.0429 47.1397 18.1664 47.011C18.868 46.2905 19.593 45.6077 20.3552 44.9525C20.5635 44.771 20.7628 44.579 20.9577 44.3829C20.767 44.3766 20.767 44.3766 20.5725 44.3702C19.9884 44.3507 19.4042 44.3303 18.8201 44.3098C18.6202 44.3033 18.4203 44.2967 18.2144 44.2899C17.3223 44.2582 16.4301 44.2234 15.5398 44.1578C15.4146 44.149 15.2893 44.1401 15.1603 44.131C14.723 44.027 14.4801 43.852 14.1506 43.5478C13.9557 42.9464 13.9302 42.666 14.1921 42.0862C14.4827 41.7104 14.4827 41.7104 14.9807 41.3764C15.4386 41.3477 15.8793 41.3376 16.3368 41.3437C16.4688 41.3442 16.6008 41.3447 16.7367 41.3452C17.1579 41.3471 17.5791 41.3512 18.0003 41.3555C18.286 41.3572 18.5717 41.3587 18.8574 41.3601C19.5575 41.3637 20.2576 41.3695 20.9577 41.3764C20.6454 41.0336 20.3327 40.6911 20.0199 40.3487C19.9327 40.253 19.8455 40.1572 19.7556 40.0585C19.0705 39.3095 18.3608 38.5938 17.6307 37.889C17.1737 37.3917 16.9941 37.0361 16.9108 36.3655C16.9731 35.8644 16.9731 35.8644 17.2428 35.4781C17.73 35.1299 18.036 35.0415 18.6333 35.0292C19.6709 35.4575 20.4399 36.4754 21.1548 37.3155C21.7506 38.0123 22.3955 38.652 23.045 39.2973C23.7114 39.9626 24.3356 40.6554 24.9423 41.3764C25.2395 41.6754 25.6845 41.5829 26.0869 41.5963C26.295 41.6033 26.5031 41.6104 26.7174 41.6177C26.9455 41.6244 27.1735 41.6309 27.4015 41.6374C27.5157 41.6407 27.6299 41.644 27.7475 41.6474C28.4642 41.6679 29.1809 41.6857 29.8976 41.7021C30.2463 41.7102 30.595 41.7192 30.9437 41.7284C31.5823 41.7445 32.2209 41.7541 32.8596 41.7626C33.1535 41.7701 33.1535 41.7701 33.4532 41.7777C33.6347 41.779 33.8161 41.7802 34.003 41.7815C34.1615 41.784 34.32 41.7864 34.4834 41.7889C35.0468 41.6837 35.2173 41.4939 35.5679 41.0423C35.8375 40.5474 35.8375 40.5474 36.0686 39.9892C36.1119 39.8888 36.1552 39.7883 36.1997 39.6847C36.2904 39.4731 36.3802 39.2611 36.4692 39.0488C36.6051 38.7259 36.7446 38.4046 36.8844 38.0834C36.9724 37.8767 37.0602 37.6698 37.1478 37.4629C37.227 37.2765 37.3062 37.0901 37.3879 36.898C37.5678 36.3421 37.6218 35.9433 37.5602 35.3633C37.2729 34.972 37.0066 34.6585 36.6678 34.3194C36.5777 34.2252 36.4876 34.1311 36.3947 34.0341C36.1218 33.7506 35.8456 33.4708 35.5679 33.1919C35.4158 33.0384 35.2636 32.8849 35.1068 32.7267C34.831 32.4501 34.5545 32.174 34.2773 31.8987C33.9489 31.5637 33.6406 31.2216 33.3369 30.8639C33.2476 30.7649 33.1582 30.6658 33.0661 30.5637C32.7455 30.1854 32.7455 30.1854 32.4451 29.7253C31.8824 28.987 31.3935 28.4582 30.4673 28.2432C29.1364 28.0809 27.7956 28.1057 26.4573 28.1184C25.8503 28.1188 25.2436 28.1166 24.6367 28.1097C24.2607 28.106 23.8846 28.1067 23.5087 28.1124C22.2461 28.1073 22.2461 28.1073 21.5893 27.6221C21.2197 27.0753 21.1689 26.8252 21.2897 26.1767C21.5396 25.7329 21.5396 25.7329 21.9538 25.3415C22.4561 25.267 22.8624 25.2435 23.3624 25.26C23.5656 25.2617 23.5656 25.2617 23.7728 25.2636C24.2043 25.2682 24.6354 25.2787 25.0668 25.2893C25.3597 25.2935 25.6526 25.2973 25.9456 25.3007C26.6628 25.3099 27.3797 25.3244 28.0968 25.3415C27.7842 24.9985 27.4714 24.6558 27.1583 24.3133C27.071 24.2174 26.9838 24.1215 26.8938 24.0227C26.2141 23.2797 25.5106 22.5695 24.786 21.8704C24.234 21.2719 23.9384 20.8891 23.9669 20.0592C24.1122 19.4955 24.1122 19.4955 24.2886 19.1719C24.8401 18.8676 25.3421 18.8493 25.9384 18.9944C26.9984 19.6342 27.7993 20.7323 28.6104 21.6564C29.1664 22.2695 29.7929 22.8011 30.4211 23.3372C30.4185 23.1695 30.4159 23.0019 30.4132 22.8291C30.4042 22.205 30.3985 21.5809 30.3938 20.9567C30.3913 20.687 30.3879 20.4172 30.3835 20.1475C30.3775 19.759 30.3747 19.3706 30.3725 18.982C30.3699 18.8621 30.3673 18.7422 30.3647 18.6186C30.3644 17.8761 30.4698 17.4156 30.9192 16.823C31.4791 16.3957 31.9235 16.4497 32.5795 16.656ZM40.0506 37.8687C39.4781 38.9826 38.934 40.1082 38.4215 41.2511C38.3463 41.4136 38.3463 41.4136 38.2697 41.5793C38.2228 41.6854 38.176 41.7916 38.1277 41.9009C38.0862 41.9932 38.0447 42.0854 38.002 42.1804C37.652 43.3452 37.7163 44.1215 38.1588 45.2252C38.2054 45.3474 38.252 45.4696 38.2999 45.5955C38.3984 45.8519 38.4982 46.1078 38.5994 46.3631C38.7533 46.7521 38.9024 47.1428 39.0509 47.534C39.1476 47.7841 39.2445 48.0341 39.3418 48.284C39.4082 48.4575 39.4082 48.4575 39.476 48.6346C39.9807 49.8972 40.5721 50.4913 41.7939 51.0328C41.9159 51.0882 42.0378 51.1436 42.1635 51.2007C42.5648 51.381 42.9678 51.5568 43.3711 51.7322C43.5148 51.796 43.6584 51.8599 43.8064 51.9257C44.2443 52.1192 44.684 52.3075 45.1248 52.4943C45.3289 52.5842 45.3289 52.5842 45.5372 52.6759C47.1281 53.3304 48.1988 52.8707 49.73 52.2336C49.9348 52.1466 50.1395 52.0595 50.3442 51.9723C50.554 51.8844 50.764 51.7967 50.9739 51.709C51.4841 51.4955 51.9936 51.2805 52.5025 51.0641C51.7878 50.2136 51.051 49.3904 50.2923 48.5795C50.1828 48.4622 50.0734 48.3448 49.9606 48.2239C49.266 47.4819 48.5581 46.7562 47.8363 46.0408C47.5337 45.7314 47.2518 45.4124 46.9718 45.0823C46.4633 44.485 45.9191 43.9329 45.3634 43.3807C44.7161 42.7375 44.1003 42.0839 43.5106 41.3862C43.1213 40.9479 42.7077 40.5362 42.292 40.1236C41.6361 39.472 41.0147 38.8072 40.4229 38.0965C40.3548 38.0213 40.2868 37.9462 40.2166 37.8687C40.1618 37.8687 40.1071 37.8687 40.0506 37.8687Z" fill="url(#paint0_linear_109_737)"/>
<path d="M73.738 18.1409C74.2717 18.5042 74.3795 18.7041 74.5 19.3395C74.299 20.5193 73.3328 21.1761 72.4534 21.919C72.04 22.2829 71.6542 22.6671 71.2666 23.058C70.6769 23.6519 70.0725 24.2108 69.4343 24.7521C69.0135 25.1228 68.6271 25.5229 68.2417 25.9295C67.9436 26.1971 67.6862 26.3547 67.3124 26.5C66.7497 26.4705 66.3247 26.446 65.8501 26.1312C65.599 25.7427 65.5217 25.4893 65.5 25.0249C65.8628 24.0604 66.5122 23.4961 67.2609 22.8224C67.5132 22.5911 67.7655 22.3598 68.0177 22.1284C68.1464 22.0112 68.2751 21.8941 68.4078 21.7734C68.785 21.4283 69.1588 21.0801 69.5315 20.7301C69.6483 20.6203 69.7652 20.5105 69.8856 20.3974C70.1068 20.1895 70.328 19.9816 70.5491 19.7736C72.608 17.8487 72.608 17.8487 73.738 18.1409Z" fill="url(#paint1_linear_109_737)"/>
<path d="M49.8117 13.002C50.2392 13.099 50.384 13.2231 50.6447 13.5809C50.9056 14.435 50.8872 15.3429 50.9294 16.2299C50.9461 16.4994 50.9461 16.4994 50.9631 16.7742C51.0415 18.4482 51.0415 18.4482 50.482 19.2545C49.9722 19.516 49.4033 19.5635 48.8553 19.4214C48.267 18.8712 48.1264 18.407 48.0894 17.598C48.0872 17.4769 48.0849 17.3559 48.0826 17.2312C48.0784 17.1058 48.0742 16.9805 48.0698 16.8513C48.0619 16.6004 48.0554 16.3494 48.0503 16.0984C48.043 15.794 48.0276 15.4897 48.0108 15.1857C47.982 14.4858 47.9925 14.0272 48.2758 13.3827C48.8081 12.9965 49.1729 12.9932 49.8117 13.002Z" fill="url(#paint2_linear_109_737)"/>
<path d="M73.8304 41.5393C74.0215 41.5578 74.0215 41.5578 74.2164 41.5766C76.5363 41.8189 76.5363 41.8189 77.1072 42.3388C77.4499 42.7934 77.4787 43.1624 77.5 43.7442C77.308 44.1741 77.1342 44.5141 76.8251 44.8524C72.9903 45.1133 72.9903 45.1133 71.8763 44.1389C71.5949 43.7442 71.5949 43.7442 71.5 43.1093C71.715 41.6188 72.6048 41.3892 73.8304 41.5393Z" fill="url(#paint3_linear_109_737)"/>
<path d="M44.714 22.5408C45.1637 22.8298 45.1637 22.8298 45.452 23.2806C45.5357 23.952 45.5326 24.3946 45.256 25.0145C44.7153 25.4691 44.3042 25.5 43.607 25.5C43.0262 25.1709 42.7592 24.9381 42.5 24.3209C42.5 23.6676 42.716 23.2771 43.0535 22.7257C43.6239 22.4398 44.0856 22.4865 44.714 22.5408Z" fill="url(#paint4_linear_109_737)"/>
<defs>
<linearGradient id="paint0_linear_109_737" x1="14" y1="46.75" x2="52.9651" y2="46.3091" gradientUnits="userSpaceOnUse">
<stop stop-color="#09B786"/>
<stop offset="1" stop-color="#1B91CD"/>
</linearGradient>
<linearGradient id="paint1_linear_109_737" x1="65.5" y1="22.25" x2="71.3938" y2="22.1782" gradientUnits="userSpaceOnUse">
<stop stop-color="#09B786"/>
<stop offset="1" stop-color="#1B91CD"/>
</linearGradient>
<linearGradient id="paint2_linear_109_737" x1="48" y1="16.25" x2="49.9648" y2="16.2396" gradientUnits="userSpaceOnUse">
<stop stop-color="#09B786"/>
<stop offset="1" stop-color="#1B91CD"/>
</linearGradient>
<linearGradient id="paint3_linear_109_737" x1="71.5" y1="43.25" x2="75.4282" y2="43.1725" gradientUnits="userSpaceOnUse">
<stop stop-color="#09B786"/>
<stop offset="1" stop-color="#1B91CD"/>
</linearGradient>
<linearGradient id="paint4_linear_109_737" x1="42.5" y1="24" x2="44.4646" y2="23.9774" gradientUnits="userSpaceOnUse">
<stop stop-color="#09B786"/>
<stop offset="1" stop-color="#1B91CD"/>
</linearGradient>
</defs>
</svg>
