<svg width="90" height="90" viewBox="0 0 90 90" fill="none" xmlns="http://www.w3.org/2000/svg">
<g clip-path="url(#clip0_109_747)">
<path d="M57.1559 20.0673C57.2522 20.12 57.3485 20.1728 57.4477 20.2271C58.8146 20.985 60.0722 21.815 61.2754 22.8136C61.3556 22.8799 61.4358 22.9461 61.5185 23.0144C63.0581 24.2933 64.4273 25.6324 65.6695 27.2077C65.7816 27.3465 65.8936 27.4853 66.0091 27.6283C68.8981 31.2458 71.7208 36.7734 71.6192 41.4961C71.5471 41.9233 71.3334 42.1594 71.0249 42.4498C70.5881 42.6682 70.1209 42.6955 69.6517 42.5871C69.1314 42.2946 68.8997 42.1025 68.6981 41.5364C68.5888 41.0789 68.4995 40.6212 68.4159 40.1584C68.1443 38.7972 67.814 37.504 67.3447 36.1987C67.2098 35.8075 67.1095 35.4419 67.0427 35.0348C66.9096 35.0779 66.7765 35.1211 66.6393 35.1656C65.4788 35.5373 64.3228 35.859 63.1324 36.1209C61.6292 36.5859 60.751 37.9854 59.883 39.2122C59.4331 39.8359 59.0644 40.3094 58.3918 40.699C58.2757 40.7677 58.1595 40.8364 58.0399 40.9072C57.0673 41.3997 55.6831 41.4007 54.6499 41.0852C53.4517 40.536 52.6035 39.3962 51.8038 38.3931C51.2209 37.6853 50.6611 37.2553 49.7409 37.0945C49.0948 37.0485 48.4488 37.037 47.8013 37.0258C43.7267 36.954 43.7267 36.954 42.3778 35.8066C41.5707 34.9276 41.4071 33.9016 41.4365 32.7529C41.6833 31.0011 42.8765 29.982 44.1967 28.9757C44.2723 28.9196 44.3479 28.8636 44.4258 28.8058C45.0542 28.3373 45.5971 27.8621 46.0333 27.2077C46.1608 26.0652 45.7863 25.1849 45.3639 24.1353C44.7402 22.5699 44.2456 21.2095 44.5229 19.518C37.7303 19.2551 31.0413 21.725 26.0576 26.3291C25.8858 26.4921 25.8858 26.4921 25.7105 26.6585C25.6456 26.7197 25.5807 26.7809 25.5137 26.8439C22.2942 29.8969 20.1148 33.8274 18.8447 38.0557C19.0079 37.9927 19.1711 37.9297 19.3393 37.8648C22.9933 36.494 27.2238 35.7701 30.9554 37.271C32.1841 37.872 33.1339 38.8292 33.5891 40.1337C33.971 41.8859 33.5892 43.1892 32.7007 44.6771C31.9085 46.013 31.7719 46.7183 32.1558 48.2343C32.1817 48.335 32.2076 48.4357 32.2343 48.5395C32.7523 50.6307 32.3735 52.5153 31.4628 54.4387C31.3206 54.8685 31.3172 55.0729 31.4778 55.4949C31.9061 55.9507 32.3492 55.9859 32.954 56.0527C33.0438 56.0634 33.1336 56.0742 33.2261 56.0852C33.6074 56.1305 33.9891 56.1714 34.371 56.2107C36.6595 56.4477 38.3432 56.9315 39.8782 58.7229C40.9945 60.2478 41.2653 62.0304 41.0899 63.8712C40.6482 66.2441 39.122 68.188 37.2451 69.6384C37.1545 69.6384 37.0638 69.6384 36.9705 69.6384C36.9705 69.7291 36.9705 69.8197 36.9705 69.9131C37.1257 69.9315 37.2809 69.9499 37.4409 69.9689C37.8542 70.0204 38.2648 70.0804 38.6756 70.1491C43.8377 71.0054 49.2514 70.5805 54.002 68.2492C54.2723 68.128 54.2723 68.128 54.5469 68.128C54.4839 68.0115 54.4209 67.895 54.356 67.775C52.8261 64.8778 52.4828 61.7954 53.396 58.6339C53.6062 57.9839 53.8613 57.3563 54.135 56.7307C54.204 56.57 54.273 56.4093 54.3442 56.2437C55.352 54.0706 56.957 52.0699 58.8037 50.5515C58.9391 50.4368 59.0746 50.3221 59.2141 50.2039C62.2828 47.6557 66.3093 46.0176 70.3281 45.9922C70.4807 45.9907 70.4807 45.9907 70.6363 45.9892C74.8526 45.9581 74.8526 45.9581 76.6548 46.432C76.7614 46.4585 76.8679 46.4851 76.9777 46.5125C79.9861 47.2774 83.3088 48.6176 85.1084 51.2981C85.3701 51.9469 85.4613 52.4725 85.3058 53.1605C84.8381 54.0297 84.0836 54.4277 83.2326 54.8619C80.6404 56.2993 79.4996 58.9568 78.5429 61.614C77.7003 63.9396 76.6319 66.2406 75.007 68.128C74.9024 68.2497 74.7978 68.3715 74.69 68.497C74.3895 68.8376 74.0827 69.1706 73.7712 69.5011C73.691 69.5886 73.6108 69.676 73.5282 69.7661C71.4651 71.9403 68.4207 73.1879 65.4652 73.3765C62.5531 73.4473 59.2954 72.6567 57.0664 70.6903C56.7668 70.4314 56.7668 70.4314 56.4281 70.465C55.9158 70.6511 55.4265 70.8751 54.9331 71.106C53.1728 71.9037 51.4049 72.4812 49.5177 72.8997C49.3951 72.927 49.2725 72.9543 49.1462 72.9824C47.2635 73.3783 45.4041 73.5362 43.4844 73.5262C43.3835 73.5259 43.2826 73.5257 43.1787 73.5254C35.3045 73.4928 28.1765 70.2512 22.6474 64.6946C21.8579 63.8801 21.1637 62.9992 20.4925 62.086C20.3853 61.9405 20.278 61.795 20.1675 61.6451C17.9435 58.5286 16.4359 55.0483 15.5749 51.3239C15.5481 51.2083 15.5214 51.0926 15.4938 50.9735C15.0639 49.0066 14.9436 47.0815 14.9484 45.076C14.9485 44.9523 14.9486 44.8286 14.9487 44.7011C14.9625 40.4048 15.9026 36.4469 17.7462 32.5631C17.7939 32.4618 17.8416 32.3605 17.8908 32.2561C19.1011 29.7299 20.784 27.4662 22.6896 25.4226C22.792 25.3123 22.792 25.3123 22.8964 25.1997C23.8575 24.1751 24.8947 23.2836 26.0199 22.4438C26.2493 22.2722 26.4761 22.0976 26.7029 21.9227C35.3539 15.3714 47.7648 14.9167 57.1559 20.0673ZM47.4065 19.7927C47.1001 20.4054 47.3373 21.2152 47.5298 21.8417C47.6847 22.2633 47.8477 22.6804 48.0158 23.0968C48.7475 24.9336 49.3574 26.6965 48.5635 28.6254C47.9098 29.8522 46.7796 30.688 45.7017 31.5259C45.195 31.9222 44.7448 32.2947 44.3855 32.8377C44.3395 33.2785 44.3395 33.2785 44.3855 33.6616C45.3266 34.1937 46.2701 34.133 47.3293 34.1422C51.7819 34.2308 51.7819 34.2308 53.5342 35.893C54.001 36.3885 54.4199 36.9226 54.836 37.4608C55.3714 38.1527 55.3714 38.1527 56.1776 38.4076C56.697 38.4255 56.9868 38.1836 57.3675 37.8467C57.6828 37.5274 57.9169 37.1701 58.1601 36.7941C59.9183 34.1638 61.8692 33.4141 64.8505 32.7475C65.0798 32.6942 65.3064 32.6296 65.5322 32.5631C65.5775 32.4724 65.6229 32.3818 65.6695 32.2884C65.5056 31.9862 65.3358 31.7072 65.146 31.4216C65.0898 31.336 65.0336 31.2503 64.9757 31.1621C63.9607 29.6364 62.8125 28.2587 61.5501 26.9331C61.4603 26.8361 61.3706 26.7391 61.2781 26.6392C57.9419 23.1393 52.7517 20.4264 47.9558 19.7927C47.7745 19.7927 47.5932 19.7927 47.4065 19.7927ZM19.3082 40.9479C19.2114 40.9913 19.1147 41.0347 19.015 41.0794C18.448 41.354 18.1291 41.59 17.8835 42.1752C16.7603 47.6199 18.8109 54.323 21.7285 58.8696C24.4007 62.8515 27.9018 65.9385 32.1301 68.1709C32.3457 68.2848 32.3457 68.2848 32.5656 68.401C33.1018 68.5772 33.405 68.5482 33.9495 68.4026C34.2878 68.2099 34.5775 68.0254 34.885 67.7932C34.9681 67.7315 35.0512 67.6698 35.1368 67.6062C36.642 66.4648 37.9695 65.1729 38.2889 63.2318C38.3423 61.9403 37.997 61.0481 37.2108 60.0435C36.1598 59.2313 35.0649 59.0988 33.7693 58.9964C30.5725 58.7413 30.5725 58.7413 29.4824 57.6646C28.6896 56.6925 28.4778 55.7783 28.5159 54.5294C28.5988 53.7533 28.9025 53.0604 29.2244 52.3564C29.8051 51.0616 29.6521 49.6418 29.2459 48.3142C28.8104 46.7342 29.0223 45.3099 29.8201 43.894C29.9605 43.6545 30.1054 43.4176 30.2506 43.1809C30.742 42.3668 30.742 42.3668 30.9377 41.4532C30.744 40.7356 30.4676 40.3992 29.83 39.9781C26.8057 38.2769 22.2377 39.6109 19.3082 40.9479ZM59.0169 54.3474C57.025 56.7376 55.6604 59.572 55.7425 62.7442C55.8397 63.8077 56.0527 64.8704 56.6067 65.7936C57.0176 65.3071 57.3273 64.8178 57.628 64.2574C59.4472 60.9852 62.1016 57.9413 65.043 55.6322C65.1289 55.5621 65.2148 55.4919 65.3033 55.4197C65.8861 54.9819 66.3224 54.8733 67.05 54.8963C67.4564 54.9712 67.6336 55.1647 67.8666 55.4949C68.0602 55.8821 68.0376 56.1636 68.0039 56.5934C67.7129 57.2052 67.3292 57.5135 66.7852 57.9065C65.4149 58.9234 64.1319 60.0667 63.0605 61.3995C62.9467 61.5388 62.8329 61.6781 62.7156 61.8216C61.1605 63.7468 59.5271 65.9252 58.6664 68.2653C60.8902 69.9392 63.3123 70.6879 66.0815 70.4623C66.6508 70.3711 67.1829 70.233 67.7293 70.0504C67.8426 70.0153 67.9559 69.9803 68.0726 69.9442C71.2219 68.8439 73.4336 65.8877 74.8646 63.0135C75.3552 61.9795 75.7414 60.9029 76.1447 59.8327C77.3654 56.6182 79.011 54.026 82.0102 52.1993C79.5869 49.6693 75.4393 48.8112 72.0539 48.7178C67.0676 48.6758 62.3451 50.569 59.0169 54.3474Z" fill="url(#paint0_linear_109_747)"/>
</g>
<defs>
<linearGradient id="paint0_linear_109_747" x1="14.9482" y1="45.0453" x2="61.07" y2="44.3892" gradientUnits="userSpaceOnUse">
<stop stop-color="#09B786"/>
<stop offset="1" stop-color="#1B91CD"/>
</linearGradient>
<clipPath id="clip0_109_747">
<rect width="70.3059" height="70.3059" fill="white" transform="translate(15 9.90576)"/>
</clipPath>
</defs>
</svg>
