<svg width="48" height="49" viewBox="0 0 48 49" fill="none" xmlns="http://www.w3.org/2000/svg">
<rect width="48" height="48" transform="translate(0 0.5)" fill="#094FB7"/>
<g clip-path="url(#clip0_110_1132)">
<path d="M24 14.5C18.48 14.5 14 18.98 14 24.5C14 30.02 18.48 34.5 24 34.5H29V32.5H24C19.66 32.5 16 28.84 16 24.5C16 20.16 19.66 16.5 24 16.5C28.34 16.5 32 20.16 32 24.5V25.93C32 26.72 31.29 27.5 30.5 27.5C29.71 27.5 29 26.72 29 25.93V24.5C29 21.74 26.76 19.5 24 19.5C21.24 19.5 19 21.74 19 24.5C19 27.26 21.24 29.5 24 29.5C25.38 29.5 26.64 28.94 27.54 28.03C28.19 28.92 29.31 29.5 30.5 29.5C32.47 29.5 34 27.9 34 25.93V24.5C34 18.98 29.52 14.5 24 14.5ZM24 27.5C22.34 27.5 21 26.16 21 24.5C21 22.84 22.34 21.5 24 21.5C25.66 21.5 27 22.84 27 24.5C27 26.16 25.66 27.5 24 27.5Z" fill="white"/>
</g>
<defs>
<clipPath id="clip0_110_1132">
<rect width="24" height="24" fill="white" transform="translate(12 12.5)"/>
</clipPath>
</defs>
</svg>
