<svg width="65" height="64" viewBox="0 0 65 64" fill="none" xmlns="http://www.w3.org/2000/svg">
<g clip-path="url(#clip0_111_1526)">
<path d="M5.16257 9.09365C5.30782 9.09299 5.30782 9.09299 5.45601 9.09232C5.78017 9.09116 6.1043 9.09177 6.42847 9.09238C6.66336 9.09191 6.89824 9.09133 7.13313 9.09066C7.77839 9.08913 8.42365 9.08916 9.06891 9.08946C9.7649 9.08951 10.4609 9.08813 11.1569 9.08694C12.5204 9.08487 13.8839 9.08418 15.2475 9.08404C16.3558 9.08392 17.4641 9.08341 18.5724 9.08262C21.2032 9.08077 23.834 9.07924 26.4648 9.07937C26.5489 9.07937 26.633 9.07937 26.7197 9.07938C27.146 9.0794 27.5724 9.07942 27.9987 9.07945C28.0834 9.07945 28.1681 9.07946 28.2553 9.07946C28.4265 9.07947 28.5977 9.07948 28.769 9.0795C31.4326 9.07965 34.0962 9.07777 36.7599 9.07435C39.7532 9.07051 42.7465 9.06836 45.7399 9.06859C47.3245 9.06868 48.9091 9.06799 50.4937 9.0653C51.8429 9.06302 53.1921 9.06248 54.5412 9.06418C55.2295 9.06499 55.9178 9.06501 56.606 9.06284C57.2365 9.06087 57.8668 9.06123 58.4973 9.06341C58.725 9.06379 58.9527 9.06334 59.1804 9.06194C60.7194 9.05315 62.0727 9.14012 63.3209 10.1556C64.1997 11.0247 64.7052 12.1235 64.7208 13.356C64.7202 13.4601 64.7196 13.5643 64.7191 13.6716C64.7203 13.8403 64.7204 13.8403 64.7217 14.0125C64.7239 14.3815 64.7235 14.7505 64.7227 15.1195C64.7233 15.3772 64.724 15.6349 64.7247 15.8926C64.7258 16.4313 64.7255 16.97 64.7243 17.5086C64.7229 18.1988 64.7254 18.889 64.729 19.5792C64.7313 20.1107 64.7313 20.6423 64.7306 21.1738C64.7306 21.4284 64.7313 21.6829 64.7329 21.9374C64.7347 22.2928 64.7334 22.6481 64.7313 23.0036C64.7325 23.1085 64.7337 23.2134 64.7349 23.3214C64.7286 23.8226 64.7057 24.0673 64.4303 24.5006C64.0247 24.8883 63.7344 24.9175 63.1734 24.9124C62.7771 24.8555 62.5661 24.6567 62.2936 24.3758C62.0994 23.9875 62.1483 23.5757 62.1469 23.1494C62.146 23.0486 62.1452 22.9477 62.1443 22.8438C62.1426 22.6244 62.1411 22.4049 62.1398 22.1854C62.1378 21.8375 62.1349 21.4896 62.1317 21.1417C62.1229 20.1523 62.1154 19.163 62.109 18.1736C62.105 17.5687 62.0998 16.9638 62.0939 16.3589C62.0919 16.1287 62.0904 15.8986 62.0893 15.6685C62.0878 15.3454 62.0848 15.0223 62.0814 14.6992C62.0813 14.5579 62.0813 14.5579 62.0812 14.4138C62.072 13.7361 62.0445 12.947 61.6139 12.3958C60.986 11.9548 60.641 11.8575 59.8864 11.859C59.7914 11.8587 59.6963 11.8584 59.5984 11.8581C59.2766 11.8573 58.9549 11.8574 58.6331 11.8574C58.4014 11.857 58.1697 11.8565 57.938 11.856C57.2986 11.8548 56.6593 11.8543 56.02 11.854C55.3315 11.8535 54.643 11.8523 53.9545 11.8512C52.2905 11.8487 50.6265 11.8475 48.9625 11.8463C48.1796 11.8458 47.3967 11.8451 46.6138 11.8445C44.0124 11.8423 41.411 11.8405 38.8096 11.8396C38.6413 11.8396 38.473 11.8395 38.3047 11.8395C38.2213 11.8394 38.1378 11.8394 38.0518 11.8394C37.629 11.8392 37.2061 11.8391 36.7833 11.8389C36.6994 11.8389 36.6155 11.8388 36.529 11.8388C33.8077 11.8378 31.0864 11.8349 28.3651 11.8308C25.4891 11.8266 22.6131 11.8241 19.7371 11.8237C18.1689 11.8234 16.6007 11.8223 15.0325 11.8191C13.6972 11.8164 12.362 11.8154 11.0268 11.8166C10.3451 11.8172 9.66356 11.8169 8.98196 11.8145C8.35833 11.8123 7.73473 11.8124 7.1111 11.8144C6.88515 11.8147 6.6592 11.8141 6.43326 11.8127C6.12666 11.8108 5.82022 11.812 5.51362 11.8139C5.38132 11.812 5.38132 11.812 5.24634 11.8101C4.62421 11.8188 4.27633 11.9926 3.79356 12.3758C3.14514 13.0466 3.27521 14.0273 3.276 14.8995C3.27563 15.0275 3.27526 15.1555 3.27488 15.2873C3.27379 15.716 3.2736 16.1446 3.27341 16.5732C3.27284 16.8806 3.27221 17.188 3.27153 17.4954C3.26989 18.3304 3.26908 19.1654 3.26853 20.0003C3.26819 20.522 3.26766 21.0437 3.26709 21.5654C3.26557 23.0107 3.26428 24.4561 3.26386 25.9015C3.26383 25.9939 3.26381 26.0863 3.26378 26.1816C3.26375 26.2742 3.26372 26.3668 3.26369 26.4623C3.26364 26.65 3.26358 26.8377 3.26353 27.0254C3.2635 27.1185 3.26347 27.2117 3.26344 27.3076C3.26295 28.8163 3.26077 30.325 3.25786 31.8338C3.25489 33.384 3.25333 34.9343 3.25319 36.4846C3.25307 37.3545 3.25236 38.2244 3.25009 39.0943C3.24796 39.9125 3.24776 40.7307 3.24885 41.5489C3.24895 41.849 3.24841 42.1491 3.24717 42.4491C3.24558 42.8593 3.24632 43.2693 3.24762 43.6795C3.24661 43.7977 3.24561 43.916 3.24457 44.0379C3.25112 44.9208 3.33398 45.7912 3.98106 46.4383C4.51857 46.7608 4.97882 46.7689 5.58683 46.7676C5.68155 46.7679 5.77627 46.7682 5.87386 46.7685C6.19382 46.7693 6.51378 46.7693 6.83374 46.7692C7.06443 46.7696 7.29512 46.7701 7.52581 46.7706C8.16176 46.7719 8.79771 46.7723 9.43366 46.7726C10.1187 46.7731 10.8038 46.7743 11.4889 46.7754C13.1443 46.7779 14.7997 46.7791 16.4551 46.7803C17.2342 46.7808 18.0132 46.7815 18.7923 46.7821C21.381 46.7843 23.9697 46.7861 26.5585 46.787C26.7259 46.787 26.8934 46.7871 27.0608 46.7872C27.1439 46.7872 27.2269 46.7872 27.3124 46.7872C27.7331 46.7874 28.1539 46.7875 28.5746 46.7877C28.658 46.7877 28.7415 46.7878 28.8276 46.7878C31.535 46.7888 34.2425 46.7917 36.95 46.7958C39.8119 46.8001 42.6737 46.8025 45.5356 46.8029C47.0959 46.8032 48.6562 46.8043 50.2165 46.8075C51.545 46.8102 52.8735 46.8112 54.2021 46.81C54.8801 46.8094 55.5582 46.8097 56.2363 46.8121C56.8568 46.8143 57.4773 46.8142 58.0979 46.8122C58.3226 46.8119 58.5473 46.8125 58.7719 46.814C59.0771 46.8158 59.3822 46.8146 59.6874 46.8127C59.8185 46.8146 59.8185 46.8146 59.9523 46.8166C60.6243 46.8071 61.0008 46.6191 61.5436 46.2508C62.0863 45.5452 62.0616 44.7885 62.0593 43.93C62.0595 43.8236 62.0598 43.7173 62.06 43.6077C62.0605 43.3773 62.0608 43.147 62.0608 42.9167C62.0612 42.4269 62.0639 41.9371 62.0665 41.4473C62.0712 40.536 62.0751 39.6247 62.0749 38.7133C62.0748 38.0788 62.0777 37.4443 62.0826 36.8098C62.0839 36.5682 62.0841 36.3265 62.0831 36.0849C62.0819 35.7471 62.0846 35.4094 62.0881 35.0716C62.0862 34.9222 62.0862 34.9222 62.0842 34.7697C62.0938 34.2597 62.1445 34.0304 62.4705 33.6292C62.9425 33.259 63.1922 33.193 63.7936 33.2508C64.4909 33.6455 64.4909 33.6455 64.6685 34.0008C64.6829 34.3756 64.6895 34.7475 64.6907 35.1224C64.6919 35.2968 64.6919 35.2968 64.6932 35.4748C64.6956 35.8611 64.6971 36.2473 64.6983 36.6336C64.6988 36.7656 64.6994 36.8976 64.6999 37.0336C64.7025 37.7328 64.7043 38.4321 64.7054 39.1314C64.7068 39.8521 64.7111 40.5727 64.7161 41.2934C64.7194 41.8487 64.7204 42.4039 64.7209 42.9592C64.7215 43.2248 64.7229 43.4903 64.7252 43.7558C64.7283 44.1288 64.7282 44.5018 64.7273 44.8748C64.7289 44.9833 64.7305 45.0918 64.7321 45.2036C64.7215 46.4664 64.235 47.4365 63.3736 48.3421C62.3478 49.2238 61.2642 49.5251 59.942 49.5086C59.8554 49.5081 59.7688 49.5075 59.6795 49.5069C59.4675 49.5054 59.2555 49.5032 59.0436 49.5008C59.0479 49.6592 59.0523 49.8176 59.0567 49.9808C59.0603 50.1932 59.0637 50.4056 59.067 50.618C59.0717 50.7738 59.0717 50.7738 59.0765 50.9327C59.09 52.0867 58.7929 53.101 57.9771 53.95C57.0469 54.8126 56.098 54.9335 54.8727 54.93C54.7383 54.9307 54.604 54.9313 54.4655 54.932C54.1825 54.9328 53.8995 54.9326 53.6165 54.9316C53.1863 54.9305 52.7564 54.9341 52.3263 54.9381C52.0501 54.9383 51.7739 54.9382 51.4977 54.9378C51.3705 54.9392 51.2434 54.9406 51.1124 54.9421C50.0406 54.9318 49.1161 54.705 48.3092 53.9696C47.0956 52.6357 47.2936 51.3333 47.2936 49.5008C37.6411 49.5008 27.9886 49.5008 18.0436 49.5008C18.0436 50.2846 18.0436 51.0683 18.0436 51.8758C17.8635 52.9441 17.4059 53.6997 16.5436 54.3758C15.6481 54.8432 14.8426 54.9502 13.8438 54.9422C13.6424 54.9429 13.6424 54.9429 13.4369 54.9437C13.1549 54.944 12.8728 54.9431 12.5908 54.941C12.1614 54.9383 11.7324 54.941 11.3031 54.9442C11.0276 54.9438 10.7521 54.9432 10.4767 54.9422C10.3497 54.9432 10.2227 54.9442 10.0919 54.9453C8.89554 54.9297 8.01015 54.555 7.13438 53.742C6.31902 52.8307 6.27443 51.8161 6.28574 50.6492C6.28631 50.5388 6.28687 50.4283 6.28745 50.3145C6.28892 50.0433 6.29116 49.772 6.29356 49.5008C6.17271 49.5052 6.05186 49.5095 5.92734 49.514C4.27241 49.5484 3.04495 49.2961 1.79649 48.1488C0.843374 47.1449 0.593131 46.0591 0.605064 44.7074C0.604284 44.5699 0.603504 44.4324 0.602701 44.2907C0.600716 43.8328 0.602282 43.375 0.603859 42.9171C0.603181 42.5876 0.602308 42.2582 0.601204 41.9288C0.598987 41.1286 0.599458 40.3284 0.60091 39.5282C0.602042 38.8775 0.602191 38.2269 0.601648 37.5763C0.601572 37.4835 0.601495 37.3907 0.601416 37.2951C0.601256 37.1065 0.601094 36.918 0.60093 36.7295C0.599506 34.9638 0.60114 33.1981 0.60383 31.4324C0.606063 29.9191 0.605676 28.4059 0.603371 26.8926C0.600692 25.133 0.599643 23.3734 0.601177 21.6138C0.601336 21.426 0.601493 21.2382 0.601648 21.0503C0.601725 20.958 0.601802 20.8656 0.601882 20.7704C0.602313 20.1209 0.601587 19.4714 0.600408 18.822C0.599003 18.0299 0.599393 17.2379 0.602049 16.4458C0.603358 16.0421 0.603614 15.6385 0.602224 15.2347C0.600854 14.7962 0.602577 14.3578 0.605064 13.9192C0.603949 13.7929 0.602834 13.6666 0.601684 13.5364C0.615304 12.295 1.02539 11.1385 1.91856 10.2508C2.93805 9.47002 3.86862 9.08616 5.16257 9.09365ZM8.91856 49.5008C8.74706 51.3365 8.74706 51.3365 9.29356 52.1258C9.57415 52.2661 9.73254 52.2694 10.044 52.2749C10.147 52.2769 10.2501 52.2789 10.3563 52.281C10.8279 52.2866 11.2995 52.2917 11.7711 52.2946C12.0198 52.2966 12.2685 52.3 12.5171 52.3048C12.8757 52.3117 13.2342 52.3144 13.5929 52.3162C13.7037 52.3191 13.8145 52.3219 13.9287 52.3248C14.0851 52.3243 14.0851 52.3243 14.2446 52.3237C14.3358 52.3248 14.4269 52.3258 14.5208 52.3268C14.9021 52.2446 14.9021 52.2446 15.4186 51.6258C15.4186 50.9246 15.4186 50.2233 15.4186 49.5008C13.2736 49.5008 11.1286 49.5008 8.91856 49.5008ZM49.9186 49.5008C49.9186 50.2021 49.9186 50.9033 49.9186 51.6258C50.4352 52.2435 50.4352 52.2435 50.8147 52.3285C50.905 52.3282 50.9954 52.328 51.0885 52.3277C51.2437 52.3295 51.2437 52.3295 51.402 52.3312C51.512 52.3292 51.6221 52.3271 51.7354 52.325C51.9071 52.325 51.9071 52.325 52.0823 52.325C52.3236 52.3244 52.565 52.3222 52.8063 52.3186C53.1756 52.3133 53.5446 52.3134 53.9139 52.3143C54.1487 52.313 54.3835 52.3114 54.6183 52.3094C54.7286 52.3094 54.8388 52.3093 54.9525 52.3093C55.5549 52.298 55.5549 52.298 56.1092 52.0831C56.7318 51.3831 56.4186 50.3877 56.4186 49.5008C54.2736 49.5008 52.1286 49.5008 49.9186 49.5008Z" fill="#0B63E5"/>
<path d="M29.8502 19.4537C30.0843 19.6754 30.3149 19.9002 30.5455 20.1256C30.6303 20.204 30.715 20.2825 30.8023 20.3634C32.4654 21.9341 33.491 24.1879 34.0455 26.3756C34.0761 26.4921 34.1067 26.6086 34.1383 26.7286C34.8535 30.0844 34.0704 33.6145 32.2955 36.5006C31.2452 38.1033 29.8324 39.6498 28.1705 40.6256C28.0953 40.6698 28.0201 40.7141 27.9427 40.7597C26.6899 41.4863 25.4492 42.0198 24.0455 42.3756C23.929 42.4062 23.8125 42.4368 23.6925 42.4683C20.2783 43.196 16.6915 42.3696 13.7819 40.5229C10.8006 38.5261 8.77892 35.4625 8.01426 31.9693C7.89956 31.3168 7.83578 30.6616 7.79551 30.0006C7.7902 29.914 7.78488 29.8275 7.7794 29.7384C7.67677 26.1874 9.08871 22.7682 11.4879 20.1925C16.2783 15.1587 24.7019 14.7174 29.8502 19.4537ZM19.5831 19.2955C18.8628 20.1348 18.8749 20.9651 18.8736 22.0162C18.8706 22.1509 18.8675 22.2856 18.8644 22.4244C18.8609 23.3758 19.0368 24.1309 19.4205 25.0006C19.5609 24.9901 19.7012 24.9796 19.8458 24.9688C20.8049 24.9019 21.7164 24.8444 22.6705 25.0006C23.145 24.0155 23.2218 23.1032 23.2252 22.024C23.227 21.8384 23.227 21.8384 23.2289 21.649C23.2185 20.7454 23.0997 20.1223 22.5143 19.4068C21.6261 18.6802 20.5318 18.5366 19.5831 19.2955ZM13.2955 22.1256C11.3134 24.2359 10.3841 27.0084 10.4205 29.8756C11.0179 29.8756 11.326 29.6609 11.8111 29.3521C11.9811 29.248 12.1512 29.1442 12.3214 29.0406C12.4794 28.9439 12.6375 28.8473 12.7955 28.7506C13.9787 28.0288 15.3069 27.7853 16.6612 27.5665C16.9497 27.5196 16.9497 27.5196 17.1549 27.2271C17.4233 26.556 17.1178 25.945 16.858 25.3053C16.5241 24.4812 16.4048 23.8311 16.4083 22.9395C16.4085 22.8516 16.4087 22.7637 16.4088 22.6732C16.4095 22.3943 16.4111 22.1154 16.4127 21.8365C16.4133 21.6467 16.4139 21.4568 16.4144 21.2669C16.4158 20.8031 16.4179 20.3394 16.4205 19.8756C15.4639 19.8756 13.9794 21.4696 13.2955 22.1256ZM25.6705 19.8756C25.6744 20.0303 25.6744 20.0303 25.6784 20.1881C25.7653 24.1288 25.7653 24.1288 25.0362 25.9635C24.998 26.0608 24.9599 26.1581 24.9205 26.2584C24.8844 26.3346 24.8483 26.4108 24.8111 26.4893C24.789 26.8591 24.9217 27.1257 25.1144 27.4352C25.4552 27.7934 25.8782 27.7887 26.3502 27.8287C26.5545 27.855 26.7586 27.8825 26.9625 27.9112C27.0624 27.9253 27.1622 27.9393 27.2651 27.9538C28.8632 28.2206 30.3422 29.24 31.6705 30.1256C31.819 27.0611 30.8507 24.4461 28.8458 22.1246C27.9847 21.2141 26.8808 20.279 25.6705 19.8756ZM19.4986 28.1803C19.1272 28.766 18.9801 29.1593 19.0953 29.8682C19.2735 30.4781 19.627 30.8819 20.1393 31.2428C20.6669 31.4152 21.1211 31.4643 21.6705 31.3756C22.2919 31.059 22.7323 30.627 23.0455 30.0006C23.1467 29.1858 23.0359 28.6587 22.5455 28.0006C22.0825 27.6007 21.66 27.4036 21.0563 27.3551C20.4157 27.4054 19.9367 27.7306 19.4986 28.1803ZM13.3033 31.3678C13.2116 31.4201 13.1199 31.4725 13.0253 31.5264C12.385 31.9072 11.9147 32.268 11.6705 33.0006C11.6042 33.742 11.5962 34.3773 12.0455 35.0006C12.5372 35.5032 13.0907 35.7673 13.794 35.8082C15.4796 35.5502 17.0086 34.2773 18.0455 33.0006C17.9972 32.94 17.9488 32.8794 17.899 32.817C17.2763 32.0155 16.8382 31.2261 16.5455 30.2506C15.3585 30.1222 14.2931 30.7962 13.3033 31.3678ZM25.6705 30.2506C25.6355 30.3458 25.6006 30.441 25.5646 30.5391C25.2479 31.3548 24.9162 31.9811 24.3155 32.6212C24.1328 32.8748 24.1328 32.8748 24.2433 33.1905C24.93 34.3918 26.634 35.3217 27.9205 35.7506C28.6225 35.7966 29.0697 35.7804 29.6705 35.3756C30.2124 34.8388 30.5131 34.4439 30.5924 33.6646C30.5795 33.0274 30.3388 32.597 29.9205 32.1256C29.5697 31.8287 29.1938 31.6033 28.7955 31.3756C28.6067 31.2608 28.6067 31.2608 28.4142 31.1436C27.5096 30.6182 26.7133 30.3426 25.6705 30.2506ZM19.6852 34.9893C19.0508 35.9152 18.2573 36.4748 17.2955 37.0318C17.1876 37.0963 17.0796 37.1607 16.9684 37.2271C16.3826 37.5725 15.8027 37.8748 15.1705 38.1256C17.2024 39.8305 19.8622 40.1623 22.4205 40.0006C23.9316 39.8291 25.9861 39.2628 27.0455 38.1256C26.9156 38.0621 26.7858 37.9986 26.652 37.9332C24.8635 37.0536 23.2263 36.2192 22.0377 34.5553C21.7178 34.1459 21.5102 33.905 20.983 33.8365C20.2931 33.9147 20.0264 34.4366 19.6852 34.9893Z" fill="#0B63E5"/>
<path d="M42.954 16.2157C43.1414 16.2147 43.1414 16.2147 43.3326 16.2137C43.7432 16.212 44.1538 16.2121 44.5644 16.2124C44.8514 16.2119 45.1385 16.2114 45.4255 16.2108C46.0263 16.2098 46.6271 16.2099 47.2279 16.2105C47.9957 16.2113 48.7634 16.2091 49.5311 16.2062C50.1237 16.2044 50.7163 16.2043 51.3089 16.2047C51.5919 16.2046 51.8748 16.204 52.1578 16.2027C52.5544 16.2012 52.9509 16.202 53.3475 16.2035C53.463 16.2025 53.5785 16.2015 53.6975 16.2006C54.6519 16.2082 55.5136 16.3739 56.331 16.8828C57.2691 17.9082 57.3896 18.9587 57.3665 20.2949C57.3622 20.5704 57.364 20.8453 57.3664 21.1208C57.3654 22.1753 57.3264 23.1601 56.5842 23.9793C55.7215 24.8163 54.7282 24.9307 53.58 24.9235C53.4498 24.9242 53.3196 24.9248 53.1854 24.9255C52.7574 24.9272 52.3294 24.9261 51.9013 24.9248C51.6025 24.9251 51.3036 24.9254 51.0048 24.9259C50.3794 24.9264 49.754 24.9256 49.1286 24.9239C48.3283 24.9217 47.5281 24.923 46.7278 24.9252C46.111 24.9266 45.4942 24.9261 44.8773 24.9252C44.5823 24.9249 44.2873 24.9252 43.9922 24.9261C43.5794 24.9271 43.1667 24.9256 42.7538 24.9235C42.6328 24.9243 42.5117 24.925 42.387 24.9258C41.372 24.9164 40.4988 24.7061 39.7497 23.9793C38.9434 23.0894 38.9599 21.9815 38.9699 20.8464C38.9716 20.5712 38.9673 20.2964 38.9626 20.0212C38.9569 18.9932 39.0323 18.1043 39.6669 17.25C40.6189 16.3141 41.6722 16.2122 42.954 16.2157ZM41.6669 19.125C41.6301 19.4383 41.6301 19.4383 41.6381 19.8013C41.6384 19.9352 41.6386 20.0692 41.6389 20.2073C41.6404 20.3477 41.6419 20.4881 41.6435 20.6328C41.6436 20.7737 41.6437 20.9146 41.6437 21.0598C41.5858 21.6996 41.5858 21.6996 41.7919 22.25C42.187 22.2626 42.5794 22.267 42.9745 22.2662C43.0987 22.2664 43.2229 22.2666 43.3508 22.2668C43.7635 22.2674 44.1761 22.267 44.5888 22.2666C44.8742 22.2667 45.1596 22.2668 45.4449 22.267C46.0439 22.2671 46.6429 22.2669 47.2419 22.2663C48.0116 22.2656 48.7813 22.266 49.551 22.2667C50.1405 22.2672 50.7301 22.267 51.3196 22.2667C51.6035 22.2666 51.8874 22.2667 52.1713 22.267C52.5673 22.2673 52.9633 22.2669 53.3593 22.2662C53.5372 22.2665 53.5372 22.2665 53.7186 22.2669C54.2334 22.3181 54.2334 22.3181 54.6669 22.125C54.6778 21.8933 54.6803 21.6612 54.6791 21.4292C54.6787 21.2886 54.6783 21.148 54.6779 21.0032C54.6769 20.8552 54.6758 20.7072 54.6747 20.5547C54.6742 20.4062 54.6736 20.2577 54.673 20.1047C54.6716 19.7365 54.6695 19.3682 54.6669 19C54.3833 18.8582 54.2288 18.859 53.914 18.8583C53.8088 18.8577 53.7037 18.8572 53.5953 18.8567C53.4797 18.8567 53.3641 18.8568 53.2451 18.8568C53.1235 18.8564 53.0019 18.856 52.8767 18.8556C52.4734 18.8544 52.0702 18.8541 51.6669 18.854C51.3876 18.8536 51.1083 18.8532 50.829 18.8527C50.2431 18.852 49.6572 18.8518 49.0712 18.8518C48.3188 18.8518 47.5663 18.8501 46.8139 18.848C46.237 18.8466 45.6601 18.8463 45.0832 18.8464C44.8057 18.8463 44.5282 18.8457 44.2507 18.8447C43.8634 18.8435 43.4761 18.8439 43.0888 18.8446C42.9732 18.8439 42.8576 18.8432 42.7385 18.8425C42.6334 18.843 42.5282 18.8435 42.4199 18.8441C42.3282 18.844 42.2366 18.844 42.1422 18.8439C41.8854 18.8563 41.8854 18.8563 41.6669 19.125Z" fill="#0B63E5"/>
<path d="M40.4533 34.1066C40.5937 34.1057 40.734 34.1048 40.8787 34.1038C41.1108 34.1033 41.1108 34.1033 41.3476 34.1028C41.51 34.102 41.6724 34.1012 41.8397 34.1003C42.286 34.0982 42.7323 34.0968 43.1786 34.0958C43.4574 34.0952 43.7362 34.0944 44.015 34.0936C44.8871 34.0912 45.7592 34.0895 46.6313 34.0884C47.6383 34.0872 48.6452 34.0839 49.6522 34.0789C50.4303 34.0751 51.2084 34.0732 51.9866 34.0728C52.4514 34.0725 52.9162 34.0714 53.3811 34.0683C53.8997 34.0648 54.4183 34.0653 54.9369 34.0662C55.1679 34.0638 55.1679 34.0638 55.4036 34.0614C55.545 34.0622 55.6864 34.0631 55.8322 34.064C55.9548 34.0637 56.0774 34.0634 56.2037 34.0631C56.6382 34.1427 56.8494 34.3241 57.1665 34.625C57.4005 35.0929 57.3475 35.6679 57.2134 36.164C56.8824 36.5702 56.483 36.7295 55.9652 36.7848C55.5512 36.7988 55.1388 36.8006 54.7246 36.7985C54.567 36.7991 54.4094 36.7998 54.247 36.8005C53.8162 36.8022 53.3855 36.8015 52.9547 36.8003C52.5032 36.7994 52.0518 36.8003 51.6003 36.8008C50.8424 36.8015 50.0845 36.8006 49.3265 36.7988C48.4509 36.7968 47.5753 36.7975 46.6996 36.7995C45.947 36.8012 45.1943 36.8015 44.4416 36.8005C43.9925 36.7999 43.5433 36.7998 43.0941 36.8011C42.5935 36.8023 42.0929 36.8006 41.5923 36.7985C41.4438 36.7992 41.2952 36.8 41.1422 36.8008C40.9375 36.7992 40.9375 36.7992 40.7286 36.7976C40.5511 36.7974 40.5511 36.7974 40.3701 36.7971C39.8782 36.7265 39.549 36.4982 39.19 36.164C38.972 35.7395 38.9564 35.3361 39.0415 34.875C39.452 34.2319 39.7143 34.1098 40.4533 34.1066Z" fill="#0B63E5"/>
<path d="M40.7034 28.1076C40.8397 28.1069 40.9761 28.1062 41.1166 28.1055C41.2662 28.1053 41.4158 28.1052 41.57 28.1051C41.7275 28.1044 41.885 28.1038 42.0474 28.1032C42.4797 28.1015 42.912 28.1007 43.3444 28.1002C43.6145 28.0998 43.8847 28.0993 44.1548 28.0987C45.0001 28.097 45.8454 28.0958 46.6907 28.0953C47.6663 28.0948 48.6419 28.0926 49.6175 28.089C50.3717 28.0863 51.126 28.085 51.8803 28.0848C52.3307 28.0847 52.7811 28.084 53.2316 28.0817C53.734 28.0793 54.2364 28.0798 54.7389 28.0806C54.888 28.0795 55.0371 28.0783 55.1908 28.0772C55.3278 28.0779 55.4649 28.0785 55.6061 28.0793C55.7248 28.0791 55.8436 28.0789 55.966 28.0787C56.4589 28.1482 56.7876 28.3764 57.1472 28.7111C57.3652 29.1357 57.3807 29.539 57.2956 30.0002C57.0714 30.3515 56.9183 30.5639 56.5456 30.7502C56.3253 30.7629 56.1045 30.7676 55.8838 30.7686C55.7435 30.7695 55.6031 30.7704 55.4585 30.7713C55.2263 30.7718 55.2263 30.7718 54.9895 30.7723C54.8271 30.7731 54.6647 30.774 54.4974 30.7748C54.0511 30.777 53.6048 30.7783 53.1585 30.7793C52.8797 30.78 52.601 30.7807 52.3222 30.7815C51.4501 30.7839 50.5779 30.7857 49.7058 30.7867C48.6988 30.788 47.6919 30.7912 46.685 30.7963C45.9068 30.8001 45.1287 30.8019 44.3505 30.8023C43.8857 30.8026 43.4209 30.8037 42.9561 30.8069C42.4374 30.8103 41.9188 30.8098 41.4002 30.8089C41.1692 30.8113 41.1692 30.8113 40.9336 30.8138C40.7921 30.8129 40.6507 30.8121 40.505 30.8112C40.3824 30.8115 40.2597 30.8118 40.1334 30.8121C39.6989 30.7325 39.4878 30.5511 39.1706 30.2502C38.9687 29.8463 38.9719 29.4368 39.0456 29.0002C39.4439 28.282 39.9154 28.1101 40.7034 28.1076Z" fill="#0B63E5"/>
<path d="M40.6162 39.9805C40.7896 39.9787 40.7896 39.9787 40.9665 39.9769C41.0911 39.9763 41.2157 39.9758 41.3441 39.9753C41.4725 39.9745 41.6008 39.9738 41.7331 39.9731C42.0048 39.9719 42.2766 39.9711 42.5483 39.9706C42.9636 39.9694 43.3789 39.9655 43.7943 39.9616C44.0583 39.9608 44.3223 39.9601 44.5863 39.9596C44.7104 39.9581 44.8345 39.9565 44.9623 39.955C46.0441 39.9584 46.0441 39.9584 46.5443 40.3756C46.8146 40.7205 46.9117 40.9401 46.9661 41.3756C46.9122 41.8069 46.8103 42.0336 46.5443 42.3756C46.1636 42.6132 45.8687 42.658 45.4237 42.662C45.2391 42.6643 45.2391 42.6643 45.0507 42.6668C44.9186 42.6671 44.7864 42.6673 44.6502 42.6676C44.5137 42.6685 44.3772 42.6693 44.2365 42.6702C43.9478 42.6714 43.6592 42.672 43.3706 42.672C42.9291 42.6725 42.4879 42.6771 42.0465 42.6818C41.7659 42.6825 41.4854 42.683 41.2049 42.6833C41.007 42.686 41.007 42.686 40.8052 42.6887C39.8889 42.683 39.8889 42.683 39.4014 42.3877C39.042 41.982 38.9949 41.6835 38.9998 41.1388C39.0792 40.6687 39.3288 40.4503 39.6693 40.1256C40.0239 40.0074 40.2483 39.9836 40.6162 39.9805Z" fill="#0B63E5"/>
<path d="M51.0999 39.9805C51.2125 39.9793 51.3252 39.9781 51.4413 39.9769C51.5628 39.9763 51.6843 39.9758 51.8094 39.9753C51.9974 39.9742 51.9974 39.9742 52.1892 39.9731C52.4545 39.9719 52.7198 39.9711 52.9851 39.9706C53.39 39.9694 53.7949 39.9655 54.1998 39.9616C54.4577 39.9608 54.7156 39.9601 54.9735 39.9596C55.0942 39.9581 55.2149 39.9565 55.3393 39.955C56.0018 39.9571 56.4692 40.002 57.0414 40.3756C57.3419 40.7445 57.3428 41.162 57.3324 41.6295C57.2675 42.0185 57.0682 42.232 56.7914 42.5006C56.4901 42.6513 56.2972 42.6431 55.9606 42.6458C55.7798 42.6476 55.7798 42.6476 55.5952 42.6494C55.4645 42.65 55.3338 42.6505 55.1991 42.651C54.9979 42.6521 54.9979 42.6521 54.7927 42.6532C54.5084 42.6544 54.2242 42.6552 53.9399 42.6557C53.5054 42.6569 53.0709 42.6608 52.6363 42.6647C52.3604 42.6655 52.0844 42.6662 51.8084 42.6667C51.6785 42.6682 51.5485 42.6697 51.4146 42.6713C50.2837 42.6679 50.2837 42.6679 49.7914 42.2506C49.4756 41.7948 49.5249 41.4204 49.598 40.8913C49.694 40.5184 49.855 40.3454 50.1664 40.1256C50.5173 40.0087 50.7364 39.9836 51.0999 39.9805Z" fill="#0B63E5"/>
<path d="M63.7328 27.7117C63.8295 27.7302 63.9261 27.7487 64.0258 27.7678C64.3744 27.9074 64.4869 28.0502 64.6703 28.3757C64.7749 28.8745 64.8079 29.3984 64.537 29.8459C64.2049 30.1617 63.8661 30.2946 63.4203 30.3288C62.9747 30.2946 62.6353 30.1626 62.3046 29.8454C62.0236 29.3858 62.056 28.8873 62.1703 28.3757C62.6224 27.777 62.9973 27.5584 63.7328 27.7117Z" fill="#0B63E5"/>
</g>
<defs>
<clipPath id="clip0_111_1526">
<rect width="64" height="64" fill="white" transform="translate(0.666992)"/>
</clipPath>
</defs>
</svg>
