<svg width="372" height="57" viewBox="0 0 372 57" fill="none" xmlns="http://www.w3.org/2000/svg">
<rect width="372" height="57" fill="white"/>
<rect width="47.4089" height="47.4089" transform="translate(0 6.1543)" fill="white"/>
<path d="M10.5137 47.6201V24.9838L23.808 11.7793L37.282 25.2533V47.6201H10.5137Z" stroke="#2F3245" stroke-width="2.87445" stroke-linejoin="round"/>
<path fill-rule="evenodd" clip-rule="evenodd" d="M22.7498 10.7292C23.3111 10.1679 24.2211 10.1679 24.7824 10.7292L41.8149 27.7616C42.1656 28.1124 42.1656 28.6812 41.8149 29.032L41.0527 29.7942C40.7019 30.145 40.1331 30.145 39.7823 29.7942L23.7661 13.778L7.7499 29.7942C7.3991 30.145 6.83036 30.145 6.47956 29.7942L5.71736 29.032C5.36656 28.6812 5.36656 28.1124 5.71736 27.7616L22.7498 10.7292Z" fill="#2F3245"/>
<path d="M9.03613 18.3368C9.03613 18.0392 9.27743 17.7979 9.57509 17.7979H11.3716C11.6693 17.7979 11.9106 18.0392 11.9106 18.3368V23.047C11.9106 23.1929 11.8515 23.3325 11.7468 23.434L9.95024 25.1757C9.60838 25.5071 9.03613 25.2649 9.03613 24.7887V18.3368Z" fill="#2F3245"/>
<path d="M24.2037 23.7256V31.579L23.5132 42.3142C23.5132 42.3142 24.3393 43.0132 25.4197 42.1871C26.5001 41.3609 26.4365 40.6619 25.6739 39.3908C24.7427 37.8388 24.5051 36.9301 24.5758 35.403L25.2046 35.0437C25.3009 35.6255 26.1927 36.6582 28.0888 37.8021C28.8792 38.2789 30.1302 38.4846 30.758 38.4376C31.6222 38.3729 32.11 38.1592 32.2832 37.9927C33.9355 36.404 32.7732 34.8755 32.2917 34.7785C31.3935 34.7516 31.0767 35.3358 30.5038 35.403C28.1972 35.6737 26.5783 34.342 26.1927 33.876L26.1029 33.1574C26.3917 33.3513 28.4413 33.1531 30.0589 31.9896C32.0809 30.5353 32.676 29.2521 31.5206 27.216C30.6959 25.7628 29.9639 26.3624 29.5421 26.9905C29.4445 27.1359 29.3942 27.3053 29.3524 27.4754C28.956 29.0866 27.0143 31.2543 26.1927 31.9896L25.5639 31.1812C27.6437 27.4581 25.648 24.5012 24.2037 23.7256Z" fill="#18B072"/>
<path fill-rule="evenodd" clip-rule="evenodd" d="M24.208 23.7256V30.8518H23.4633C23.3825 30.8518 23.3052 30.8182 23.2502 30.7589L21.5593 28.9379C21.4854 28.8584 21.4376 28.7582 21.4223 28.6508L21.4121 28.5792C21.3608 28.2202 21.7053 27.9327 22.0493 28.0474C22.1304 28.0744 22.2029 28.1222 22.2597 28.1861L23.3365 29.3975V27.5069L21.6503 25.6801C21.6113 25.6379 21.5804 25.5889 21.559 25.5355L21.5535 25.5218C21.4323 25.2187 21.6555 24.8891 21.9819 24.8891C22.1043 24.8891 22.2216 24.9377 22.3082 25.0242L23.3365 26.0525V24.5971C23.3365 24.1158 23.7267 23.7256 24.208 23.7256ZM22.5894 34.8094L17.5504 39.8484C17.3232 39.6213 17.3232 39.2529 17.5504 39.0257L18.7844 37.7917H17.3302C17.2078 37.7917 17.0904 37.7431 17.0039 37.6566C16.7731 37.4257 16.8484 37.0348 17.1484 36.9062L17.162 36.9004C17.2148 36.8778 17.2713 36.865 17.3288 36.8627L19.8128 36.7633L21.1497 35.4264L21.9724 34.6037C22.086 34.4902 22.2702 34.4902 22.3837 34.6037L22.5894 34.8094ZM22.5907 34.8089L17.5517 39.8479C17.7789 40.0751 18.1472 40.0751 18.3744 39.8479L19.6084 38.6138V40.0681C19.6084 40.1905 19.657 40.3079 19.7436 40.3944C19.9744 40.6252 20.3653 40.5499 20.4939 40.2499L20.4997 40.2363C20.5224 40.1835 20.5352 40.127 20.5374 40.0695L20.6368 37.5855L21.9737 36.2486L22.5907 35.6509L22.8057 35.4258C22.9149 35.3115 22.9128 35.131 22.8011 35.0192L22.5907 34.8089ZM17.4691 26.5843L22.5081 31.6233L22.7138 31.4176C22.8273 31.304 22.8273 31.1199 22.7138 31.0063L21.8911 30.1836L20.5542 28.8467L20.4548 26.3627C20.4525 26.3052 20.4397 26.2487 20.4171 26.1958L20.4113 26.1823C20.2827 25.8823 19.8918 25.807 19.6609 26.0378C19.5744 26.1243 19.5258 26.2417 19.5258 26.364L19.5258 27.8183L18.2918 26.5843C18.0646 26.3571 17.6962 26.3571 17.4691 26.5843ZM17.4678 26.5837L22.5068 31.6228L22.2964 31.8331C22.1847 31.9449 22.0042 31.9469 21.8899 31.8378L21.6647 31.6228L21.0671 31.0057L19.7302 29.6688L17.2462 29.5695C17.1887 29.5672 17.1322 29.5544 17.0793 29.5318L17.0658 29.526C16.7658 29.3974 16.6905 29.0064 16.9213 28.7756C17.0078 28.6891 17.1252 28.6405 17.2475 28.6405H18.7018L17.4678 27.4064C17.2406 27.1793 17.2406 26.8109 17.4678 26.5837ZM24.208 42.5614V35.65H23.4633C23.3825 35.65 23.3052 35.6837 23.2502 35.743L21.5593 37.564C21.4854 37.6435 21.4376 37.7436 21.4223 37.851L21.4121 37.9227C21.3608 38.2817 21.7053 38.5692 22.0493 38.4545C22.1304 38.4275 22.2029 38.3796 22.2597 38.3158L23.3365 37.1044V38.995L21.6503 40.8217C21.6113 40.864 21.5804 40.913 21.559 40.9664L21.5535 40.98C21.4323 41.2831 21.6555 41.6128 21.9819 41.6128C22.1043 41.6128 22.2216 41.5642 22.3082 41.4777L23.3365 40.4493V41.8787C23.3365 42.3352 23.7647 42.6707 24.208 42.5614ZM14.6133 33.0337V33.033C14.6136 32.712 14.8739 32.4519 15.195 32.4519H16.9402L15.9119 31.4236C15.8254 31.3371 15.7767 31.2197 15.7767 31.0973C15.7767 30.7709 16.1064 30.5477 16.4095 30.669L16.4232 30.6744C16.4766 30.6958 16.5256 30.7267 16.5678 30.7657L18.3946 32.4519H20.2852L19.0738 31.3751C19.0099 31.3183 18.9621 31.2458 18.935 31.1647C18.8204 30.8207 19.1078 30.4762 19.4669 30.5275L19.5385 30.5377C19.6459 30.5531 19.7461 30.6008 19.8256 30.6747L21.6466 32.3656C21.7058 32.4207 21.7395 32.4979 21.7395 32.5788V33.033V33.0337V33.4879C21.7395 33.5688 21.7058 33.6461 21.6466 33.7011L19.8256 35.392C19.7461 35.4659 19.6459 35.5136 19.5385 35.529L19.4669 35.5392C19.1078 35.5905 18.8204 35.246 18.935 34.902C18.9621 34.8209 19.0099 34.7484 19.0738 34.6916L20.2852 33.6148H18.3946L16.5678 35.301C16.5256 35.34 16.4766 35.3709 16.4232 35.3923L16.4095 35.3977C16.1064 35.519 15.7767 35.2958 15.7767 34.9694C15.7767 34.847 15.8254 34.7296 15.9119 34.6431L16.9402 33.6148H15.195C14.8739 33.6148 14.6136 33.3547 14.6133 33.0337Z" fill="#059BE9"/>
<circle cx="24.061" cy="33.1787" r="2.1815" fill="#059BE9" stroke="#F5F5F5" stroke-width="0.581734"/>
<path d="M72.0462 39.4442C72.0462 40.2725 71.8391 41.0318 71.425 41.7221C71.0108 42.4124 70.4586 42.9646 69.7683 43.3788C69.078 43.7929 68.3187 44 67.4904 44H60.8638C60.0354 44 59.2646 43.7929 58.5514 43.3788C57.8611 42.9646 57.3089 42.4124 56.8947 41.7221C56.4805 41.0318 56.2735 40.2725 56.2735 39.4442V38.4088C56.2735 37.9716 56.423 37.6035 56.7221 37.3043C57.0443 36.9822 57.4239 36.8212 57.8611 36.8212H58.8275C59.2416 36.8212 59.5983 36.9822 59.8974 37.3043C60.2195 37.6035 60.3806 37.9716 60.3806 38.4088V39.4442C60.3806 39.5592 60.4266 39.6743 60.5186 39.7893C60.6337 39.8814 60.7487 39.9274 60.8638 39.9274H67.4904C67.6054 39.9274 67.709 39.8814 67.801 39.7893C67.8931 39.6743 67.9391 39.5592 67.9391 39.4442V36.3035C67.9391 36.0504 67.824 35.8893 67.5939 35.8203L59.3107 32.714C58.3903 32.3919 57.654 31.8282 57.1018 31.0229C56.5496 30.2175 56.2735 29.3317 56.2735 28.3653V25.2591C56.2735 24.4077 56.4805 23.6369 56.8947 22.9467C57.3089 22.2564 57.8611 21.7042 58.5514 21.29C59.2646 20.8758 60.0354 20.6688 60.8638 20.6688H67.4904C68.3187 20.6688 69.078 20.8758 69.7683 21.29C70.4586 21.7042 71.0108 22.2564 71.425 22.9467C71.8391 23.6369 72.0462 24.4077 72.0462 25.2591V26.191C72.0462 26.6281 71.8851 26.9963 71.563 27.2954C71.2639 27.5945 70.8957 27.7441 70.4586 27.7441H69.5267C69.0895 27.7441 68.7099 27.5945 68.3878 27.2954C68.0886 26.9963 67.9391 26.6281 67.9391 26.191V25.2591C67.9391 24.937 67.7895 24.7759 67.4904 24.7759H60.8638C60.7487 24.7759 60.6337 24.8219 60.5186 24.9139C60.4266 25.006 60.3806 25.121 60.3806 25.2591V28.3653C60.3806 28.6414 60.4956 28.814 60.7257 28.883L69.0435 31.9892C69.9409 32.3114 70.6657 32.8751 71.2179 33.6804C71.7701 34.4857 72.0462 35.3601 72.0462 36.3035V39.4442ZM90.9273 23.1883C90.9273 23.6254 90.7778 24.0051 90.4787 24.3272C90.1795 24.6263 89.7999 24.7759 89.3397 24.7759H85.7158C85.4167 24.7759 85.2671 24.9254 85.2671 25.2246V42.4124C85.2671 42.8495 85.106 43.2292 84.7839 43.5513C84.4848 43.8504 84.1166 44 83.6795 44H82.7821C82.3449 44 81.9653 43.8504 81.6432 43.5513C81.344 43.2292 81.1945 42.8495 81.1945 42.4124V25.2246C81.1945 24.9254 81.0449 24.7759 80.7458 24.7759H77.0874C76.6502 24.7759 76.2705 24.6263 75.9484 24.3272C75.6493 24.0051 75.4997 23.6254 75.4997 23.1883V22.2564C75.4997 21.7962 75.6493 21.4166 75.9484 21.1174C76.2705 20.8183 76.6502 20.6688 77.0874 20.6688H89.3397C89.7999 20.6688 90.1795 20.8183 90.4787 21.1174C90.7778 21.4166 90.9273 21.7962 90.9273 22.2564V23.1883ZM109.37 42.4124C109.37 42.8495 109.209 43.2292 108.887 43.5513C108.588 43.8504 108.231 44 107.817 44H95.9445C95.5303 44 95.1622 43.8504 94.84 43.5513C94.5409 43.2292 94.3914 42.8495 94.3914 42.4124V22.2564C94.3914 21.7962 94.5409 21.4166 94.84 21.1174C95.1622 20.8183 95.5303 20.6688 95.9445 20.6688H107.817C108.231 20.6688 108.588 20.8183 108.887 21.1174C109.209 21.4166 109.37 21.7962 109.37 22.2564V23.1883C109.37 23.6254 109.209 24.0051 108.887 24.3272C108.588 24.6263 108.231 24.7759 107.817 24.7759H98.9127C98.6365 24.7759 98.4985 24.9254 98.4985 25.2246V29.8149C98.4985 30.137 98.6365 30.2981 98.9127 30.2981H106.575C107.035 30.2981 107.415 30.4476 107.714 30.7468C108.013 31.0459 108.162 31.414 108.162 31.8512V32.8176C108.162 33.2547 108.013 33.6344 107.714 33.9565C107.415 34.2556 107.035 34.4052 106.575 34.4052H98.9127C98.6365 34.4052 98.4985 34.5433 98.4985 34.8194V39.4787C98.4985 39.7778 98.6365 39.9274 98.9127 39.9274H107.817C108.231 39.9274 108.588 40.0769 108.887 40.3761C109.209 40.6752 109.37 41.0548 109.37 41.515V42.4124ZM128.445 41.8256C128.675 42.3548 128.641 42.838 128.341 43.2752C127.996 43.7584 127.559 44 127.03 44H125.995C125.695 44 125.396 43.908 125.097 43.7239C124.821 43.5398 124.626 43.3097 124.51 43.0336L121.266 35.268C121.151 34.9919 120.944 34.8539 120.645 34.8539H117.435C117.136 34.8539 116.986 35.0034 116.986 35.3026V42.4124C116.986 42.8495 116.825 43.2292 116.503 43.5513C116.204 43.8504 115.836 44 115.399 44H114.432C113.995 44 113.627 43.8504 113.328 43.5513C113.052 43.2292 112.914 42.8495 112.914 42.4124V22.2564C112.914 21.7962 113.052 21.4166 113.328 21.1174C113.627 20.8183 113.995 20.6688 114.432 20.6688H123.786C124.614 20.6688 125.373 20.8758 126.064 21.29C126.754 21.7042 127.306 22.2564 127.72 22.9467C128.134 23.6369 128.341 24.4077 128.341 25.2591V30.2981C128.341 31.1954 128.1 32.0123 127.617 32.7485C127.157 33.4618 126.547 34.014 125.787 34.4052C125.695 34.4282 125.626 34.5087 125.58 34.6468C125.534 34.7618 125.546 34.8769 125.615 34.9919L128.445 41.8256ZM124.234 30.2981V25.2591C124.234 24.937 124.085 24.7759 123.786 24.7759H117.435C117.136 24.7759 116.986 24.9254 116.986 25.2246V30.2981C116.986 30.5972 117.136 30.7468 117.435 30.7468H123.786C124.085 30.7468 124.234 30.5972 124.234 30.2981ZM143.115 35.5442C143.115 35.9813 142.966 36.361 142.667 36.6831C142.368 36.9822 142 37.1318 141.562 37.1318H133.693C133.256 37.1318 132.888 36.9822 132.589 36.6831C132.29 36.361 132.14 35.9813 132.14 35.5442V34.5778C132.14 34.1406 132.29 33.784 132.589 33.5078C132.888 33.2087 133.256 33.0592 133.693 33.0592H141.562C142 33.0592 142.368 33.2087 142.667 33.5078C142.966 33.784 143.115 34.1406 143.115 34.5778V35.5442ZM150.756 42.4124C150.756 42.8495 150.595 43.2292 150.273 43.5513C149.974 43.8504 149.606 44 149.169 44H148.237C147.8 44 147.42 43.8504 147.098 43.5513C146.799 43.2292 146.649 42.8495 146.649 42.4124V22.2564C146.649 21.7962 146.799 21.4166 147.098 21.1174C147.42 20.8183 147.8 20.6688 148.237 20.6688H149.169C149.606 20.6688 149.974 20.8183 150.273 21.1174C150.595 21.4166 150.756 21.7962 150.756 22.2564V42.4124ZM170.056 42.4124C170.056 42.8495 169.894 43.2292 169.572 43.5513C169.273 43.8504 168.905 44 168.468 44H167.467C166.846 44 166.386 43.7354 166.086 43.2062L158.735 30.4706C158.689 30.3786 158.62 30.3556 158.528 30.4016C158.436 30.4246 158.39 30.4706 158.39 30.5397V42.4124C158.39 42.8495 158.229 43.2292 157.907 43.5513C157.608 43.8504 157.251 44 156.837 44H155.87C155.433 44 155.054 43.8504 154.731 43.5513C154.432 43.2292 154.283 42.8495 154.283 42.4124V22.2564C154.283 21.7962 154.432 21.4166 154.731 21.1174C155.054 20.8183 155.433 20.6688 155.87 20.6688H156.871C157.493 20.6688 157.953 20.9334 158.252 21.4626L165.603 34.1981C165.672 34.2902 165.741 34.3247 165.81 34.3017C165.902 34.2787 165.948 34.2211 165.948 34.1291V22.2564C165.948 21.7962 166.098 21.4166 166.397 21.1174C166.719 20.8183 167.099 20.6688 167.536 20.6688H168.468C168.905 20.6688 169.273 20.8183 169.572 21.1174C169.894 21.4166 170.056 21.7962 170.056 22.2564V42.4124ZM189.351 39.4442C189.351 40.2725 189.144 41.0318 188.73 41.7221C188.315 42.4124 187.763 42.9646 187.073 43.3788C186.383 43.7929 185.623 44 184.795 44H178.168C177.34 44 176.569 43.7929 175.856 43.3788C175.166 42.9646 174.614 42.4124 174.199 41.7221C173.785 41.0318 173.578 40.2725 173.578 39.4442V38.4088C173.578 37.9716 173.728 37.6035 174.027 37.3043C174.349 36.9822 174.729 36.8212 175.166 36.8212H176.132C176.546 36.8212 176.903 36.9822 177.202 37.3043C177.524 37.6035 177.685 37.9716 177.685 38.4088V39.4442C177.685 39.5592 177.731 39.6743 177.823 39.7893C177.938 39.8814 178.053 39.9274 178.168 39.9274H184.795C184.91 39.9274 185.014 39.8814 185.106 39.7893C185.198 39.6743 185.244 39.5592 185.244 39.4442V36.3035C185.244 36.0504 185.129 35.8893 184.899 35.8203L176.615 32.714C175.695 32.3919 174.959 31.8282 174.406 31.0229C173.854 30.2175 173.578 29.3317 173.578 28.3653V25.2591C173.578 24.4077 173.785 23.6369 174.199 22.9467C174.614 22.2564 175.166 21.7042 175.856 21.29C176.569 20.8758 177.34 20.6688 178.168 20.6688H184.795C185.623 20.6688 186.383 20.8758 187.073 21.29C187.763 21.7042 188.315 22.2564 188.73 22.9467C189.144 23.6369 189.351 24.4077 189.351 25.2591V26.191C189.351 26.6281 189.19 26.9963 188.868 27.2954C188.569 27.5945 188.2 27.7441 187.763 27.7441H186.831C186.394 27.7441 186.015 27.5945 185.692 27.2954C185.393 26.9963 185.244 26.6281 185.244 26.191V25.2591C185.244 24.937 185.094 24.7759 184.795 24.7759H178.168C178.053 24.7759 177.938 24.8219 177.823 24.9139C177.731 25.006 177.685 25.121 177.685 25.2591V28.3653C177.685 28.6414 177.8 28.814 178.03 28.883L186.348 31.9892C187.246 32.3114 187.97 32.8751 188.523 33.6804C189.075 34.4857 189.351 35.3601 189.351 36.3035V39.4442ZM208.232 23.1883C208.232 23.6254 208.082 24.0051 207.783 24.3272C207.484 24.6263 207.105 24.7759 206.644 24.7759H203.02C202.721 24.7759 202.572 24.9254 202.572 25.2246V42.4124C202.572 42.8495 202.411 43.2292 202.089 43.5513C201.789 43.8504 201.421 44 200.984 44H200.087C199.65 44 199.27 43.8504 198.948 43.5513C198.649 43.2292 198.499 42.8495 198.499 42.4124V25.2246C198.499 24.9254 198.35 24.7759 198.05 24.7759H194.392C193.955 24.7759 193.575 24.6263 193.253 24.3272C192.954 24.0051 192.804 23.6254 192.804 23.1883V22.2564C192.804 21.7962 192.954 21.4166 193.253 21.1174C193.575 20.8183 193.955 20.6688 194.392 20.6688H206.644C207.105 20.6688 207.484 20.8183 207.783 21.1174C208.082 21.4166 208.232 21.7962 208.232 22.2564V23.1883ZM226.102 41.9292C226.24 42.4584 226.159 42.9416 225.86 43.3788C225.561 43.7929 225.135 44 224.583 44H223.582C223.26 44 222.949 43.8965 222.65 43.6894C222.374 43.4823 222.179 43.2292 222.064 42.9301L220.752 38.961C220.66 38.6619 220.464 38.5123 220.165 38.5123H214.264C213.964 38.5123 213.769 38.6619 213.677 38.961L212.365 42.9301C212.25 43.2292 212.055 43.4823 211.779 43.6894C211.502 43.8965 211.192 44 210.847 44H209.846C209.294 44 208.868 43.7929 208.569 43.3788C208.247 42.9186 208.178 42.4354 208.362 41.9292L215.057 21.7387C215.172 21.4166 215.356 21.1635 215.61 20.9794C215.886 20.7723 216.185 20.6688 216.507 20.6688H217.922C218.244 20.6688 218.543 20.7723 218.819 20.9794C219.095 21.1635 219.28 21.4166 219.372 21.7387L226.102 41.9292ZM219.13 33.991L217.404 28.7104C217.289 28.5494 217.163 28.5494 217.025 28.7104L215.299 33.991C215.253 34.1061 215.264 34.2096 215.333 34.3017C215.402 34.3937 215.495 34.4397 215.61 34.4397H218.819C218.934 34.4397 219.026 34.3937 219.095 34.3017C219.164 34.2096 219.176 34.1061 219.13 33.991ZM244.588 42.4124C244.588 42.8495 244.427 43.2292 244.105 43.5513C243.806 43.8504 243.449 44 243.035 44H231.163C230.748 44 230.38 43.8504 230.058 43.5513C229.759 43.2292 229.609 42.8495 229.609 42.4124V22.2564C229.609 21.7962 229.759 21.4166 230.058 21.1174C230.38 20.8183 230.748 20.6688 231.163 20.6688H232.129C232.566 20.6688 232.934 20.8183 233.233 21.1174C233.555 21.4166 233.717 21.7962 233.717 22.2564V39.4787C233.717 39.7778 233.855 39.9274 234.131 39.9274H243.035C243.449 39.9274 243.806 40.0769 244.105 40.3761C244.427 40.6752 244.588 41.0548 244.588 41.515V42.4124Z" fill="#2F3245"/>
</svg>
