<svg width="164" height="43" viewBox="0 0 164 43" fill="none" xmlns="http://www.w3.org/2000/svg">
<path d="M9.11719 35.9535V16.3264L20.6442 4.87726L32.327 16.56V35.9535H9.11719Z" stroke="#2F3245" stroke-width="2.49233" stroke-linejoin="round"/>
<path fill-rule="evenodd" clip-rule="evenodd" d="M19.7253 3.96687C20.2119 3.48021 21.001 3.48021 21.4876 3.96687L36.2558 18.7351C36.56 19.0392 36.56 19.5324 36.2558 19.8365L35.595 20.4974C35.2908 20.8016 34.7977 20.8016 34.4935 20.4974L20.6064 6.61038L6.71938 20.4974C6.41522 20.8016 5.92208 20.8016 5.61792 20.4974L4.95704 19.8366C4.65288 19.5324 4.65288 19.0393 4.95704 18.7351L19.7253 3.96687Z" fill="#2F3245"/>
<path d="M7.83398 10.5628C7.83398 10.3047 8.04321 10.0955 8.3013 10.0955H9.859C10.1171 10.0955 10.3263 10.3047 10.3263 10.5628V14.6468C10.3263 14.7733 10.2751 14.8943 10.1843 14.9823L8.62657 16.4925C8.33016 16.7799 7.83398 16.5698 7.83398 16.157V10.5628Z" fill="#2F3245"/>
<path d="M20.9854 15.2358V22.0452L20.3867 31.3533C20.3867 31.3533 21.1031 31.9594 22.0398 31.243C22.9765 30.5267 22.9214 29.9206 22.2602 28.8185C21.4528 27.4728 21.2468 26.6849 21.3081 25.3609L21.8533 25.0493C21.9368 25.5537 22.71 26.4491 24.3541 27.441C25.0394 27.8544 26.1241 28.0327 26.6684 27.992C27.4177 27.9359 27.8407 27.7506 27.9909 27.6063C29.4235 26.2287 28.4157 24.9034 27.9983 24.8194C27.2194 24.7961 26.9448 25.3026 26.448 25.3609C24.4481 25.5956 23.0444 24.4408 22.71 24.0368L22.6321 23.4137C22.8826 23.5819 24.6597 23.41 26.0623 22.4012C27.8155 21.1402 28.3315 20.0276 27.3296 18.2622C26.6146 17.0022 25.9799 17.522 25.6142 18.0667C25.5295 18.1927 25.4859 18.3396 25.4497 18.4871C25.106 19.8841 23.4224 21.7636 22.71 22.4012L22.1648 21.7003C23.9681 18.4721 22.2377 15.9083 20.9854 15.2358Z" fill="#18B072"/>
<path fill-rule="evenodd" clip-rule="evenodd" d="M20.988 15.2364V21.4153H20.3423C20.2722 21.4153 20.2052 21.3861 20.1575 21.3347L18.6913 19.7558C18.6273 19.6868 18.5859 19.6 18.5726 19.5069L18.5637 19.4448C18.5192 19.1335 18.8179 18.8842 19.1162 18.9836C19.1865 19.0071 19.2494 19.0485 19.2986 19.1039L20.2323 20.1543V18.515L18.7703 16.9311C18.7364 16.8945 18.7096 16.852 18.6911 16.8057L18.6864 16.7938C18.5813 16.531 18.7748 16.2452 19.0578 16.2452C19.1639 16.2452 19.2657 16.2873 19.3407 16.3624L20.2323 17.254V15.992C20.2323 15.5747 20.5706 15.2364 20.988 15.2364ZM19.5844 24.8473L15.2153 29.2165C15.0183 29.0195 15.0183 28.7001 15.2153 28.5031L16.2853 27.4331H15.0243C14.9182 27.4331 14.8165 27.391 14.7414 27.316C14.5413 27.1158 14.6066 26.7769 14.8667 26.6654L14.8785 26.6603C14.9243 26.6407 14.9733 26.6296 15.0231 26.6276L17.1769 26.5415L18.3361 25.3823L19.0494 24.669C19.1479 24.5705 19.3076 24.5705 19.4061 24.669L19.5844 24.8473ZM19.5849 24.8472L15.2157 29.2164C15.4127 29.4134 15.7321 29.4134 15.9291 29.2164L16.9991 28.1464L16.9991 29.4073C16.9991 29.5134 17.0412 29.6152 17.1162 29.6902C17.3164 29.8904 17.6553 29.8251 17.7668 29.5649L17.7719 29.5532C17.7915 29.5074 17.8026 29.4583 17.8046 29.4085L17.8907 27.2547L19.0499 26.0956L19.5849 25.5774L19.7713 25.3821C19.866 25.2831 19.8642 25.1265 19.7673 25.0296L19.5849 24.8472ZM15.1459 17.7158L19.5151 22.0849L19.6934 21.9066C19.7919 21.8081 19.7919 21.6484 19.6934 21.5499L18.9801 20.8366L17.8209 19.6775L17.7347 17.5237C17.7328 17.4738 17.7217 17.4248 17.702 17.379L17.697 17.3673C17.5855 17.1071 17.2465 17.0418 17.0464 17.242C16.9714 17.317 16.9292 17.4187 16.9292 17.5248V18.7858L15.8592 17.7158C15.6623 17.5188 15.3429 17.5188 15.1459 17.7158ZM15.1454 17.7157L19.5146 22.0849L19.3322 22.2673C19.2353 22.3642 19.0788 22.366 18.9797 22.2713L18.7845 22.0849L18.2663 21.5499L17.1071 20.3907L14.9533 20.3046C14.9035 20.3026 14.8544 20.2915 14.8086 20.2719L14.7969 20.2668C14.5367 20.1553 14.4715 19.8164 14.6716 19.6162C14.7466 19.5412 14.8484 19.4991 14.9545 19.4991L16.2154 19.4991L15.1454 18.4291C14.9485 18.2321 14.9485 17.9127 15.1454 17.7157ZM20.988 31.569V25.5764H20.3423C20.2722 25.5764 20.2052 25.6056 20.1575 25.657L18.6913 27.2359C18.6273 27.3049 18.5859 27.3917 18.5726 27.4849L18.5637 27.5469C18.5192 27.8582 18.8179 28.1075 19.1162 28.0081C19.1865 27.9847 19.2494 27.9432 19.2986 27.8878L20.2323 26.8374V28.4767L18.7703 30.0606C18.7364 30.0972 18.7096 30.1397 18.6911 30.186L18.6864 30.1979C18.5813 30.4607 18.7748 30.7465 19.0578 30.7465C19.1639 30.7465 19.2657 30.7044 19.3407 30.6293L20.2323 29.7377V30.9771C20.2323 31.3729 20.6036 31.6638 20.988 31.569ZM12.6675 23.3062H18.8464V22.9118C18.8464 22.8417 18.8172 22.7747 18.7658 22.727L17.1869 21.2608C17.1179 21.1968 17.0311 21.1554 16.9379 21.1421L16.8759 21.1332C16.5646 21.0887 16.3153 21.3874 16.4147 21.6857C16.4381 21.756 16.4796 21.8189 16.535 21.8681L17.5854 22.8018H15.9461L14.3622 21.3398C14.3256 21.306 14.2831 21.2791 14.2368 21.2606L14.2249 21.2559C13.9621 21.1508 13.6763 21.3443 13.6763 21.6273C13.6763 21.7334 13.7184 21.8352 13.7935 21.9102L14.6851 22.8018H13.1719C12.8933 22.8018 12.6675 23.0276 12.6675 23.3062ZM12.6675 23.3064L18.8464 23.3064V23.7008C18.8464 23.7709 18.8172 23.8379 18.7658 23.8856L17.1869 25.3518C17.1179 25.4158 17.0311 25.4572 16.9379 25.4705L16.8759 25.4794C16.5646 25.5239 16.3153 25.2252 16.4147 24.9269C16.4381 24.8566 16.4796 24.7937 16.535 24.7445L17.5854 23.8108H15.9461L14.3622 25.2728C14.3256 25.3067 14.2831 25.3335 14.2368 25.352L14.2249 25.3567C13.9621 25.4619 13.6763 25.2683 13.6763 24.9853C13.6763 24.8792 13.7184 24.7774 13.7935 24.7024L14.6851 23.8108H13.1719C12.8933 23.8108 12.6675 23.585 12.6675 23.3064Z" fill="#059BE9"/>
<circle cx="20.861" cy="23.4323" r="1.8915" fill="#059BE9" stroke="#F5F5F5" stroke-width="0.5044"/>
<path d="M57.9526 27.362C57.9526 27.8416 57.8327 28.2813 57.5929 28.681C57.3531 29.0807 57.0333 29.4004 56.6336 29.6403C56.2339 29.8801 55.7942 30 55.3146 30H51.4774C50.9978 30 50.5514 29.8801 50.1384 29.6403C49.7387 29.4004 49.4189 29.0807 49.1791 28.681C48.9393 28.2813 48.8194 27.8416 48.8194 27.362V26.7624C48.8194 26.5093 48.906 26.2961 49.0792 26.1229C49.2657 25.9364 49.4856 25.8431 49.7387 25.8431H50.2983C50.5381 25.8431 50.7446 25.9364 50.9178 26.1229C51.1044 26.2961 51.1976 26.5093 51.1976 26.7624V27.362C51.1976 27.4286 51.2243 27.4952 51.2776 27.5618C51.3442 27.6151 51.4108 27.6418 51.4774 27.6418H55.3146C55.3812 27.6418 55.4411 27.6151 55.4944 27.5618C55.5477 27.4952 55.5744 27.4286 55.5744 27.362V25.5433C55.5744 25.3968 55.5078 25.3035 55.3745 25.2635L50.5781 23.4649C50.0451 23.2783 49.6188 22.9519 49.299 22.4856C48.9793 22.0193 48.8194 21.5063 48.8194 20.9467V19.1481C48.8194 18.6551 48.9393 18.2088 49.1791 17.8091C49.4189 17.4093 49.7387 17.0896 50.1384 16.8498C50.5514 16.6099 50.9978 16.49 51.4774 16.49H55.3146C55.7942 16.49 56.2339 16.6099 56.6336 16.8498C57.0333 17.0896 57.3531 17.4093 57.5929 17.8091C57.8327 18.2088 57.9526 18.6551 57.9526 19.1481V19.6877C57.9526 19.9408 57.8593 20.154 57.6728 20.3272C57.4996 20.5004 57.2864 20.587 57.0333 20.587H56.4937C56.2405 20.587 56.0207 20.5004 55.8342 20.3272C55.661 20.154 55.5744 19.9408 55.5744 19.6877V19.1481C55.5744 18.9615 55.4878 18.8683 55.3146 18.8683H51.4774C51.4108 18.8683 51.3442 18.8949 51.2776 18.9482C51.2243 19.0015 51.1976 19.0681 51.1976 19.1481V20.9467C51.1976 21.1066 51.2642 21.2065 51.3975 21.2465L56.2139 23.0452C56.7335 23.2317 57.1532 23.5581 57.473 24.0244C57.7927 24.4908 57.9526 24.997 57.9526 25.5433V27.362ZM68.8857 17.9489C68.8857 18.2021 68.7991 18.4219 68.6259 18.6085C68.4527 18.7817 68.2329 18.8683 67.9664 18.8683H65.868C65.6948 18.8683 65.6082 18.9549 65.6082 19.1281V29.0807C65.6082 29.3338 65.5149 29.5537 65.3284 29.7402C65.1552 29.9134 64.942 30 64.6889 30H64.1692C63.9161 30 63.6963 29.9134 63.5097 29.7402C63.3365 29.5537 63.2499 29.3338 63.2499 29.0807V19.1281C63.2499 18.9549 63.1633 18.8683 62.9901 18.8683H60.8717C60.6185 18.8683 60.3987 18.7817 60.2122 18.6085C60.039 18.4219 59.9524 18.2021 59.9524 17.9489V17.4093C59.9524 17.1429 60.039 16.923 60.2122 16.7498C60.3987 16.5766 60.6185 16.49 60.8717 16.49H67.9664C68.2329 16.49 68.4527 16.5766 68.6259 16.7498C68.7991 16.923 68.8857 17.1429 68.8857 17.4093V17.9489ZM79.5652 29.0807C79.5652 29.3338 79.4719 29.5537 79.2854 29.7402C79.1122 29.9134 78.9056 30 78.6658 30H71.7909C71.5511 30 71.3379 29.9134 71.1514 29.7402C70.9782 29.5537 70.8916 29.3338 70.8916 29.0807V17.4093C70.8916 17.1429 70.9782 16.923 71.1514 16.7498C71.3379 16.5766 71.5511 16.49 71.7909 16.49H78.6658C78.9056 16.49 79.1122 16.5766 79.2854 16.7498C79.4719 16.923 79.5652 17.1429 79.5652 17.4093V17.9489C79.5652 18.2021 79.4719 18.4219 79.2854 18.6085C79.1122 18.7817 78.9056 18.8683 78.6658 18.8683H73.5097C73.3498 18.8683 73.2698 18.9549 73.2698 19.1281V21.7861C73.2698 21.9726 73.3498 22.0659 73.5097 22.0659H77.9464C78.2128 22.0659 78.4327 22.1525 78.6059 22.3257C78.7791 22.4989 78.8657 22.7121 78.8657 22.9652V23.5248C78.8657 23.778 78.7791 23.9978 78.6059 24.1843C78.4327 24.3575 78.2128 24.4441 77.9464 24.4441H73.5097C73.3498 24.4441 73.2698 24.5241 73.2698 24.6839V27.3819C73.2698 27.5551 73.3498 27.6418 73.5097 27.6418H78.6658C78.9056 27.6418 79.1122 27.7284 79.2854 27.9016C79.4719 28.0748 79.5652 28.2946 79.5652 28.5611V29.0807ZM90.6104 28.7409C90.7436 29.0474 90.7236 29.3272 90.5504 29.5803C90.3506 29.8601 90.0974 30 89.791 30H89.1914C89.0182 30 88.845 29.9467 88.6718 29.8401C88.512 29.7335 88.3987 29.6003 88.3321 29.4404L86.4535 24.9438C86.3869 24.7839 86.267 24.7039 86.0937 24.7039H84.2351C84.0619 24.7039 83.9753 24.7905 83.9753 24.9637V29.0807C83.9753 29.3338 83.8821 29.5537 83.6955 29.7402C83.5223 29.9134 83.3091 30 83.056 30H82.4964C82.2433 30 82.0301 29.9134 81.8569 29.7402C81.697 29.5537 81.6171 29.3338 81.6171 29.0807V17.4093C81.6171 17.1429 81.697 16.923 81.8569 16.7498C82.0301 16.5766 82.2433 16.49 82.4964 16.49H87.9124C88.392 16.49 88.8317 16.6099 89.2314 16.8498C89.6311 17.0896 89.9509 17.4093 90.1907 17.8091C90.4305 18.2088 90.5504 18.6551 90.5504 19.1481V22.0659C90.5504 22.5855 90.4105 23.0585 90.1308 23.4848C89.8643 23.8979 89.5112 24.2176 89.0715 24.4441C89.0182 24.4574 88.9783 24.5041 88.9516 24.584C88.925 24.6506 88.9316 24.7173 88.9716 24.7839L90.6104 28.7409ZM88.1722 22.0659V19.1481C88.1722 18.9615 88.0856 18.8683 87.9124 18.8683H84.2351C84.0619 18.8683 83.9753 18.9549 83.9753 19.1281V22.0659C83.9753 22.2391 84.0619 22.3257 84.2351 22.3257H87.9124C88.0856 22.3257 88.1722 22.2391 88.1722 22.0659ZM99.1053 25.1036C99.1053 25.3568 99.0187 25.5766 98.8455 25.7631C98.6723 25.9364 98.4591 26.023 98.206 26.023H93.6494C93.3962 26.023 93.1831 25.9364 93.0099 25.7631C92.8367 25.5766 92.7501 25.3568 92.7501 25.1036V24.5441C92.7501 24.2909 92.8367 24.0844 93.0099 23.9245C93.1831 23.7513 93.3962 23.6647 93.6494 23.6647H98.206C98.4591 23.6647 98.6723 23.7513 98.8455 23.9245C99.0187 24.0844 99.1053 24.2909 99.1053 24.5441V25.1036ZM103.53 29.0807C103.53 29.3338 103.437 29.5537 103.25 29.7402C103.077 29.9134 102.864 30 102.611 30H102.071C101.818 30 101.598 29.9134 101.411 29.7402C101.238 29.5537 101.152 29.3338 101.152 29.0807V17.4093C101.152 17.1429 101.238 16.923 101.411 16.7498C101.598 16.5766 101.818 16.49 102.071 16.49H102.611C102.864 16.49 103.077 16.5766 103.25 16.7498C103.437 16.923 103.53 17.1429 103.53 17.4093V29.0807ZM114.705 29.0807C114.705 29.3338 114.612 29.5537 114.425 29.7402C114.252 29.9134 114.039 30 113.786 30H113.206C112.846 30 112.58 29.8468 112.407 29.5403L108.15 22.1658C108.123 22.1125 108.083 22.0992 108.03 22.1258C107.977 22.1392 107.95 22.1658 107.95 22.2058V29.0807C107.95 29.3338 107.857 29.5537 107.67 29.7402C107.497 29.9134 107.291 30 107.051 30H106.491C106.238 30 106.018 29.9134 105.832 29.7402C105.658 29.5537 105.572 29.3338 105.572 29.0807V17.4093C105.572 17.1429 105.658 16.923 105.832 16.7498C106.018 16.5766 106.238 16.49 106.491 16.49H107.071C107.43 16.49 107.697 16.6432 107.87 16.9497L112.127 24.3242C112.167 24.3775 112.207 24.3975 112.247 24.3842C112.3 24.3708 112.327 24.3375 112.327 24.2842V17.4093C112.327 17.1429 112.413 16.923 112.587 16.7498C112.773 16.5766 112.993 16.49 113.246 16.49H113.786C114.039 16.49 114.252 16.5766 114.425 16.7498C114.612 16.923 114.705 17.1429 114.705 17.4093V29.0807ZM125.878 27.362C125.878 27.8416 125.758 28.2813 125.518 28.681C125.278 29.0807 124.959 29.4004 124.559 29.6403C124.159 29.8801 123.72 30 123.24 30H119.403C118.923 30 118.477 29.8801 118.064 29.6403C117.664 29.4004 117.344 29.0807 117.104 28.681C116.865 28.2813 116.745 27.8416 116.745 27.362V26.7624C116.745 26.5093 116.831 26.2961 117.005 26.1229C117.191 25.9364 117.411 25.8431 117.664 25.8431H118.224C118.463 25.8431 118.67 25.9364 118.843 26.1229C119.03 26.2961 119.123 26.5093 119.123 26.7624V27.362C119.123 27.4286 119.15 27.4952 119.203 27.5618C119.27 27.6151 119.336 27.6418 119.403 27.6418H123.24C123.307 27.6418 123.366 27.6151 123.42 27.5618C123.473 27.4952 123.5 27.4286 123.5 27.362V25.5433C123.5 25.3968 123.433 25.3035 123.3 25.2635L118.503 23.4649C117.97 23.2783 117.544 22.9519 117.224 22.4856C116.905 22.0193 116.745 21.5063 116.745 20.9467V19.1481C116.745 18.6551 116.865 18.2088 117.104 17.8091C117.344 17.4093 117.664 17.0896 118.064 16.8498C118.477 16.6099 118.923 16.49 119.403 16.49H123.24C123.72 16.49 124.159 16.6099 124.559 16.8498C124.959 17.0896 125.278 17.4093 125.518 17.8091C125.758 18.2088 125.878 18.6551 125.878 19.1481V19.6877C125.878 19.9408 125.785 20.154 125.598 20.3272C125.425 20.5004 125.212 20.587 124.959 20.587H124.419C124.166 20.587 123.946 20.5004 123.76 20.3272C123.586 20.154 123.5 19.9408 123.5 19.6877V19.1481C123.5 18.9615 123.413 18.8683 123.24 18.8683H119.403C119.336 18.8683 119.27 18.8949 119.203 18.9482C119.15 19.0015 119.123 19.0681 119.123 19.1481V20.9467C119.123 21.1066 119.19 21.2065 119.323 21.2465L124.139 23.0452C124.659 23.2317 125.079 23.5581 125.398 24.0244C125.718 24.4908 125.878 24.997 125.878 25.5433V27.362ZM136.811 17.9489C136.811 18.2021 136.724 18.4219 136.551 18.6085C136.378 18.7817 136.158 18.8683 135.892 18.8683H133.793C133.62 18.8683 133.534 18.9549 133.534 19.1281V29.0807C133.534 29.3338 133.44 29.5537 133.254 29.7402C133.081 29.9134 132.867 30 132.614 30H132.095C131.841 30 131.622 29.9134 131.435 29.7402C131.262 29.5537 131.175 29.3338 131.175 29.0807V19.1281C131.175 18.9549 131.089 18.8683 130.915 18.8683H128.797C128.544 18.8683 128.324 18.7817 128.138 18.6085C127.964 18.4219 127.878 18.2021 127.878 17.9489V17.4093C127.878 17.1429 127.964 16.923 128.138 16.7498C128.324 16.5766 128.544 16.49 128.797 16.49H135.892C136.158 16.49 136.378 16.5766 136.551 16.7498C136.724 16.923 136.811 17.1429 136.811 17.4093V17.9489ZM147.159 28.8009C147.239 29.1073 147.192 29.3871 147.019 29.6403C146.845 29.8801 146.599 30 146.279 30H145.7C145.513 30 145.333 29.94 145.16 29.8201C145 29.7002 144.887 29.5537 144.82 29.3805L144.061 27.0822C144.008 26.909 143.894 26.8224 143.721 26.8224H140.304C140.13 26.8224 140.017 26.909 139.964 27.0822L139.204 29.3805C139.138 29.5537 139.025 29.7002 138.865 29.8201C138.705 29.94 138.525 30 138.325 30H137.746C137.426 30 137.179 29.8801 137.006 29.6403C136.82 29.3738 136.78 29.094 136.886 28.8009L140.763 17.1096C140.83 16.923 140.937 16.7765 141.083 16.6699C141.243 16.55 141.416 16.49 141.603 16.49H142.422C142.609 16.49 142.782 16.55 142.942 16.6699C143.102 16.7765 143.208 16.923 143.261 17.1096L147.159 28.8009ZM143.122 24.2043L142.122 21.1466C142.056 21.0533 141.982 21.0533 141.902 21.1466L140.903 24.2043C140.877 24.2709 140.883 24.3309 140.923 24.3842C140.963 24.4375 141.016 24.4641 141.083 24.4641H142.942C143.008 24.4641 143.062 24.4375 143.102 24.3842C143.142 24.3309 143.148 24.2709 143.122 24.2043ZM157.863 29.0807C157.863 29.3338 157.77 29.5537 157.583 29.7402C157.41 29.9134 157.204 30 156.964 30H150.089C149.849 30 149.636 29.9134 149.45 29.7402C149.276 29.5537 149.19 29.3338 149.19 29.0807V17.4093C149.19 17.1429 149.276 16.923 149.45 16.7498C149.636 16.5766 149.849 16.49 150.089 16.49H150.649C150.902 16.49 151.115 16.5766 151.288 16.7498C151.475 16.923 151.568 17.1429 151.568 17.4093V27.3819C151.568 27.5551 151.648 27.6418 151.808 27.6418H156.964C157.204 27.6418 157.41 27.7284 157.583 27.9016C157.77 28.0748 157.863 28.2946 157.863 28.5611V29.0807Z" fill="#2F3245"/>
</svg>
