<svg width="64" height="64" viewBox="0 0 64 64" fill="none" xmlns="http://www.w3.org/2000/svg">
<path d="M32.374 17.0533C33.0693 17.4468 33.0693 17.4468 33.2464 17.801C33.2652 17.9903 33.2774 18.1804 33.2858 18.3705C33.291 18.4822 33.2962 18.5938 33.3016 18.7088C33.3065 18.8256 33.3114 18.9424 33.3165 19.0627C33.3218 19.1805 33.3272 19.2982 33.3328 19.4196C33.346 19.7108 33.3587 20.0021 33.371 20.2933C33.4311 20.2318 33.4911 20.1703 33.553 20.1069C33.6711 19.9871 33.6711 19.9871 33.7916 19.865C33.8696 19.7854 33.9477 19.7059 34.0281 19.624C34.3328 19.3366 34.4726 19.2987 34.8976 19.2497C35.5135 19.3113 35.6812 19.4881 36.1126 19.9195C36.3063 20.307 36.2729 20.6127 36.2372 21.041C35.9642 21.5794 35.6745 21.8486 35.1765 22.1869C34.3493 22.7896 33.5408 23.4266 33.2993 24.4645C33.0458 26.1661 33.1503 27.9281 33.2464 29.6397C33.3354 29.5883 33.4244 29.5369 33.5161 29.4839C33.7807 29.3312 34.0453 29.1786 34.3101 29.0261C34.6099 28.8532 34.9087 28.6785 35.2068 28.5025C36.4695 27.7606 36.4695 27.7606 37.0594 27.5295C37.6666 27.2751 38.0901 27.0749 38.3791 26.457C38.6572 25.6952 38.8439 24.9181 39.0204 24.1278C39.3313 22.8355 39.3313 22.8355 39.8511 22.4118C40.4245 22.2803 40.7128 22.2396 41.2687 22.4352C41.7366 22.7583 41.7366 22.7583 41.845 23.1596C41.8849 23.6824 41.8617 24.1486 41.7204 24.655C41.8348 24.5906 41.9491 24.5261 42.067 24.4598C43.4559 23.7036 43.4559 23.7036 44.0414 23.7593C44.57 23.9453 44.8353 24.1555 45.0851 24.655C45.1557 25.517 45.1557 25.517 44.9137 25.979C44.4524 26.3964 43.7398 27.0227 43.0912 27.0227C43.0912 27.105 43.0912 27.1872 43.0912 27.272C43.2197 27.2797 43.3482 27.2874 43.4806 27.2953C44.063 27.4174 44.3114 27.5817 44.7112 28.0197C44.8687 28.5292 44.87 28.7933 44.6956 29.297C44.4245 29.6947 44.293 29.8493 43.8389 30.0135C42.7908 30.0121 41.8102 29.6862 40.8196 29.379C40.7035 29.345 40.5875 29.3111 40.4679 29.2761C40.3642 29.2442 40.2606 29.2124 40.1538 29.1796C39.5471 29.1027 39.0432 29.4816 38.5295 29.7702C38.3966 29.8447 38.2636 29.9192 38.1267 29.996C37.9889 30.0738 37.8512 30.1515 37.7092 30.2316C37.5739 30.3075 37.4386 30.3833 37.2991 30.4614C36.4799 30.9219 35.6691 31.3941 34.8664 31.8828C35.3022 32.2473 35.744 32.5444 36.2372 32.8257C36.3786 32.9068 36.5199 32.9878 36.6656 33.0713C36.8135 33.1555 36.9615 33.2396 37.1095 33.3237C37.2575 33.4083 37.4055 33.4929 37.5535 33.5776C37.8259 33.7335 38.0985 33.8891 38.3713 34.0444C38.607 34.18 38.8406 34.3193 39.0719 34.4623C39.6353 34.7877 40.2555 34.5904 40.8592 34.4311C41.2474 34.3222 41.6348 34.2119 42.0199 34.0921C42.6499 33.9028 43.18 33.8268 43.8389 33.8767C44.2455 34.1133 44.5103 34.2871 44.6733 34.7412C44.75 35.1724 44.7351 35.4371 44.571 35.8472C44.1239 36.3689 43.6059 36.5357 42.9666 36.7429C43.0882 36.8091 43.2098 36.8753 43.3351 36.9435C43.4953 37.0323 43.6554 37.1213 43.8155 37.2102C43.8956 37.2536 43.9757 37.297 44.0582 37.3417C44.6211 37.6567 44.9649 37.9208 45.1941 38.5265C45.2207 39.0988 44.9976 39.5481 44.6255 39.9752C44.2012 40.1702 43.7955 40.1678 43.3404 40.1076C43.0037 39.9783 42.7096 39.8021 42.4058 39.6091C42.3271 39.5616 42.2484 39.514 42.1673 39.465C41.9756 39.3489 41.7855 39.23 41.5958 39.1107C41.6154 39.2034 41.635 39.296 41.6552 39.3915C41.858 40.4555 41.858 40.4555 41.6075 40.9566C41.3566 41.291 41.1296 41.4665 40.739 41.6108C40.2322 41.6007 39.9177 41.4785 39.4773 41.2292C39.1637 40.7906 39.0202 40.3749 38.8936 39.854C38.8577 39.7121 38.8218 39.5701 38.7848 39.4239C38.7115 39.1265 38.6389 38.8289 38.5667 38.5311C38.5126 38.3185 38.5126 38.3185 38.4574 38.1016C38.4259 37.9724 38.3943 37.8432 38.3618 37.7101C38.1105 37.0486 37.6152 36.7741 37.019 36.4362C36.88 36.3569 36.7411 36.2775 36.5979 36.1958C36.4517 36.1133 36.3055 36.0309 36.1593 35.9485C35.8746 35.7866 35.59 35.6247 35.3055 35.4627C35.1687 35.385 35.032 35.3072 34.8911 35.2272C34.338 34.9095 33.7913 34.582 33.2464 34.2506C32.8304 37.8445 32.8304 37.8445 33.9853 41.0676C34.5376 41.6614 35.1939 42.1186 35.8467 42.5954C36.1507 42.8856 36.2175 43.042 36.2703 43.4543C36.2756 43.9259 36.1738 44.228 35.8633 44.5939C35.4245 44.8864 35.1857 44.9157 34.6707 44.9098C34.1107 44.7864 33.7526 44.3784 33.371 43.9708C33.3692 44.1255 33.3674 44.2802 33.3656 44.4396C33.3598 44.6442 33.3538 44.8488 33.3476 45.0534C33.3465 45.206 33.3465 45.206 33.3454 45.3618C33.3254 45.9127 33.3001 46.147 32.9441 46.5902C32.4729 46.9527 32.2227 47.0189 31.6263 46.9616C30.9311 46.5681 30.9311 46.5681 30.754 46.2139C30.7353 46.0427 30.723 45.8708 30.7146 45.6989C30.7093 45.5985 30.7041 45.4981 30.6987 45.3946C30.6938 45.2897 30.6889 45.1848 30.6839 45.0768C30.6785 44.9709 30.6731 44.865 30.6676 44.756C30.6544 44.4943 30.6418 44.2325 30.6294 43.9708C30.5704 44.0337 30.5115 44.0967 30.4507 44.1616C30.0118 44.5928 29.6831 44.9064 29.0483 44.9288C28.6816 44.8946 28.4762 44.8265 28.137 44.664C27.7907 44.2203 27.7028 43.7825 27.7632 43.2231C28.0096 42.7318 28.2527 42.4899 28.7144 42.1998C29.6005 41.5565 30.45 40.8866 30.705 39.7791C30.9712 37.9621 30.861 36.0777 30.754 34.2506C30.5578 34.3646 30.3616 34.4787 30.1655 34.5928C30.04 34.6657 29.9145 34.7387 29.7852 34.8138C29.5108 34.9738 29.2368 35.1345 28.9632 35.2959C28.3702 35.6453 27.7799 35.9926 27.1659 36.3038C26.4061 36.6967 25.842 37.0014 25.5668 37.8645C25.5056 38.1544 25.4488 38.4453 25.3954 38.7368C25.3026 39.1132 25.1976 39.4855 25.0917 39.8584C25.069 39.9479 25.0463 40.0373 25.023 40.1295C24.8582 40.7294 24.6455 41.0742 24.1492 41.4784C23.7384 41.6068 23.4921 41.6246 23.0744 41.5251C22.6895 41.3023 22.5062 41.1161 22.28 40.7307C22.1987 40.173 22.2878 39.6576 22.4046 39.1107C22.2902 39.1826 22.1758 39.2546 22.058 39.3288C21.9036 39.4223 21.7491 39.5158 21.5946 39.6091C21.5197 39.6567 21.4449 39.7042 21.3677 39.7532C20.7715 40.1084 20.3559 40.1725 19.663 40.1076C19.205 39.8587 19.0681 39.6714 18.853 39.1963C18.7801 38.6591 18.8763 38.3128 19.1645 37.8645C19.4429 37.6468 19.6777 37.4848 19.9823 37.3193C20.0558 37.2767 20.1293 37.2341 20.205 37.1903C20.4775 37.0334 20.7525 36.8835 21.0338 36.7429C20.9482 36.7113 20.8625 36.6796 20.7743 36.647C20.6059 36.5827 20.6059 36.5827 20.4341 36.5171C20.3227 36.4751 20.2114 36.4332 20.0967 36.39C19.7899 36.2455 19.6188 36.1381 19.4138 35.8706C19.2237 35.0287 19.2237 35.0287 19.4371 34.5232C19.833 34.0454 19.833 34.0454 20.1615 33.8767C21.0168 33.8118 21.7292 34.0062 22.5448 34.2506C22.7837 34.3216 23.0229 34.3917 23.2623 34.4609C23.3669 34.4922 23.4715 34.5235 23.5793 34.5558C24.3118 34.7125 24.7435 34.6231 25.3857 34.2418C25.5238 34.1608 25.662 34.0799 25.8043 33.9965C25.9484 33.9098 26.0925 33.8232 26.2366 33.7365C26.4477 33.6122 26.4477 33.6122 26.663 33.4853C27.0724 33.2437 27.4803 32.9999 27.8878 32.7551C28.0135 32.6798 28.1392 32.6045 28.2687 32.527C28.5573 32.354 28.8457 32.1808 29.134 32.0074C28.6827 31.6281 28.2216 31.3272 27.7086 31.0373C27.6336 30.9946 27.5585 30.9519 27.4811 30.908C27.2431 30.7729 27.0047 30.6385 26.7662 30.5042C26.5279 30.3693 26.2896 30.2343 26.0513 30.0991C25.8353 29.9767 25.619 29.8547 25.4027 29.7326C25.1607 29.5945 24.9223 29.4495 24.6896 29.296C24.2382 29.056 23.8525 29.2127 23.386 29.3437C23.292 29.3678 23.198 29.3918 23.1012 29.4166C22.6898 29.523 22.2826 29.6389 21.8759 29.7619C21.1612 29.9775 20.5169 30.1346 19.7876 29.8889C19.3958 29.5559 19.305 29.325 19.1723 28.8297C19.1634 28.3328 19.2299 28.1533 19.5384 27.7704C19.9475 27.3613 20.3447 27.3262 20.9092 27.272C20.5313 26.853 20.0731 26.6218 19.5851 26.3495C19.2756 26.1413 19.1052 25.9715 18.9153 25.6519C18.841 25.0762 18.8243 24.7032 19.1723 24.2266C19.6184 23.8375 19.8237 23.8019 20.4107 23.7826C20.7619 23.8866 21.0757 24.0421 21.3999 24.211C21.4851 24.2532 21.5703 24.2954 21.6581 24.3388C21.8664 24.4422 22.0733 24.5483 22.28 24.655C22.26 24.5828 22.2401 24.5107 22.2196 24.4364C22.0863 23.8556 22.0777 23.3476 22.3033 22.8013C22.5811 22.4757 22.7336 22.3803 23.1523 22.2872C23.644 22.2794 24.0079 22.2966 24.3979 22.6147C24.7059 22.9792 24.7853 23.2746 24.9013 23.7364C24.9219 23.815 24.9424 23.8936 24.9636 23.9746C25.0287 24.2244 25.0915 24.4746 25.154 24.7251C25.217 24.9759 25.2806 25.2265 25.3457 25.4768C25.4047 25.7035 25.4617 25.9307 25.5186 26.158C25.7468 26.8211 26.1775 27.008 26.7745 27.3445C26.8485 27.3864 26.9224 27.4284 26.9986 27.4716C27.235 27.6055 27.4718 27.7386 27.7086 27.8717C28.0179 28.0462 28.327 28.221 28.636 28.3959C28.7106 28.4381 28.7853 28.4803 28.8622 28.5238C29.4995 28.8848 30.1287 29.2583 30.754 29.6397C31.1345 26.264 31.1345 26.264 30.0472 23.2272C29.5284 22.6552 28.9189 22.1786 28.2789 21.7493C27.8569 21.4172 27.7768 21.1459 27.7086 20.6205C27.781 20.021 27.9643 19.843 28.3863 19.421C28.7943 19.217 29.0531 19.2387 29.5078 19.2964C29.9124 19.5533 30.2716 19.8507 30.6294 20.1687C30.6311 20.005 30.6329 19.8413 30.6347 19.6727C30.6406 19.4564 30.6466 19.2401 30.6527 19.0238C30.6538 18.8622 30.6538 18.8622 30.6549 18.6974C30.6744 18.1316 30.6939 17.8766 31.0563 17.4208C31.5285 17.0632 31.7794 16.9961 32.374 17.0533Z" fill="#0B63E5"/>
<path d="M44.8321 16.2388C45.038 16.4239 45.2418 16.6113 45.443 16.8015C45.6856 17.0304 45.9357 17.2403 46.1937 17.4514C49.8374 20.647 51.8659 25.677 52.2922 30.4117C52.3031 30.653 52.3109 30.8945 52.3155 31.136C52.3204 31.2668 52.3252 31.3975 52.3301 31.5322C52.4469 37.1514 50.2578 42.2686 46.4585 46.3394C42.6487 50.2451 37.4093 52.2447 32.0028 52.3522C26.3466 52.2398 21.3461 50.0482 17.3149 46.116C13.5966 42.2147 11.6263 37.039 11.6706 31.6598C11.7779 27.9498 11.7779 27.9498 12.5779 26.9379C13.0828 26.7075 13.513 26.6619 14.0578 26.7744C14.4927 27.0734 14.6437 27.2762 14.7977 27.7791C14.8065 28.334 14.7244 28.8343 14.6244 29.3787C13.8795 33.6036 14.9963 38.2101 17.3617 41.7623C17.7753 42.3503 18.2148 42.9159 18.6687 43.4732C18.7523 43.577 18.836 43.6807 18.9223 43.7877C19.41 44.3676 19.9512 44.8643 20.5379 45.3425C20.7172 45.4892 20.7172 45.4892 20.9001 45.6389C21.8448 46.3968 22.8277 47.0267 23.9026 47.5856C24.0472 47.6613 24.1918 47.7369 24.3407 47.8149C26.022 48.6609 27.8883 49.242 29.7597 49.4549C29.9247 49.4753 29.9247 49.4753 30.0931 49.4962C34.5917 49.9845 39.3072 48.6766 42.8446 45.8409C43.4979 45.2899 44.1176 44.7086 44.7138 44.0963C44.7778 44.0346 44.8417 43.9729 44.9076 43.9094C48.0254 40.8818 49.5197 36.325 49.5973 32.0551C49.5489 27.1187 47.5317 22.6308 44.0354 19.175C43.1698 18.3486 42.2527 17.6643 41.2245 17.0542C41.0882 16.973 41.0882 16.973 40.9492 16.8903C36.8337 14.4891 32.0531 13.8336 27.4401 15.0291C24.6595 15.7976 22.3224 17.1077 20.1894 19.0495C19.5747 19.6042 19.1453 19.8935 18.3099 19.8513C17.8569 19.7561 17.6773 19.547 17.4225 19.1727C17.2791 18.6798 17.2508 18.4162 17.4449 17.9387C19.2964 14.7879 24.0899 13.079 27.3783 12.1833C33.3847 10.7458 40.0899 12.2879 44.8321 16.2388Z" fill="#0B63E5"/>
<path d="M25.0614 0.00839067C25.9188 0.256412 26.4895 1.04808 27.0509 1.70242C27.362 2.06103 27.685 2.39358 28.0318 2.71786C28.1183 2.79955 28.2049 2.88123 28.2941 2.96539C28.4717 3.13165 28.6509 3.29618 28.8316 3.459C29.3618 3.96589 29.6143 4.32995 29.676 5.06835C29.5649 5.77336 29.0198 6.23565 28.5317 6.7144C28.4264 6.81918 28.4264 6.81918 28.3189 6.92608C28.0956 7.14802 27.8714 7.36909 27.6472 7.59013C27.497 7.73912 27.3468 7.88815 27.1967 8.03725C26.9206 8.31128 26.6442 8.58497 26.3675 8.85825C26.1563 9.06702 25.9465 9.27717 25.7392 9.4898C25.3627 9.85382 25.0476 9.8667 24.5288 9.86198C24.1337 9.80521 23.9234 9.607 23.6516 9.327C23.4247 8.87308 23.409 8.44762 23.527 7.9562C23.8538 7.49052 24.2384 7.10251 24.6486 6.71002C24.7734 6.58563 24.8981 6.46106 25.0224 6.33616C23.5783 6.32746 22.1341 6.32084 20.69 6.31679C20.0192 6.31485 19.3484 6.31223 18.6777 6.30796C18.0288 6.30386 17.38 6.30166 16.7312 6.30069C16.4852 6.30001 16.2392 6.29868 15.9932 6.29664C14.1857 6.28228 12.2721 6.27064 10.6446 7.16955C10.5214 7.23489 10.5214 7.23489 10.3956 7.30156C8.565 8.30136 7.42886 9.74284 6.70357 11.6947C6.23581 13.334 6.27976 15.0057 6.28615 16.696C6.28788 17.1963 6.28712 17.6965 6.28555 18.1968C6.28183 19.5274 6.28199 20.858 6.28434 22.1886C6.28587 23.0672 6.28564 23.9457 6.28204 24.8243C6.28046 25.2401 6.28048 25.6557 6.28263 26.0715C6.28499 26.5335 6.28359 26.9953 6.28134 27.4573C6.283 27.5941 6.28467 27.7309 6.28638 27.8718C6.27633 28.7989 6.27633 28.7989 5.90436 29.2855C5.38199 29.6576 5.10931 29.6635 4.48478 29.5872C4.21121 29.5151 4.21121 29.5151 3.89966 29.2192C3.64034 28.7653 3.57245 28.4317 3.57145 27.9181C3.57092 27.7944 3.57039 27.6708 3.56984 27.5434C3.56993 27.3401 3.56993 27.3401 3.57002 27.1327C3.5696 26.9897 3.56918 26.8468 3.56875 26.6996C3.56756 26.2251 3.56732 25.7506 3.56719 25.2762C3.56689 25.0294 3.56659 24.7826 3.56626 24.5359C3.56524 23.7584 3.56494 22.981 3.56503 22.2036C3.5651 21.4057 3.56379 20.6079 3.56182 19.8101C3.56018 19.1227 3.55952 18.4353 3.5596 17.7479C3.55963 17.3385 3.55917 16.9291 3.55796 16.5197C3.54737 12.5818 3.99006 9.37547 6.8423 6.43888C9.57615 3.86497 12.8124 3.58659 16.379 3.55514C16.6255 3.55257 16.872 3.54995 17.1186 3.54729C17.7627 3.54046 18.4068 3.53428 19.0509 3.52824C19.71 3.52195 20.3692 3.51503 21.0283 3.50816C22.3181 3.49482 23.608 3.48217 24.8978 3.46995C24.8287 3.4016 24.7597 3.33324 24.6885 3.26282C24.5982 3.1731 24.5079 3.08339 24.4149 2.99095C24.2805 2.85758 24.2805 2.85758 24.1433 2.72151C23.7014 2.26857 23.5451 1.99203 23.4647 1.35923C23.487 0.907097 23.6062 0.573886 23.9335 0.241076C24.306 0.00750518 24.6275 -0.0180781 25.0614 0.00839067Z" fill="#0B63E5"/>
<path d="M5.70558 34.4997C6.08181 34.7449 6.37562 35.05 6.68306 35.3754C6.813 35.507 6.813 35.5071 6.94557 35.6413C7.22007 35.9206 7.49087 36.2031 7.76178 36.4858C7.94751 36.6755 8.13346 36.8649 8.31964 37.0541C8.65808 37.3998 8.99597 37.746 9.33095 38.0951C9.39813 38.165 9.46531 38.2349 9.53453 38.307C9.85359 38.6696 9.85881 39.0046 9.85449 39.4796C9.79772 39.8746 9.59951 40.085 9.31951 40.3567C8.86558 40.5837 8.44013 40.5994 7.94871 40.4814C7.48303 40.1546 7.09502 39.77 6.70253 39.3598C6.57814 39.235 6.45357 39.1103 6.32867 38.986C6.31996 40.4301 6.31334 41.8742 6.3093 43.3184C6.30736 43.9892 6.30474 44.6599 6.30047 45.3307C6.29637 45.9795 6.29417 46.6284 6.2932 47.2772C6.29252 47.5232 6.29118 47.7692 6.28915 48.0152C6.26898 50.5541 6.53429 52.7051 8.07333 54.8124C8.20827 55.0014 8.20827 55.0014 8.34593 55.1941C9.62843 56.6739 11.6432 57.4954 13.5565 57.6787C14.0553 57.6963 14.5537 57.6953 15.0527 57.6944C15.2757 57.6947 15.2757 57.6947 15.5031 57.6951C15.8249 57.6956 16.1466 57.6958 16.4684 57.6959C16.9775 57.696 17.4865 57.6976 17.9956 57.6996C18.0817 57.6999 18.1678 57.7002 18.2565 57.7005C18.4325 57.7012 18.6085 57.7018 18.7845 57.7025C19.9685 57.7069 21.1526 57.7102 22.3366 57.7099C23.137 57.7097 23.9373 57.7117 24.7377 57.7162C25.1607 57.7185 25.5836 57.7197 26.0066 57.7181C26.478 57.7169 26.9492 57.7196 27.4206 57.7231C27.5603 57.7218 27.7 57.7205 27.844 57.7192C28.7909 57.7319 28.7909 57.7319 29.2798 58.1043C29.6495 58.627 29.6559 58.8999 29.5797 59.5236C29.5076 59.7972 29.5076 59.7972 29.2117 60.1087C28.7579 60.368 28.4243 60.4359 27.9106 60.4369C27.787 60.4375 27.6633 60.438 27.5359 60.4385C27.4004 60.4385 27.2648 60.4384 27.1252 60.4384C26.9823 60.4388 26.8394 60.4392 26.6921 60.4396C26.2176 60.4408 25.7432 60.4411 25.2687 60.4412C25.0219 60.4415 24.7751 60.4418 24.5284 60.4421C23.7509 60.4431 22.9735 60.4434 22.1961 60.4434C21.3982 60.4433 20.6004 60.4446 19.8026 60.4466C19.1152 60.4482 18.4278 60.4489 17.7404 60.4488C17.331 60.4487 16.9216 60.4492 16.5122 60.4504C12.7198 60.4606 9.42278 60.0823 6.57791 57.3048C3.96235 54.604 3.55685 51.3888 3.53548 47.7876C3.53314 47.536 3.5307 47.2844 3.52816 47.0329C3.52182 46.3771 3.51686 45.7213 3.51219 45.0656C3.50717 44.3938 3.50082 43.7221 3.49459 43.0504C3.48259 41.7371 3.47205 40.4239 3.46246 39.1106C3.35979 39.2142 3.35979 39.2142 3.25506 39.3199C3.16527 39.4102 3.07548 39.5004 2.98297 39.5935C2.89397 39.6831 2.80496 39.7727 2.71326 39.8651C2.25392 40.3146 1.92101 40.5015 1.28164 40.5437C0.857499 40.5253 0.716003 40.4784 0.339217 40.2477C0.0521385 39.7847 -0.0220742 39.4876 0.00527974 38.947C0.242028 38.0897 1.0423 37.5177 1.69201 36.9575C2.33544 36.3984 2.92393 35.7881 3.51722 35.1768C3.60148 35.0912 3.68573 35.0056 3.77254 34.9174C3.84777 34.84 3.923 34.7627 4.00051 34.683C4.49836 34.2477 5.10884 34.3272 5.70558 34.4997Z" fill="#0B63E5"/>
<path d="M36.2132 3.57747C36.3936 3.57668 36.3936 3.57668 36.5777 3.57586C36.7745 3.57595 36.7745 3.57595 36.9753 3.57603C37.1142 3.57561 37.2531 3.5752 37.3962 3.57476C37.8567 3.57358 38.3171 3.57334 38.7776 3.5732C39.0987 3.5728 39.4198 3.57238 39.7409 3.57195C40.4155 3.5712 41.09 3.57096 41.7646 3.57104C42.5391 3.57112 43.3136 3.56981 44.0881 3.56784C44.8374 3.56599 45.5866 3.56556 46.3358 3.56564C46.6523 3.56549 46.9688 3.56494 47.2853 3.56397C51.2722 3.55291 54.5883 3.95358 57.5686 6.84832C59.6337 9.0417 60.4178 11.8046 60.4385 14.7461C60.4398 14.8568 60.441 14.9676 60.4423 15.0818C60.4462 15.4432 60.4493 15.8046 60.4524 16.166C60.4549 16.4184 60.4576 16.6709 60.4602 16.9234C60.4671 17.5843 60.4732 18.2452 60.4793 18.9061C60.4856 19.5819 60.4925 20.2577 60.4993 20.9336C60.5127 22.257 60.5254 23.5804 60.5376 24.9038C60.6336 24.8153 60.7297 24.7268 60.8287 24.6356C60.9549 24.5199 61.0811 24.4042 61.2074 24.2885C61.2707 24.2301 61.334 24.1717 61.3992 24.1116C61.9092 23.6451 62.1811 23.4766 62.8917 23.4921C63.2476 23.5475 63.5091 23.6874 63.7674 23.9385C64.0008 24.3152 64.0111 24.6522 63.9792 25.0873C63.8345 25.6798 63.4688 25.9945 63.0299 26.3992C62.8879 26.533 62.7459 26.6669 62.604 26.8008C62.3637 27.0268 62.1227 27.2517 61.8793 27.4743C61.4973 27.8241 61.1245 28.1749 60.7741 28.5567C59.8291 29.585 59.8291 29.585 59.1823 29.686C58.7063 29.706 58.4361 29.5267 58.0452 29.2655C57.7868 29.0273 57.5388 28.7882 57.2931 28.5377C57.1883 28.4324 57.1883 28.4324 57.0814 28.325C56.8595 28.1016 56.6384 27.8774 56.4174 27.6532C56.2684 27.503 56.1194 27.3528 55.9703 27.2027C55.6962 26.9266 55.4225 26.6503 55.1493 26.3735C54.9405 26.1623 54.7303 25.9525 54.5177 25.7452C54.1537 25.3687 54.1408 25.0536 54.1455 24.5348C54.2023 24.1397 54.4005 23.9294 54.6805 23.6576C55.1344 23.4307 55.5599 23.415 56.0513 23.533C56.517 23.8598 56.905 24.2444 57.2975 24.6546C57.4219 24.7794 57.5464 24.9041 57.6713 25.0284C57.6801 23.5843 57.6867 22.1402 57.6907 20.696C57.6927 20.0252 57.6953 19.3545 57.6995 18.6837C57.7036 18.0349 57.7059 17.386 57.7068 16.7372C57.7075 16.4912 57.7088 16.2452 57.7109 15.9992C57.7317 13.3727 57.4705 11.1987 55.8021 9.07733C55.7222 8.97131 55.6424 8.86528 55.5601 8.75605C54.2727 7.24137 52.2425 6.53 50.3189 6.33573C49.3174 6.28037 48.3141 6.28838 47.3115 6.29217C46.8112 6.2939 46.311 6.29314 45.8108 6.29157C44.4801 6.28785 43.1495 6.28801 41.8189 6.29035C40.9403 6.29189 40.0618 6.29166 39.1832 6.28806C38.7674 6.28648 38.3518 6.2865 37.936 6.28865C37.474 6.29101 37.0122 6.28961 36.5502 6.28736C36.345 6.28985 36.345 6.28985 36.1357 6.2924C35.2087 6.28235 35.2087 6.28235 34.722 5.91038C34.35 5.38812 34.3435 5.11525 34.4208 4.4908C34.4924 4.21723 34.4924 4.21723 34.7806 3.90568C35.266 3.63474 35.6614 3.57858 36.2132 3.57747Z" fill="#0B63E5"/>
<path d="M58.0448 53.9404C58.4112 54.1898 58.6112 54.3753 58.7409 54.8059C58.8238 55.6027 58.4591 56.1065 57.9776 56.7112C55.9293 59.0132 53.3474 60.1779 50.3185 60.4206C49.9281 60.4381 49.5382 60.4434 49.1475 60.4461C49.0379 60.4474 48.9283 60.4486 48.8154 60.4499C48.4581 60.4538 48.1007 60.4569 47.7434 60.46C47.4937 60.4626 47.244 60.4652 46.9944 60.4678C46.3408 60.4747 45.6873 60.4809 45.0338 60.4869C44.3655 60.4932 43.6972 60.5001 43.0288 60.507C41.7202 60.5203 40.4115 60.533 39.1029 60.5452C39.2356 60.6893 39.2356 60.6893 39.3711 60.8363C39.4868 60.9625 39.6025 61.0887 39.7182 61.215C39.8058 61.3099 39.8058 61.3099 39.8951 61.4068C40.3616 61.9168 40.5301 62.1887 40.5146 62.8993C40.4592 63.2552 40.3193 63.5167 40.0682 63.775C39.6915 64.0085 39.3545 64.0187 38.9194 63.9868C38.3269 63.8421 38.0122 63.4764 37.6075 63.0375C37.4737 62.8955 37.3398 62.7535 37.2059 62.6116C36.9799 62.3713 36.755 62.1303 36.5324 61.8869C36.1826 61.5049 35.8318 61.1321 35.45 60.7818C34.4217 59.8367 34.4217 59.8367 34.3207 59.19C34.2977 58.6406 34.5596 58.2574 34.9178 57.8539C35.1377 57.6255 35.3613 57.4014 35.5868 57.1785C35.6687 57.0967 35.7505 57.0149 35.8349 56.9307C36.0073 56.7586 36.18 56.5868 36.353 56.4154C36.6185 56.1522 36.8829 55.8881 37.1472 55.6237C37.315 55.4565 37.4829 55.2894 37.6508 55.1223C37.7301 55.0432 37.8094 54.964 37.8911 54.8824C37.9648 54.8096 38.0384 54.7368 38.1142 54.6617C38.179 54.5975 38.2437 54.5332 38.3104 54.467C38.6643 54.1479 39.0058 54.1489 39.4719 54.1531C39.867 54.2099 40.0773 54.4081 40.3491 54.6881C40.576 55.142 40.5917 55.5675 40.4737 56.0589C40.1469 56.5246 39.7623 56.9126 39.3521 57.3051C39.2273 57.4295 39.1026 57.5541 38.9783 57.679C40.4408 57.6877 41.9033 57.6943 43.3659 57.6983C44.0452 57.7003 44.7245 57.7029 45.4038 57.7072C46.0607 57.7113 46.7176 57.7135 47.3745 57.7144C47.6238 57.7151 47.873 57.7164 48.1222 57.7185C50.6175 57.738 52.7685 57.5028 54.8048 55.9343C54.9243 55.8437 54.9243 55.8437 55.0462 55.7513C55.5676 55.3323 55.9463 54.8564 56.3284 54.3084C56.8248 53.7617 57.3601 53.757 58.0448 53.9404Z" fill="#0B63E5"/>
<path d="M59.5435 34.2519C59.9092 34.4476 60.2212 34.6896 60.3724 35.0898C60.4328 35.484 60.4328 35.8678 60.434 36.2667C60.4344 36.3557 60.4348 36.4447 60.4352 36.5364C60.4364 36.8301 60.4367 37.1238 60.4368 37.4175C60.4372 37.622 60.4376 37.8266 60.4381 38.0311C60.4388 38.4597 60.439 38.8882 60.439 39.3168C60.439 39.8654 60.4407 40.4141 60.4428 40.9627C60.4442 41.3851 60.4444 41.8075 60.4444 42.2299C60.4445 42.4322 60.4451 42.6344 60.446 42.8367C60.4473 43.1197 60.4469 43.4028 60.4461 43.6858C60.4463 43.8467 60.4465 44.0077 60.4467 44.1735C60.4049 44.7452 60.2893 45.0848 59.9018 45.5064C59.4357 45.78 59.0752 45.8257 58.5466 45.7167C58.1964 45.4932 57.9846 45.3405 57.7989 44.969C57.7847 44.6567 57.778 44.3478 57.7768 44.0354C57.776 43.9392 57.7752 43.8429 57.7744 43.7437C57.7719 43.4244 57.7704 43.1051 57.7692 42.7858C57.7687 42.6768 57.7682 42.5678 57.7677 42.4555C57.7651 41.8787 57.7633 41.3019 57.7621 40.725C57.7607 40.1291 57.7564 39.5333 57.7515 38.9374C57.7482 38.4793 57.7472 38.0212 57.7467 37.5631C57.7461 37.3434 57.7447 37.1238 57.7424 36.9041C57.7393 36.5965 57.7395 36.2891 57.7403 35.9815C57.7387 35.8909 57.7371 35.8003 57.7355 35.707C57.7417 35.1047 57.8696 34.799 58.2974 34.3765C58.7003 34.175 59.108 34.1791 59.5435 34.2519Z" fill="#0B63E5"/>
<path d="M16.0521 21.665C16.4886 22.0469 16.653 22.2748 16.7453 22.8489C16.6634 23.3586 16.4996 23.6339 16.1767 24.0327C15.7787 24.2317 15.3636 24.2039 14.9305 24.1573C14.4513 23.949 14.2493 23.7658 14.0582 23.285C14.0315 22.8958 14.074 22.5381 14.1828 22.1635C14.755 21.5767 15.26 21.4211 16.0521 21.665Z" fill="#0B63E5"/>
<path d="M59.6648 48.5816C60.0698 48.8897 60.2527 49.0919 60.4048 49.5785C60.4168 50.1555 60.2875 50.4403 59.8985 50.8636C59.4324 51.1372 59.0719 51.1829 58.5433 51.0739C58.1931 50.8504 57.9813 50.6977 57.7956 50.3262C57.7431 49.945 57.7358 49.5853 57.7956 49.2047C58.3463 48.4902 58.7992 48.3726 59.6648 48.5816Z" fill="#0B63E5"/>
</svg>
